<svg width="150" height="150" viewBox="0 0 150 150" fill="none" xmlns="http://www.w3.org/2000/svg">
<path d="M93.134 51.8042C92.0422 53.0377 88.2834 57.1772 87.108 58.7518C79.5463 47.755 78.0575 46.5879 72.0786 46.5879C61.5676 46.6431 50.6283 50.4542 41.7793 55.9586C35.9093 59.6152 35.4272 61.4457 34.7467 67.1172C34.24 71.063 33.9659 75.0349 33.9258 79.0132C34.1885 77.1237 46.0486 77.5155 46.0486 79.6938C46.077 76.1066 46.4031 67.7411 46.6016 65.8411C47.3814 65.5576 48.4306 65.1747 49.5791 64.7777C51.6815 62.9235 53.6657 60.9393 55.52 58.8368C56.2369 62.2982 56.6732 65.8117 56.8245 69.3433C61.6893 67.0098 67.7376 66.7202 73.0875 67.812C73.1584 67.6135 73.2435 67.4008 73.3114 67.2023C73.3426 64.4627 73.1815 61.7242 72.8293 59.007C74.4039 61.5054 80.2836 69.6194 82.5305 71.8246C86.1872 75.426 89.3214 75.0999 92.8527 70.9739C95.9026 67.4442 98.7473 63.7422 101.373 59.8861C101.856 54.5646 96.522 50.9191 93.134 51.8042Z" fill="#442D7C"/>
<path d="M91.9755 124.302C91.3546 123.476 91.0524 122.454 91.1247 121.423C88.4696 120.863 85.754 120.639 83.0429 120.757C82.5444 123.891 82.2429 126.855 82.0078 128.443C82.66 126.345 102.283 132.158 102.709 134.739C102.815 131.017 94.812 128.028 91.9755 124.302Z" fill="#FECFC4"/>
<path d="M127.179 18.7402C123.847 15.5642 127.037 12.3881 125.747 9.07031C129.561 10.5874 132.141 14.4866 130.426 18.1589L127.179 18.7402Z" fill="#FECFC4"/>
<path d="M28.3523 117C24.7606 117.753 22.6062 118.399 21.0645 118.744C23.5457 118.744 24.8502 139.02 22.3831 140.806C26.03 139.272 25.7681 131.065 27.2337 127.648C27.448 127.042 27.8151 126.502 28.2995 126.08C28.7839 125.657 29.3692 125.368 29.9986 125.238C29.9032 122.421 29.3471 119.638 28.3523 117Z" fill="#FECFC4"/>
<path d="M109.894 37.2734C106.335 34.3951 101.316 37.5286 101.557 41.3711C102.327 41.3881 103.087 41.5517 103.796 41.8531C104.216 42.5434 104.455 43.3286 104.491 44.1359C104.973 45.015 105.356 45.7381 105.668 46.362C110.391 47.794 114.573 41.0487 109.894 37.2734Z" fill="#FECFC4"/>
<path d="M95.2798 43.0429L94.1605 41.8235L93.1963 38.846C89.524 37.2721 83.3458 40.4056 83.5973 46.6159C83.8212 52.018 89.0845 54.2157 91.806 53.3367C92.3874 52.6844 92.8694 52.1427 93.1672 51.8053C93.4858 51.718 93.8157 51.6797 94.1455 51.6919C94.2873 49.0405 93.8903 47.6084 93.8903 46.2615C93.8903 45.7227 94.5284 44.7302 95.2798 43.0429Z" fill="#FECFC4"/>
<path d="M121.622 32.3799L83.9911 23.4354C81.524 22.9816 80.092 24.0167 79.383 25.8599L76.6174 32.9814C77.4152 39.3618 77.339 42.2908 76.7458 43.0162C76.2353 43.6401 75.0585 43.9378 73.6406 43.7251C73.7852 44.7126 73.9792 45.6922 74.222 46.6601C74.7467 46.7047 75.2682 46.7852 75.7816 46.9012L83.509 26.7651L119.679 35.5418L108.279 68.1245L97.7445 64.9485C96.9363 65.9977 96.0572 67.1178 95.0931 68.2947L108.35 72.2789C110.378 72.8886 112.334 72.2364 113.228 69.7834L124.443 37.5268C125.209 35.3149 124.982 33.2023 121.622 32.3799ZM117.481 53.3361C117.435 53.5036 117.355 53.6598 117.246 53.7952C117.137 53.9306 117.001 54.0424 116.849 54.1236C116.695 54.2048 116.526 54.2538 116.353 54.2675C116.18 54.2812 116.005 54.2594 115.841 54.2034C115.676 54.1474 115.525 54.0584 115.396 53.9417C115.267 53.8252 115.164 53.6835 115.092 53.5254C115.019 53.3674 114.981 53.1962 114.977 53.0224C114.973 52.8488 115.005 52.6762 115.071 52.5152C115.117 52.3478 115.197 52.1915 115.306 52.0561C115.415 51.9207 115.55 51.809 115.704 51.7277C115.857 51.6465 116.026 51.5976 116.199 51.5838C116.372 51.5701 116.547 51.5919 116.711 51.6479C116.875 51.704 117.027 51.793 117.156 51.9096C117.284 52.0261 117.388 52.1678 117.46 52.3259C117.533 52.484 117.572 52.6551 117.575 52.8289C117.579 53.0026 117.547 53.1752 117.481 53.3361Z" fill="#764ED7"/>
<path d="M96.9236 44.8301L100.071 48.2755C98.4407 48.9844 96.6542 47.5405 96.9236 44.8301Z" fill="#764ED7"/>
<path d="M101.407 43.753C101.01 43.6537 100.131 43.4978 99.0938 43.3418L101.407 45.8656C101.464 45.1626 101.464 44.456 101.407 43.753Z" fill="#764ED7"/>
<path d="M91.1342 121.409C93.5729 121.976 94.2252 122.742 94.2252 123.309C94.2252 124.032 93.0312 124.287 91.9864 124.287C91.3693 123.46 91.067 122.44 91.1342 121.409Z" fill="#764ED7"/>
<path d="M83.0462 120.756C82.8619 122.004 82.7059 123.039 82.5925 123.932C80.9194 123.606 79.8508 122.896 79.9127 122.117C79.9649 121.464 80.8485 120.912 83.0462 120.756Z" fill="#764ED7"/>
<path d="M25.9574 114.601C26.6111 114.435 27.517 115.012 28.3536 117.011C26.8611 117.338 25.7305 117.608 24.8089 117.832C24.582 116.09 25.2074 114.791 25.9574 114.601Z" fill="#764ED7"/>
<path d="M29.9992 125.238C29.3728 125.375 28.7909 125.667 28.3076 126.089C27.8243 126.51 27.4552 127.046 27.2344 127.649C27.5329 128.582 28.3306 129.57 29.0604 129.049C29.5925 128.67 30.05 127.49 29.9992 125.238Z" fill="#764ED7"/>
<path d="M69.5194 79.1279C69.2641 82.7435 69.4485 91.35 69.5194 94.3843C68.1015 93.9305 66.8538 93.5477 65.918 93.2925C67.3075 87.5785 68.4134 83.0838 69.5194 79.1279Z" fill="#764ED7"/>
<path d="M33.9419 78.9844C33.8568 79.6083 35.0195 80.2605 36.703 80.3456C36.8547 80.2299 36.9764 80.0792 37.0575 79.906C37.1878 79.224 37.2355 78.5292 37.1993 77.8359C34.9486 77.9919 34.0128 78.4882 33.9419 78.9844Z" fill="#764ED7"/>
<path d="M46.0464 79.5358C45.9217 79.0635 45.177 78.556 43.5703 78.2344C43.6128 78.8582 43.6412 79.7657 43.6837 80.7716C44.6225 80.7425 46.2702 80.3851 46.0464 79.5358Z" fill="#764ED7"/>
<path d="M55.5322 58.8223C55.7874 60.0416 56.0284 61.3886 56.2269 62.7774C53.988 63.3279 51.778 63.9904 49.6055 64.7624C51.6965 62.901 53.6755 60.9175 55.5322 58.8223Z" fill="#764ED7"/>
<path d="M75.1691 62.4262C74.5027 64.0992 73.893 65.6731 73.3258 67.2022C73.3567 64.4624 73.1956 61.724 72.8438 59.0068C73.2408 59.6471 74.1034 60.9232 75.1691 62.4262Z" fill="#764ED7"/>
<path d="M93.7525 130.238C88.322 128.495 82.3699 127.3 82.008 128.44C81.5289 129.965 86.9683 132.177 92.3906 133.684C97.092 134.991 101.784 135.769 102.588 135.109C104.135 133.84 95.6748 130.855 93.7525 130.238Z" fill="#764ED7"/>
<path d="M23.5729 128.805C23.2252 123.629 22.2842 118.758 21.0528 118.758C19.5551 118.751 19.038 123.729 19.2178 128.969C19.4186 134.79 20.4797 140.933 22.017 140.933C24.1834 140.451 23.7207 131.001 23.5729 128.805Z" fill="#764ED7"/>
<path d="M129.86 82.1198C126.122 81.3877 122.252 81.7474 118.713 83.157C115.173 84.5675 112.115 86.9666 109.905 90.0688C107.694 93.1717 106.424 96.8455 106.246 100.651C106.069 104.456 106.992 108.232 108.904 111.526C119.467 104.919 126.755 94.3135 129.86 82.1198Z" fill="#764ED7"/>
<path d="M73.5293 41.7803C75.0039 42.8437 76.365 43.5384 76.8188 42.872C76.3792 43.7511 75.4576 44.0063 73.6711 43.7228C73.6002 43.0705 73.5577 42.4183 73.5293 41.7803Z" fill="#764ED7"/>
<path d="M78.4914 26.8366C77.6974 25.8299 76.3221 25.2202 74.2094 25.4471C75.1452 17.7197 64.1284 16.6137 63.703 23.0792C58.074 18.698 49.028 25.4896 55.3942 30.1686C51.9346 30.3813 50.7861 34.961 54.4868 34.961C45.9512 40.7885 52.6719 53.7621 71.1327 41.4534C72.1276 40.5984 73.0219 39.6327 73.7983 38.5751C72.2244 36.4341 73.9826 35.0872 74.6348 36.6185C75.0035 37.4975 75.4146 36.1506 75.4146 35.0588C75.934 35.0895 76.4415 35.2246 76.9071 35.4558C79.0332 34.2237 80.4511 29.3037 78.4914 26.8366Z" fill="#764ED7"/>
<path d="M127.179 18.7402C123.847 15.5642 127.037 12.3881 125.747 9.07031C129.561 10.5874 132.141 14.4866 130.426 18.1589L127.179 18.7402Z" stroke="#442D7C" stroke-width="0.25" stroke-linecap="round" stroke-linejoin="round"/>
<path d="M74.2207 46.6601C74.7455 46.7047 75.2662 46.7852 75.7804 46.9012L83.5078 26.7651L119.678 35.5418L108.278 68.1245L97.7432 64.9485C96.9351 65.9977 96.056 67.1178 95.0918 68.2947L108.349 72.2789C110.377 72.8886 112.333 72.2364 113.226 69.7834L124.442 37.5268C125.207 35.3149 124.981 33.2023 121.62 32.3799L83.9899 23.4354C81.5228 22.9816 80.0907 24.0167 79.3818 25.8599L78.8086 27.3348M117.48 53.3361C117.434 53.5036 117.354 53.6598 117.245 53.7952C117.136 53.9306 117 54.0424 116.847 54.1236C116.694 54.2048 116.525 54.2538 116.352 54.2675C116.179 54.2812 116.004 54.2594 115.84 54.2034C115.675 54.1474 115.524 54.0584 115.395 53.9418C115.266 53.8252 115.163 53.6835 115.091 53.5254C115.018 53.3674 114.979 53.1962 114.976 53.0224C114.972 52.8488 115.004 52.6762 115.07 52.5152C115.116 52.3478 115.196 52.1915 115.305 52.0561C115.414 51.9207 115.549 51.809 115.702 51.7277C115.856 51.6465 116.025 51.5976 116.198 51.5838C116.371 51.5701 116.546 51.5919 116.71 51.6479C116.874 51.704 117.026 51.793 117.155 51.9096C117.283 52.0261 117.387 52.1678 117.459 52.3259C117.532 52.484 117.57 52.6551 117.574 52.8289C117.578 53.0026 117.546 53.1752 117.48 53.3361Z" stroke="#442D7C" stroke-width="0.25" stroke-linejoin="round"/>
<path d="M6.11719 113.312L15.5319 99.8701" stroke="#442D7C" stroke-width="0.25" stroke-linecap="round" stroke-linejoin="round"/>
<path d="M4.10742 101.883L17.5489 111.298" stroke="#442D7C" stroke-width="0.25" stroke-linecap="round" stroke-linejoin="round"/>
<path d="M95.6836 82.4733L104.758 80.8711" stroke="#442D7C" stroke-width="0.25" stroke-linecap="round" stroke-linejoin="round"/>
<path d="M99.4336 77.1416L101.022 86.216" stroke="#442D7C" stroke-width="0.25" stroke-linecap="round" stroke-linejoin="round"/>
<path d="M126.055 121.422C137.01 121.422 145.891 112.541 145.891 101.586C145.891 90.6311 137.01 81.75 126.055 81.75C115.1 81.75 106.219 90.6311 106.219 101.586C106.219 112.541 115.1 121.422 126.055 121.422Z" stroke="#442D7C" stroke-width="0.25" stroke-linecap="round" stroke-linejoin="round"/>
<path d="M24.8798 59.7029C29.3589 59.7029 32.99 56.0718 32.99 51.5927C32.99 47.1135 29.3589 43.4824 24.8798 43.4824C20.4006 43.4824 16.7695 47.1135 16.7695 51.5927C16.7695 56.0718 20.4006 59.7029 24.8798 59.7029Z" stroke="#442D7C" stroke-width="0.25" stroke-linecap="round" stroke-linejoin="round"/>
<path d="M59.9707 117.24C66.5352 118.56 73.2266 119.139 79.9202 118.97" stroke="#442D7C" stroke-width="0.25" stroke-linecap="round" stroke-linejoin="round"/>
<path d="M94.2282 117.526C127.006 110.253 141.814 71.6431 123.777 39.4814M41.781 111.073C26.4831 103.539 14.7348 90.3247 9.04223 74.2505C-2.953 41.3558 17.5084 26.7845 36.7617 32.5083C46.7853 35.488 51.6494 32.8769 52.2732 24.001C52.8546 15.7348 58.7246 9.53496 76.2495 10.6021C91.4357 11.5278 108.82 20.4453 118.387 31.5925" stroke="#442D7C" stroke-width="0.25" stroke-linecap="round" stroke-linejoin="round"/>
<path d="M28.9929 15.3369L10.2621 18.6406C9.53828 18.7803 8.89844 19.1991 8.48077 19.8065C8.06302 20.4139 7.90085 21.1612 8.02928 21.887C8.15771 22.6129 8.56644 23.2592 9.16717 23.6863C9.76797 24.1136 10.5126 24.2874 11.2404 24.1703L29.9713 20.8666L35.3025 17.0667L28.9929 15.3369Z" stroke="#442D7C" stroke-width="0.25" stroke-linecap="round" stroke-linejoin="round"/>
<path d="M11.1387 18.4863L12.117 24.016" stroke="#442D7C" stroke-width="0.25" stroke-linecap="round" stroke-linejoin="round"/>
<path d="M14.3145 17.9326L15.2786 23.4623" stroke="#442D7C" stroke-width="0.25" stroke-linecap="round" stroke-linejoin="round"/>
<path d="M28.9922 15.3369L29.9705 20.8666" stroke="#442D7C" stroke-width="0.25" stroke-linecap="round" stroke-linejoin="round"/>
<path d="M127.178 18.74C127.234 21.2486 127.467 23.7502 127.872 26.2264C129.161 33.5456 131.545 41.2559 132.778 41.0432C134.012 40.8305 133.622 32.7598 132.325 25.4466C131.865 22.9799 131.23 20.5492 130.425 18.1729L127.178 18.74Z" stroke="#442D7C" stroke-width="0.25" stroke-linecap="round" stroke-linejoin="round"/>
<path d="M127.717 25.3189L132.169 24.5391" stroke="#442D7C" stroke-width="0.25" stroke-linecap="round" stroke-linejoin="round"/>
<path d="M36.7031 80.3593C35.0158 80.2742 33.8561 79.622 33.942 78.9982C34.03 78.3318 35.6292 77.681 39.7411 77.8042C44.3917 77.9474 46.1133 78.9101 46.079 79.6899C46.0551 80.2429 45.0581 80.7108 43.6969 80.7533" stroke="#442D7C" stroke-width="0.25" stroke-linecap="round" stroke-linejoin="round"/>
<path d="M87.1217 58.7383C88.2986 57.1644 92.056 53.0384 93.1477 51.7907C95.7991 51.0675 101.839 53.7899 101.371 59.8867C98.7416 63.7388 95.8962 67.4396 92.85 70.9715C89.3105 75.0893 86.2024 75.4356 82.5278 71.8223C80.1615 69.4954 74.1198 61.0763 72.8438 59.0047C73.196 61.7218 73.3571 64.4603 73.3258 67.2" stroke="#442D7C" stroke-width="0.25" stroke-linecap="round" stroke-linejoin="round"/>
<path d="M88.5704 60.8654C79.5668 47.6225 78.2482 46.5732 72.0946 46.5732C62.4956 46.5732 51.3213 49.9881 41.7969 55.9454C35.9261 59.6162 35.4702 61.4497 34.7642 67.1041C34.2655 71.0507 33.9915 75.0225 33.9434 79" stroke="#442D7C" stroke-width="0.25" stroke-linecap="round" stroke-linejoin="round"/>
<path d="M75.1692 62.4111C69.7387 75.9518 68.3119 83.3687 61.1322 113.38C59.7756 119.069 58.2831 121.885 51.6325 123.807C44.6834 125.814 30.8181 128.613 28.8047 129.152" stroke="#442D7C" stroke-width="0.25" stroke-linecap="round" stroke-linejoin="round"/>
<path d="M24.808 117.821C24.5842 116.105 25.205 114.8 25.9565 114.603C26.9341 114.346 28.4818 115.779 29.5012 121.068C30.5803 126.665 29.7251 128.945 28.8064 129.164C28.2244 129.302 27.5587 128.668 27.2326 127.647" stroke="#442D7C" stroke-width="0.25" stroke-linecap="round" stroke-linejoin="round"/>
<path d="M25.957 114.602C30.9196 113.496 49.0259 109.453 50.2594 109.172" stroke="#442D7C" stroke-width="0.25" stroke-linecap="round" stroke-linejoin="round"/>
<path d="M73.0992 67.8112C63.3442 65.8262 52.3877 68.5075 48.8804 77.7789C45.8051 85.9182 46.7536 96.1829 47.5371 109.766" stroke="#442D7C" stroke-width="0.25" stroke-linecap="round" stroke-linejoin="round"/>
<path d="M54.6562 55.4355C55.9215 59.9716 56.6543 64.6394 56.8398 69.3449" stroke="#442D7C" stroke-width="0.25" stroke-linecap="round" stroke-linejoin="round"/>
<path d="M46.0605 79.6955C46.0889 76.1225 46.415 67.7287 46.6135 65.8287C49.7552 64.638 52.9596 63.6203 56.2125 62.7803" stroke="#442D7C" stroke-width="0.25" stroke-linecap="round" stroke-linejoin="round"/>
<path d="M21.0618 118.758C23.6566 118.764 24.9752 140.948 22.026 140.933C19.0768 140.919 17.9 118.75 21.0618 118.758Z" stroke="#442D7C" stroke-width="0.25" stroke-linecap="round" stroke-linejoin="round"/>
<path d="M21.0645 118.758C22.7062 118.39 24.0987 117.937 28.3523 117" stroke="#442D7C" stroke-width="0.25" stroke-linecap="round" stroke-linejoin="round"/>
<path d="M30.0139 125.238C27.9721 125.835 26.9774 126.814 26.1856 132.129C25.6409 135.786 24.626 140.268 22.0312 140.935" stroke="#442D7C" stroke-width="0.25" stroke-linecap="round" stroke-linejoin="round"/>
<path d="M82.5857 123.931C80.9126 123.605 79.8567 122.896 79.9059 122.131C79.9686 121.152 81.8208 120.405 87.0662 120.826C92.9086 121.296 94.2123 122.499 94.2123 123.308C94.2123 124.031 93.0183 124.286 91.9736 124.286" stroke="#442D7C" stroke-width="0.25" stroke-linecap="round" stroke-linejoin="round"/>
<path d="M82.0021 128.442C82.6827 126.273 103.494 132.525 102.689 134.964C102.064 136.85 81.0812 131.377 82.0021 128.442Z" stroke="#442D7C" stroke-width="0.25" stroke-linecap="round" stroke-linejoin="round"/>
<path d="M82.0078 128.442C82.2489 126.812 82.419 124.954 83.0429 120.756" stroke="#442D7C" stroke-width="0.25" stroke-linecap="round" stroke-linejoin="round"/>
<path d="M91.137 121.409C91.1228 123.508 91.734 124.785 96.1137 127.902C99.5464 130.342 102.99 132.368 102.693 134.963" stroke="#442D7C" stroke-width="0.25" stroke-linecap="round" stroke-linejoin="round"/>
<path d="M70.916 74.3203C76.8099 78.0754 82.4896 82.1559 87.9305 86.5424C93.6416 91.296 94.2259 93.0646 94.2259 101.302V123.308" stroke="#442D7C" stroke-width="0.25" stroke-linecap="round" stroke-linejoin="round"/>
<path d="M79.9065 122.131C80.0058 116.445 80.0483 99.9672 79.9065 97.8568C75.6246 96.3822 68.9889 94.1562 65.9121 93.3047" stroke="#442D7C" stroke-width="0.25" stroke-linecap="round" stroke-linejoin="round"/>
<path d="M68.6642 67.2451C62.9502 74.3203 59.3488 90.6825 56.2153 113.893C47.467 116.644 34.2241 119.721 29.4316 120.713" stroke="#442D7C" stroke-width="0.25" stroke-linecap="round" stroke-linejoin="round"/>
<path d="M43.5853 78.2061C43.6987 80.4321 43.9255 86.1909 43.6278 87.2663C43.33 88.3416 40.1413 93.5907 38.2399 95.8302C37.0354 97.2481 35.5534 97.5712 37.0772 94.625C37.9739 92.8654 38.7469 91.0445 39.3906 89.1774C41.198 84.032 37.3757 82.9261 35.8459 84.7678C33.5086 87.5767 31.7579 88.2827 32.684 86.0723C33.2489 84.7245 33.5489 83.9171 33.9459 82.8962C34.3429 81.8754 36.8951 80.5426 37.0653 79.9471C37.2017 79.2657 37.2493 78.5702 37.2071 77.877" stroke="#442D7C" stroke-width="0.25" stroke-linecap="round" stroke-linejoin="round"/>
<path d="M38.4644 91.591C37.2907 92.7887 35.9656 93.8275 34.5227 94.682C32.7638 95.7125 32.1548 94.7529 34.2242 92.8246C35.671 91.4806 36.9756 89.991 38.1174 88.3799" stroke="#442D7C" stroke-width="0.25" stroke-linecap="round" stroke-linejoin="round"/>
<path d="M36.9023 87.3516C37.6349 88.0784 38.4739 88.6888 39.3903 89.1627" stroke="#442D7C" stroke-width="0.25" stroke-linecap="round" stroke-linejoin="round"/>
<path d="M36.4323 90.5136C35.0873 91.1822 33.6627 91.6777 32.1929 91.9882C30.2795 92.3889 30.5354 91.2688 32.5615 90.4143C34.1894 89.6442 35.7336 88.7076 37.1696 87.6211" stroke="#442D7C" stroke-width="0.25" stroke-linecap="round" stroke-linejoin="round"/>
<path d="M34.5512 89.3793C33.5207 89.5494 32.4748 89.6061 31.4319 89.5494C30.0424 89.3793 29.6446 88.5673 31.758 88.245C33.4205 88.0054 35.0367 87.5129 36.5504 86.7845C36.7144 85.7562 37.096 84.7749 37.6698 83.9062" stroke="#442D7C" stroke-width="0.25" stroke-linecap="round" stroke-linejoin="round"/>
<path d="M69.5293 94.383C69.4584 91.3062 69.2741 82.5295 69.5293 78.999" stroke="#442D7C" stroke-width="0.25" stroke-linecap="round" stroke-linejoin="round"/>
<path d="M49.5938 64.7632C51.6962 62.909 53.6804 60.9247 55.5346 58.8223" stroke="#442D7C" stroke-width="0.25" stroke-linecap="round" stroke-linejoin="round"/>
<path d="M95.2769 43.0304L94.1575 41.811L93.1934 38.8477L96.0716 40.0529L109.553 54.6995C109.785 54.9515 109.909 55.2858 109.896 55.6287C109.882 55.9718 109.734 56.2954 109.482 56.5286C109.23 56.7618 108.895 56.8853 108.553 56.872C108.209 56.8587 107.886 56.7097 107.653 56.4577L96.9477 44.8162" stroke="#442D7C" stroke-width="0.25" stroke-linecap="round" stroke-linejoin="round"/>
<path d="M107.513 52.4854C107.061 52.5685 106.641 52.7775 106.302 53.0885C105.963 53.3996 105.719 53.7999 105.598 54.2435" stroke="#442D7C" stroke-width="0.25" stroke-linecap="round" stroke-linejoin="round"/>
<path d="M108.279 53.3203C107.827 53.4037 107.408 53.6129 107.069 53.9239C106.731 54.2349 106.487 54.6351 106.365 55.0785" stroke="#442D7C" stroke-width="0.25" stroke-linecap="round" stroke-linejoin="round"/>
<path d="M94.1283 51.6764C94.2701 49.025 93.873 47.5929 93.873 46.2459C93.873 45.6221 94.7387 44.3602 95.6596 42.0916C96.27 40.5886 97.473 41.5528 96.9782 44.3176C96.4379 47.3377 98.3394 49.025 100.083 48.2451" stroke="#442D7C" stroke-width="0.25" stroke-linecap="round" stroke-linejoin="round"/>
<path d="M99.0938 43.3242C100.129 43.4802 101.008 43.6362 101.407 43.7354C101.464 44.4385 101.464 45.145 101.407 45.848" stroke="#442D7C" stroke-width="0.25" stroke-linecap="round" stroke-linejoin="round"/>
<path d="M96.9785 41.0479C98.9068 41.1329 103.331 41.3881 103.798 41.856C104.507 42.565 104.678 46.0246 104.763 47.244" stroke="#442D7C" stroke-width="0.25" stroke-linecap="round" stroke-linejoin="round"/>
<path d="M104.496 44.1328C106.977 48.6275 107.006 49.2372 105.928 50.7543" stroke="#442D7C" stroke-width="0.25" stroke-linecap="round" stroke-linejoin="round"/>
<path d="M104.35 52.9131C103.003 54.6429 101.44 56.2309 101.104 57.0958" stroke="#442D7C" stroke-width="0.25" stroke-linecap="round" stroke-linejoin="round"/>
<path d="M71.1459 41.4421C72.1385 40.5908 73.0313 39.6294 73.807 38.5765C72.2473 36.4355 73.9853 35.0915 74.6435 36.6199C75.0226 37.5004 75.4234 36.152 75.4234 35.0602C75.942 35.0928 76.4495 35.2277 76.9159 35.4572C79.9076 33.7132 81.5098 24.6814 74.2077 25.4328C75.1398 17.7054 64.1087 16.6136 63.6975 23.0627C58.0686 18.6957 49.0225 25.5015 55.3888 30.1663C51.9292 30.379 50.7807 34.9587 54.4814 34.9587C45.9286 40.7906 52.671 53.7851 71.1459 41.4421Z" stroke="#442D7C" stroke-width="0.25" stroke-linecap="round" stroke-linejoin="round"/>
<path d="M62.877 47.5107C67.2865 44.9869 72.4618 40.6452 73.8088 38.5781" stroke="#442D7C" stroke-width="0.25" stroke-linecap="round" stroke-linejoin="round"/>
<path d="M74.0807 46.6279C73.8919 45.6578 73.7501 44.6877 73.6523 43.7093C77.8672 44.381 77.2567 42.1206 76.9023 35.4551" stroke="#442D7C" stroke-width="0.25" stroke-linecap="round" stroke-linejoin="round"/>
<path d="M73.6505 43.7108C73.5856 43.0683 73.5401 42.4273 73.5117 41.7803C74.9863 42.8579 76.3475 43.5384 76.8012 42.8579" stroke="#442D7C" stroke-width="0.25" stroke-linecap="round" stroke-linejoin="round"/>
</svg>
