<svg width="150" height="150" viewBox="0 0 150 150" fill="none" xmlns="http://www.w3.org/2000/svg">
<path d="M130.281 51.5574C134.111 59.3393 136.263 68.0958 136.263 77.3552C136.263 94.2563 129.094 109.483 117.631 120.159" stroke="#442D7C" stroke-width="0.25" stroke-linecap="round" stroke-linejoin="round"/>
<path d="M78.6384 18.8768C78.3528 18.8728 78.0673 18.8708 77.7817 18.8709C45.4825 18.8709 19.2988 45.0545 19.2988 77.3537C19.2964 81.5174 19.7369 85.6695 20.613 89.74" stroke="#442D7C" stroke-width="0.25" stroke-linecap="round" stroke-linejoin="round"/>
<path fill-rule="evenodd" clip-rule="evenodd" d="M129.413 30.9623L108.509 10.0598C107.098 8.64848 105.422 7.52893 103.578 6.76511C101.735 6.00129 99.7584 5.60815 97.7627 5.60815C95.7669 5.60815 93.7907 6.00129 91.9469 6.76511C90.103 7.52893 88.4278 8.64848 87.0167 10.0598L76.5968 20.4804C74.7733 22.3027 73.4438 24.5592 72.7334 27.0372C72.0231 29.5153 71.9553 32.1335 72.5364 34.645L70.4395 36.742C70.4581 36.7584 70.4768 36.7756 70.4947 36.7942L102.675 68.9748V68.9733L102.729 69.0292L104.825 66.933C107.337 67.5148 109.955 67.4475 112.434 66.7374C114.912 66.0273 117.169 64.6978 118.992 62.8742L129.413 52.4528C130.824 51.0417 131.943 49.3665 132.707 47.5228C133.47 45.6792 133.864 43.7031 133.864 41.7075C133.864 39.7119 133.47 37.7359 132.707 35.8922C131.943 34.0485 130.824 32.3733 129.413 30.9623ZM100.436 31.7727C100.436 36.7159 96.4299 40.7225 91.4867 40.7225C86.5435 40.7225 82.5369 36.7151 82.5369 31.7727C82.5369 26.8303 86.5435 22.8237 91.4867 22.8237C96.4299 22.8237 100.436 26.831 100.436 31.7734V31.7727ZM123.878 39.3412C123.878 44.2843 119.872 48.2909 114.929 48.2909C109.985 48.2909 105.979 44.2836 105.979 39.3412C105.979 34.3988 109.985 30.3914 114.929 30.3914C119.872 30.3914 123.878 34.3988 123.878 39.3412Z" fill="#4BAE48"/>
<path fill-rule="evenodd" clip-rule="evenodd" d="M129.413 30.9623L108.509 10.0598C107.098 8.64848 105.422 7.52893 103.578 6.76511C101.735 6.00129 99.7584 5.60815 97.7627 5.60815C95.7669 5.60815 93.7907 6.00129 91.9469 6.76511C90.103 7.52893 88.4278 8.64848 87.0167 10.0598L76.5968 20.4804C74.7733 22.3027 73.4437 24.5591 72.7333 27.0372C72.023 29.5153 71.9552 32.1335 72.5364 34.645L70.4395 36.742C70.4581 36.7584 70.4768 36.7756 70.4947 36.7942L102.675 68.9748V68.9733L102.729 69.0292L104.825 66.933C107.337 67.5148 109.955 67.4475 112.434 66.7374C114.912 66.0273 117.169 64.6978 118.992 62.8742L129.413 52.4528C130.824 51.0417 131.943 49.3665 132.707 47.5228C133.47 45.6792 133.864 43.7031 133.864 41.7075C133.864 39.7119 133.47 37.7359 132.707 35.8922C131.943 34.0485 130.824 32.3733 129.413 30.9623Z" stroke="#442D7C" stroke-width="0.25" stroke-linejoin="round"/>
<path d="M114.926 48.2929C119.87 48.2929 123.876 44.2855 123.876 39.3431C123.876 34.4007 119.87 30.3933 114.926 30.3933C109.983 30.3933 105.977 34.4007 105.977 39.3431C105.977 44.2862 109.983 48.2929 114.926 48.2929Z" stroke="#442D7C" stroke-width="0.25" stroke-linecap="round" stroke-linejoin="round"/>
<path d="M118.352 38.1607L116.636 36.4481C116.37 36.1806 116.019 36.0139 115.643 35.9765C115.268 35.9391 114.891 36.0334 114.577 36.2432C114.263 36.4529 114.032 36.7652 113.923 37.1265C113.814 37.4879 113.834 37.8758 113.979 38.2241C114.061 38.4219 114.181 38.601 114.332 38.7525L115.516 39.9353C115.815 40.242 115.982 40.6547 115.979 41.083C115.976 41.5115 115.804 41.9214 115.501 42.2244C115.198 42.5274 114.788 42.6991 114.36 42.7024C113.931 42.7049 113.519 42.5384 113.212 42.239L111.584 40.6017" stroke="#442D7C" stroke-width="0.25" stroke-linecap="round" stroke-linejoin="round"/>
<path d="M118.104 36.1648L111.783 42.4855" stroke="#442D7C" stroke-width="0.25" stroke-linecap="round" stroke-linejoin="round"/>
<path d="M91.4888 40.7247C96.432 40.7247 100.439 36.7174 100.439 31.775C100.439 26.8325 96.432 22.8259 91.4888 22.8259C86.5457 22.8259 82.5391 26.8333 82.5391 31.7757C82.5391 36.7189 86.5457 40.7255 91.4888 40.7255V40.7247Z" stroke="#442D7C" stroke-width="0.25" stroke-linecap="round" stroke-linejoin="round"/>
<path d="M94.9113 30.5901L93.1994 28.8737C92.8907 28.5845 92.4816 28.4267 92.0586 28.4336C91.6356 28.4405 91.2319 28.6116 90.9327 28.9107C90.6336 29.2099 90.4625 29.6136 90.4556 30.0366C90.4487 30.4596 90.6065 30.8687 90.8958 31.1774L92.0786 32.361C92.3778 32.6677 92.5442 33.0804 92.542 33.5087C92.5387 33.9372 92.367 34.3471 92.064 34.6501C91.7611 34.9531 91.3511 35.1247 90.9226 35.1281C90.4941 35.1308 90.0817 34.9646 89.7749 34.6654L88.1406 33.0296" stroke="#442D7C" stroke-width="0.25" stroke-linecap="round" stroke-linejoin="round"/>
<path d="M94.6606 28.5974L88.3398 34.9182" stroke="#442D7C" stroke-width="0.25" stroke-linecap="round" stroke-linejoin="round"/>
<path d="M89.457 64.656L87.7406 62.9397C87.4314 62.6516 87.0223 62.495 86.5997 62.503C86.1771 62.5109 85.7742 62.6828 85.476 62.9823C85.1778 63.2817 85.0076 63.6854 85.0014 64.108C84.9953 64.5306 85.1536 64.939 85.4429 65.2471L86.6235 66.4336C86.9228 66.7403 87.0892 67.153 87.0869 67.5813C87.0836 68.0098 86.9119 68.4198 86.609 68.7227C86.306 69.0257 85.896 69.1974 85.4676 69.2007C85.0389 69.2032 84.6265 69.0367 84.3198 68.7373L82.6855 67.1022" stroke="#442D7C" stroke-width="0.25" stroke-linecap="round" stroke-linejoin="round"/>
<path d="M89.2048 62.6667L82.8848 68.9875" stroke="#442D7C" stroke-width="0.25" stroke-linecap="round" stroke-linejoin="round"/>
<path d="M83.9197 57.1414L94.7277 67.95C93.7799 71.8753 90.2442 74.7917 86.0279 74.7917C81.0847 74.7917 77.0781 70.7843 77.0781 65.8419C77.0781 61.6256 79.9937 58.0898 83.9197 57.1414Z" stroke="#442D7C" stroke-width="0.25" stroke-linecap="round" stroke-linejoin="round"/>
<path d="M102.674 68.9768L70.4935 36.7956C70.0306 36.3565 69.4146 36.1156 68.7767 36.124C68.1388 36.1324 67.5294 36.3896 67.0782 36.8407C66.6271 37.2918 66.37 37.9012 66.3615 38.5391C66.3531 39.177 66.5941 39.793 67.0331 40.2559L99.2136 72.4365C99.4409 72.6637 99.7107 72.8439 100.008 72.9668C100.305 73.0898 100.623 73.153 100.944 73.153C101.265 73.153 101.584 73.0896 101.881 72.9666C102.177 72.8436 102.447 72.6633 102.674 72.4361C102.902 72.2088 103.082 71.939 103.205 71.6421C103.328 71.3452 103.391 71.027 103.391 70.7056C103.391 70.3843 103.328 70.0661 103.205 69.7692C103.082 69.4723 102.901 69.2026 102.674 68.9753V68.9768Z" stroke="#442D7C" stroke-width="0.25" stroke-linecap="round" stroke-linejoin="round"/>
<path d="M87.0924 114.663C92.0355 114.663 96.0421 110.655 96.0421 105.713C96.0421 100.77 92.0355 96.7632 87.0924 96.7632C82.1492 96.7632 78.1426 100.77 78.1426 105.713C78.1426 110.655 82.1492 114.663 87.0924 114.663Z" stroke="#442D7C" stroke-width="0.25" stroke-linecap="round" stroke-linejoin="round"/>
<path d="M88.6757 102.456H86.2533C85.8298 102.469 85.4279 102.646 85.1329 102.95C84.8379 103.254 84.6729 103.661 84.6729 104.085C84.6729 104.509 84.8379 104.916 85.1329 105.22C85.4279 105.524 85.8298 105.701 86.2533 105.714H87.9272C88.3507 105.727 88.7526 105.904 89.0476 106.208C89.3427 106.512 89.5077 106.919 89.5077 107.343C89.5077 107.767 89.3427 108.174 89.0476 108.478C88.7526 108.782 88.3507 108.959 87.9272 108.972H85.6138" stroke="#442D7C" stroke-width="0.25" stroke-linecap="round" stroke-linejoin="round"/>
<path d="M87.0869 101.222V110.16" stroke="#442D7C" stroke-width="0.25" stroke-linecap="round" stroke-linejoin="round"/>
<path d="M65.565 93.0182C70.5082 93.0182 74.5148 89.0108 74.5148 84.0684C74.5148 79.1253 70.5074 75.1187 65.565 75.1187C60.6226 75.1187 56.6152 79.1253 56.6152 84.0684C56.6152 89.0108 60.6226 93.0182 65.565 93.0182Z" stroke="#442D7C" stroke-width="0.25" stroke-linecap="round" stroke-linejoin="round"/>
<path d="M67.1505 80.811H64.7289C64.3054 80.8239 63.9035 81.0011 63.6085 81.3052C63.3135 81.6093 63.1484 82.0164 63.1484 82.4401C63.1484 82.8638 63.3135 83.2709 63.6085 83.575C63.9035 83.8791 64.3054 84.0563 64.7289 84.0692H66.405C66.8372 84.0692 67.2516 84.2408 67.5572 84.5464C67.8628 84.852 68.0344 85.2664 68.0344 85.6986C68.0344 86.1308 67.8628 86.5452 67.5572 86.8508C67.2516 87.1564 66.8372 87.328 66.405 87.328H64.0916" stroke="#442D7C" stroke-width="0.25" stroke-linecap="round" stroke-linejoin="round"/>
<path d="M65.5625 79.5747V88.514" stroke="#442D7C" stroke-width="0.25" stroke-linecap="round" stroke-linejoin="round"/>
<path d="M86.4355 119.883L98.9845 114.754C100.878 113.979 102.583 114.659 103.587 115.907" stroke="#442D7C" stroke-width="0.25" stroke-linecap="round" stroke-linejoin="round"/>
<path d="M111.923 118.451C111.873 115.92 109.36 113.535 106.379 114.754L89.4531 121.673" stroke="#442D7C" stroke-width="0.25" stroke-linecap="round" stroke-linejoin="round"/>
<path d="M93.9062 124.408L93.9466 124.371L112.827 118.155C117.021 116.773 119.865 122.085 116.844 124.852" stroke="#442D7C" stroke-width="0.25" stroke-linecap="round" stroke-linejoin="round"/>
<path d="M112.559 123.543L94.522 129.027C94.7872 128.569 94.9541 128.06 95.0121 127.533C95.0701 127.007 95.0179 126.474 94.8589 125.969C94.6999 125.463 94.4374 124.997 94.0883 124.598C93.7392 124.2 93.311 123.878 92.831 123.654C84.17 118.778 76.1844 112.587 66.6249 111.169C53.7297 109.254 46.0672 103.773 40.7853 97.9279C37.2734 94.0414 33.8832 88.2946 29.9542 83.2537L4.09961 100.669C7.06819 105.021 12.4263 112.697 15.7613 116.776C30.4333 134.722 54.2991 145.019 72.28 144.365C85.4953 143.883 102.446 139.089 115.845 130.758C119.813 128.292 117.029 122.182 112.559 123.543Z" stroke="#442D7C" stroke-width="0.25" stroke-linecap="round" stroke-linejoin="round"/>
<path d="M61.042 124.592C67.265 124.207 71.4895 125.143 74.1984 126.069C78.108 127.405 91.8606 133.214 94.5262 129.026" stroke="#442D7C" stroke-width="0.25" stroke-linecap="round" stroke-linejoin="round"/>
<path fill-rule="evenodd" clip-rule="evenodd" d="M34.6451 89.761C36.6301 92.6311 38.5704 95.4385 40.8226 98.0429C33.1302 98.4302 29.0826 103.469 25.0991 108.428C22.3835 111.808 19.6977 115.151 15.909 116.959C11.5845 111.534 7.69504 105.943 4.09961 100.667L29.9542 83.2507C31.643 85.4171 33.1564 87.6066 34.6451 89.761ZM33.1198 92.3878C33.1198 93.3188 32.7499 94.2117 32.0916 94.87C31.4333 95.5283 30.5404 95.8982 29.6094 95.8982C28.6784 95.8982 27.7855 95.5283 27.1272 94.87C26.4689 94.2117 26.0991 93.3188 26.0991 92.3878C26.0991 91.4568 26.4689 90.5639 27.1272 89.9056C27.7855 89.2473 28.6784 88.8775 29.6094 88.8775C30.5404 88.8775 31.4333 89.2473 32.0916 89.9056C32.7499 90.5639 33.1198 91.4568 33.1198 92.3878Z" fill="#764ED7"/>
<path d="M40.8226 98.0429C36.8794 93.4841 33.8929 88.3036 29.9542 83.2507L4.09961 100.667C7.69504 105.943 11.5845 111.534 15.909 116.959C25.2573 112.499 27.8878 98.6944 40.8226 98.0429Z" stroke="#442D7C" stroke-width="0.25" stroke-linecap="round" stroke-linejoin="round"/>
<path d="M29.6119 95.8965C30.5429 95.8965 31.4358 95.5266 32.0941 94.8683C32.7524 94.21 33.1223 93.3171 33.1223 92.3861C33.1223 91.4551 32.7524 90.5622 32.0941 89.9039C31.4358 89.2456 30.5429 88.8757 29.6119 88.8757C28.6809 88.8757 27.788 89.2456 27.1297 89.9039C26.4714 90.5622 26.1016 91.4551 26.1016 92.3861C26.1016 93.3171 26.4714 94.21 27.1297 94.8683C27.788 95.5266 28.6809 95.8965 29.6119 95.8965Z" stroke="#442D7C" stroke-width="0.25" stroke-linecap="round" stroke-linejoin="round"/>
<path d="M29.6113 90.5398V94.2337" stroke="#442D7C" stroke-width="0.25" stroke-linecap="round" stroke-linejoin="round"/>
<path d="M27.7598 92.3884H31.453" stroke="#442D7C" stroke-width="0.25" stroke-linecap="round" stroke-linejoin="round"/>
<path d="M41.7666 55.1787V64.8053" stroke="#442D7C" stroke-width="0.25" stroke-linecap="round" stroke-linejoin="round"/>
<path d="M36.9561 59.9893H46.5827" stroke="#442D7C" stroke-width="0.25" stroke-linecap="round" stroke-linejoin="round"/>
<path d="M11.5615 79.624V86.8798" stroke="#442D7C" stroke-width="0.25" stroke-linecap="round" stroke-linejoin="round"/>
<path d="M7.93457 83.2539H15.1904" stroke="#442D7C" stroke-width="0.25" stroke-linecap="round" stroke-linejoin="round"/>
<path d="M119.392 87.8389V92.5261" stroke="#442D7C" stroke-width="0.25" stroke-linecap="round" stroke-linejoin="round"/>
<path d="M117.048 90.1826H121.735" stroke="#442D7C" stroke-width="0.25" stroke-linecap="round" stroke-linejoin="round"/>
<path d="M121.659 131.456L126.042 135.839" stroke="#442D7C" stroke-width="0.25" stroke-linecap="round" stroke-linejoin="round"/>
<path d="M121.659 135.839L126.042 131.456" stroke="#442D7C" stroke-width="0.25" stroke-linecap="round" stroke-linejoin="round"/>
<path d="M137.772 24.5605L145.884 32.6723" stroke="#442D7C" stroke-width="0.25" stroke-linecap="round" stroke-linejoin="round"/>
<path d="M137.772 32.6723L145.884 24.5605" stroke="#442D7C" stroke-width="0.25" stroke-linecap="round" stroke-linejoin="round"/>
</svg>
