<svg width="342" height="343" viewBox="0 0 342 343" fill="none" xmlns="http://www.w3.org/2000/svg">
<path d="M237.507 171.917C234.339 165.064 229.555 154.881 227.259 150.68C223.627 144.061 220.717 143.886 217.69 141.046C215.187 140.804 212.763 140.033 210.58 138.783C210.276 138.956 209.953 139.092 209.617 139.188C210.391 140.379 208.625 141.895 206.981 142.32C207.832 142.938 206.966 144.805 205.28 145.087C204.441 145.087 203.47 145.196 199.461 145.216C198.364 147.896 196.94 147.915 195.859 146.145C193.516 142.312 193.807 129.929 197.166 129.052L174.506 130.924C172.257 131.113 170.135 132.045 168.473 133.572C166.811 135.099 165.705 137.135 165.327 139.361C164.949 141.586 165.322 143.873 166.387 145.863C167.452 147.853 169.148 149.432 171.209 150.353L186.239 157.075L184.396 166.093L212.554 179.412L220.666 161.858V172.332L224.255 178.764L215.147 203.831C219.656 207.093 225.035 208.939 230.598 209.133L238.292 185.633C239.777 181.126 239.496 176.225 237.507 171.917ZM187.733 150.065L173.381 149.291L188.121 148.127L187.733 150.065Z" fill="#FECFC4"/>
<path d="M109.83 175.825L92.2437 165.351C91.7849 165.084 91.2411 165.003 90.7244 165.125L62.3425 168.868L92.3748 179.446C92.7814 179.587 93.1217 179.874 93.3304 180.251C93.5391 180.627 93.6017 181.068 93.5062 181.488C93.4451 181.713 93.3384 181.923 93.1928 182.105C93.0471 182.287 92.8656 182.437 92.6595 182.546C92.4534 182.655 92.2271 182.721 91.9946 182.739C91.7622 182.757 91.5284 182.727 91.308 182.651L61.502 170.717L80.6348 192.375C80.9512 192.795 81.4123 193.083 81.9279 193.183L102.073 196.707C102.55 196.784 103.038 196.694 103.456 196.452C103.874 196.211 104.196 195.833 104.368 195.382L110.704 178.314C110.872 177.863 110.876 177.366 110.716 176.912C110.557 176.457 110.243 176.073 109.83 175.825Z" fill="#FECFC4"/>
<path d="M288.304 217.203L293.799 207.278L299.101 210.22L293.605 220.143L288.304 217.203Z" fill="#FECFC4"/>
<path d="M311.669 197.487L311.442 186.14L317.518 186.01L317.745 197.357L311.669 197.487Z" fill="#FECFC4"/>
<path d="M303.913 197.647L303.654 186.3L309.732 186.171L309.958 197.518L303.913 197.647Z" fill="#FECFC4"/>
<path d="M289.664 66.0467C279.548 59.5812 266.552 61.8118 260.636 71.0251C258.569 74.2571 257.564 78.0543 257.762 81.8855L249.936 87.7045L259.584 89.4808C261.436 93.58 264.44 97.0516 268.231 99.4717C278.35 105.937 291.344 103.707 297.26 94.4932C303.176 85.2799 299.788 72.5122 289.664 66.0467Z" fill="#FECFC4"/>
<path d="M260.378 228.261L250.259 255.511L239.528 251.504L249.645 224.285L260.378 228.261Z" fill="#764ED7"/>
<path d="M234.154 127.615C233.841 127.326 233.508 127.061 233.157 126.82C236.643 128.544 236.75 124.631 232.995 122.005C227.091 117.04 222.463 116.853 219.401 117.796C223.134 117.471 223.867 120.937 222.747 124.46C222.385 125.277 223.22 125.311 224.108 125.172C226.759 124.816 226.339 128.915 222.917 128.404C222.747 128.632 219.469 132.964 219.329 133.156C219.85 132.567 220.511 132.121 221.252 131.859C221.993 131.597 222.789 131.528 223.564 131.659C226.423 132.294 229.078 133.63 231.29 135.549C232.842 137.036 234.693 137.65 235.428 136.91C236.163 136.17 235.493 134.324 233.941 132.837C233.681 132.59 233.381 132.284 233.08 131.986C235.743 132.935 236.91 130.256 234.154 127.615Z" fill="#764ED7"/>
<path d="M169.285 184.007L171.257 188.402L187.452 183.165L169.285 184.007Z" fill="#764ED7"/>
<path d="M220.71 161.863V172.337L218.061 167.587L220.71 161.863Z" fill="#764ED7"/>
<path d="M199.503 145.217C198.372 148.03 196.658 148.159 195.43 145.282C196.529 145.282 198.016 145.25 199.503 145.217Z" fill="#764ED7"/>
<path d="M199.537 131.251C198.126 131.489 196.7 131.619 195.27 131.639C196.369 128.503 198.208 128.018 199.537 131.251Z" fill="#764ED7"/>
<path d="M188.126 148.123L187.738 150.061L173.387 149.287L188.126 148.123Z" fill="#764ED7"/>
<path d="M14.2446 214.07C14.0011 214.523 13.6288 214.895 13.1746 215.137C12.7205 215.379 12.2047 215.481 11.6924 215.431C11.1799 215.381 10.6936 215.18 10.2958 214.853C9.89791 214.526 9.60641 214.088 9.45843 213.595C9.33433 213.185 9.31322 212.751 9.39696 212.331C9.4807 211.911 9.66672 211.519 9.93852 211.188C10.2103 210.857 10.5595 210.598 10.9552 210.435C11.3509 210.271 11.7808 210.208 12.2068 210.25C12.6329 210.292 13.042 210.439 13.3978 210.677C13.7536 210.915 14.0452 211.237 14.2467 211.615C14.4482 211.993 14.5535 212.415 14.5531 212.843C14.5528 213.271 14.4468 213.692 14.2446 214.07Z" fill="#764ED7"/>
<path d="M110.54 129.666C110.214 130.275 109.659 130.729 108.998 130.929C108.337 131.129 107.624 131.058 107.015 130.732C106.406 130.406 105.952 129.851 105.752 129.19C105.552 128.529 105.623 127.816 105.949 127.207C106.275 126.598 106.83 126.144 107.491 125.944C107.818 125.845 108.161 125.812 108.502 125.846C108.842 125.879 109.172 125.98 109.474 126.141C109.775 126.303 110.042 126.522 110.258 126.786C110.475 127.051 110.638 127.355 110.737 127.683C110.836 128.01 110.869 128.354 110.835 128.694C110.802 129.034 110.701 129.364 110.54 129.666Z" fill="#764ED7"/>
<path d="M318.565 139.555C324.578 136.492 327.423 142.432 332.627 142.277C328.683 146.803 322.056 148.484 317.789 144.346L318.565 139.555Z" fill="#764ED7"/>
<path d="M277.025 89.7414C276.982 89.8731 276.912 89.9948 276.821 90.0991C276.73 90.2035 276.618 90.2884 276.494 90.3488C276.369 90.4092 276.233 90.4439 276.095 90.4508C275.956 90.4576 275.818 90.4366 275.688 90.3888C275.558 90.341 275.438 90.2676 275.337 90.1728C275.236 90.078 275.155 89.9638 275.099 89.837C275.043 89.7102 275.013 89.5735 275.011 89.4349C275.009 89.2963 275.035 89.1586 275.087 89.0302C275.188 88.7822 275.381 88.583 275.626 88.4747C275.871 88.3664 276.148 88.3575 276.399 88.4497C276.651 88.5419 276.856 88.7282 276.973 88.9692C277.09 89.2102 277.108 89.487 277.025 89.7414Z" fill="#764ED7"/>
<path d="M127.541 159.499C123.468 160.242 119.459 160.533 116.422 161.083C109.989 162.246 104.331 163.572 103.879 164.8C102.295 169.132 118.521 169.261 124.664 173.308C129.646 176.569 131.446 177.015 135.978 174.407C131.941 170.238 129.036 165.106 127.541 159.499Z" fill="#764ED7"/>
<path d="M149.168 245.518C148.173 248.231 146.743 250.763 144.934 253.016C143.626 254.399 142.024 255.47 140.247 256.152C132.82 259.215 122.766 273.733 119.816 269.633C118.979 268.467 121.274 262.587 124.18 256.055C126.251 251.402 130.355 244.386 133.684 238.212C138.262 241.729 143.542 244.221 149.168 245.518Z" fill="#764ED7"/>
<path d="M193.648 201.978C193.623 202.274 193.488 202.549 193.269 202.75C193.051 202.951 192.765 203.062 192.468 203.062C192.171 203.062 191.885 202.951 191.667 202.75C191.448 202.549 191.313 202.274 191.288 201.978C191.298 201.751 191.373 201.532 191.504 201.346C191.635 201.161 191.817 201.017 192.028 200.932C192.239 200.847 192.47 200.824 192.693 200.867C192.916 200.909 193.123 201.015 193.287 201.172C193.507 201.384 193.636 201.673 193.648 201.978Z" fill="#764ED7"/>
<path d="M204.576 180.935C204.566 181.162 204.491 181.382 204.36 181.567C204.228 181.753 204.046 181.897 203.836 181.982C203.625 182.067 203.394 182.089 203.171 182.047C202.948 182.004 202.741 181.898 202.577 181.742C202.357 181.529 202.228 181.24 202.216 180.935C202.241 180.64 202.376 180.364 202.595 180.163C202.813 179.963 203.099 179.851 203.396 179.851C203.692 179.851 203.978 179.963 204.197 180.163C204.415 180.364 204.551 180.64 204.576 180.935Z" fill="#764ED7"/>
<path d="M175.747 177.288C175.737 177.515 175.662 177.735 175.53 177.92C175.399 178.106 175.217 178.25 175.007 178.335C174.796 178.42 174.565 178.443 174.342 178.4C174.118 178.357 173.912 178.251 173.747 178.095C173.528 177.882 173.399 177.593 173.387 177.288C173.412 176.993 173.547 176.717 173.766 176.516C173.984 176.316 174.27 176.204 174.567 176.204C174.863 176.204 175.149 176.316 175.368 176.516C175.586 176.717 175.722 176.993 175.747 177.288Z" fill="#764ED7"/>
<path d="M177.683 157.211C177.671 157.516 177.541 157.805 177.321 158.017C177.101 158.228 176.808 158.347 176.502 158.348C176.197 158.348 175.903 158.229 175.683 158.017C175.463 157.805 175.334 157.516 175.323 157.211C175.333 156.984 175.408 156.764 175.539 156.579C175.671 156.393 175.853 156.249 176.063 156.164C176.274 156.079 176.505 156.057 176.728 156.099C176.951 156.142 177.158 156.248 177.322 156.405C177.542 156.617 177.671 156.906 177.683 157.211Z" fill="#764ED7"/>
<path d="M159.808 146.767C159.797 147.073 159.667 147.361 159.447 147.573C159.227 147.785 158.934 147.903 158.628 147.903C158.323 147.903 158.029 147.785 157.809 147.573C157.589 147.361 157.46 147.073 157.448 146.767C157.46 146.462 157.589 146.173 157.809 145.961C158.029 145.75 158.323 145.631 158.628 145.631C158.934 145.631 159.227 145.75 159.447 145.961C159.667 146.173 159.797 146.462 159.808 146.767Z" fill="#764ED7"/>
<path d="M134.039 159.466C134.027 159.771 133.898 160.06 133.678 160.271C133.458 160.483 133.164 160.602 132.859 160.602C132.553 160.602 132.26 160.483 132.04 160.271C131.82 160.06 131.69 159.771 131.679 159.466C131.69 159.16 131.82 158.872 132.04 158.66C132.26 158.448 132.553 158.33 132.859 158.33C133.164 158.33 133.458 158.448 133.678 158.66C133.898 158.872 134.027 159.16 134.039 159.466Z" fill="#764ED7"/>
<path d="M151.793 161.857C151.781 162.162 151.652 162.451 151.432 162.663C151.212 162.874 150.918 162.993 150.613 162.993C150.307 162.993 150.014 162.874 149.794 162.663C149.574 162.451 149.444 162.162 149.433 161.857C149.444 161.552 149.574 161.263 149.794 161.051C150.014 160.839 150.307 160.721 150.613 160.721C150.918 160.721 151.212 160.839 151.432 161.051C151.652 161.263 151.781 161.552 151.793 161.857Z" fill="#764ED7"/>
<path d="M161.385 213.004C161.373 213.309 161.243 213.597 161.023 213.809C160.803 214.021 160.51 214.139 160.205 214.14C159.899 214.139 159.606 214.02 159.387 213.809C159.167 213.597 159.038 213.309 159.025 213.004C159.038 212.699 159.168 212.41 159.388 212.199C159.608 211.987 159.901 211.868 160.206 211.867C160.511 211.868 160.804 211.987 161.024 212.199C161.244 212.411 161.373 212.699 161.385 213.004Z" fill="#764ED7"/>
<path d="M174.291 191.957C174.281 192.184 174.206 192.403 174.074 192.589C173.943 192.774 173.761 192.918 173.551 193.003C173.34 193.088 173.109 193.111 172.886 193.068C172.662 193.026 172.456 192.92 172.291 192.763C172.072 192.551 171.943 192.262 171.931 191.957C171.956 191.661 172.091 191.386 172.309 191.185C172.528 190.984 172.814 190.873 173.111 190.873C173.407 190.873 173.693 190.984 173.912 191.185C174.13 191.386 174.265 191.661 174.291 191.957Z" fill="#764ED7"/>
<path d="M140.544 228.514C140.532 228.819 140.402 229.107 140.182 229.319C139.962 229.531 139.669 229.65 139.364 229.651C139.059 229.649 138.766 229.531 138.546 229.319C138.326 229.107 138.197 228.819 138.185 228.514C138.197 228.209 138.327 227.921 138.547 227.709C138.767 227.497 139.06 227.378 139.365 227.377C139.67 227.379 139.963 227.497 140.183 227.709C140.403 227.921 140.532 228.209 140.544 228.514Z" fill="#764ED7"/>
<path d="M318.565 139.555C324.578 136.492 327.423 142.432 332.627 142.277C328.683 146.803 322.056 148.484 317.789 144.346L318.565 139.555Z" stroke="#442D7C" stroke-width="0.25" stroke-linejoin="round"/>
<path d="M140.96 218.46L101.166 203.688L113.547 170.36L166.367 189.981" stroke="#442D7C" stroke-width="0.25" stroke-linecap="round" stroke-linejoin="round"/>
<path d="M227.716 212.776L250.732 221.341L238.352 254.636L160.188 225.608" stroke="#442D7C" stroke-width="0.25" stroke-linecap="round" stroke-linejoin="round"/>
<path d="M202.443 203.397L214.098 207.723" stroke="#442D7C" stroke-width="0.25" stroke-linecap="round" stroke-linejoin="round"/>
<path d="M260.38 228.256L250.261 255.506L239.53 251.499L249.647 224.279L260.38 228.256Z" stroke="#442D7C" stroke-width="0.25" stroke-linecap="round" stroke-linejoin="round"/>
<path d="M109.708 175.794L92.2838 165.384C91.825 165.117 91.2812 165.036 90.7644 165.158L62.3502 168.876L92.4131 179.447C92.8202 179.588 93.1609 179.874 93.3698 180.251C93.5786 180.628 93.6409 181.069 93.5446 181.489C93.4834 181.714 93.3767 181.924 93.2311 182.106C93.0854 182.288 92.904 182.438 92.6979 182.547C92.4918 182.656 92.2655 182.722 92.033 182.74C91.8005 182.758 91.5668 182.728 91.3463 182.652L61.542 170.691L80.6425 192.344C80.9589 192.764 81.42 193.052 81.9356 193.152L101.945 196.643C102.422 196.722 102.911 196.633 103.33 196.392C103.749 196.151 104.073 195.773 104.245 195.321L110.588 178.283C110.754 177.831 110.757 177.334 110.597 176.88C110.436 176.425 110.122 176.041 109.708 175.794Z" stroke="#442D7C" stroke-width="0.25" stroke-linecap="round" stroke-linejoin="round"/>
<path d="M107.418 186.758L148.394 201.974" stroke="#442D7C" stroke-width="0.25" stroke-linecap="round" stroke-linejoin="round"/>
<path d="M216.765 227.351L244.663 237.728" stroke="#442D7C" stroke-width="0.25" stroke-linecap="round" stroke-linejoin="round"/>
<path d="M213.371 226.088L214.794 226.638" stroke="#442D7C" stroke-width="0.25" stroke-linecap="round" stroke-linejoin="round"/>
<path d="M208.749 224.378L211.206 225.284" stroke="#442D7C" stroke-width="0.25" stroke-linecap="round" stroke-linejoin="round"/>
<path d="M173.119 211.159L208.257 224.185" stroke="#442D7C" stroke-width="0.25" stroke-linecap="round" stroke-linejoin="round"/>
<path d="M238.159 173.526C248.468 177.322 257.556 183.839 264.458 192.385C271.361 200.931 275.82 211.187 277.362 222.063C278.903 232.94 277.47 244.031 273.214 254.159C268.959 264.287 262.039 273.073 253.192 279.584C244.343 286.094 233.897 290.086 222.962 291.137C212.027 292.187 201.012 290.256 191.086 285.548C181.161 280.841 172.695 273.534 166.589 264.402C160.483 255.27 156.964 244.655 156.406 233.684" stroke="#442D7C" stroke-width="0.25" stroke-linecap="round" stroke-linejoin="round"/>
<path d="M184.441 166.095L186.284 157.077L171.253 150.355C169.187 149.437 167.486 147.858 166.418 145.866C165.35 143.874 164.976 141.583 165.355 139.355C165.734 137.126 166.845 135.088 168.511 133.561C170.178 132.035 172.306 131.107 174.559 130.924L197.391 129.052" stroke="#442D7C" stroke-width="0.25" stroke-linecap="round" stroke-linejoin="round"/>
<path d="M210.593 138.778C212.776 140.028 215.199 140.799 217.703 141.041C218.773 141.995 219.923 142.857 221.14 143.615C223.756 145.401 225.866 147.833 227.265 150.675C229.566 154.874 234.411 165.026 237.513 171.912C239.543 176.205 239.832 181.116 238.321 185.617L230.627 209.119C225.054 208.931 219.663 207.085 215.144 203.818L224.291 178.766L218.06 167.585L212.597 179.416" stroke="#442D7C" stroke-width="0.25" stroke-linecap="round" stroke-linejoin="round"/>
<path d="M187.738 150.061L173.387 149.287L188.126 148.123L187.738 150.061Z" stroke="#442D7C" stroke-width="0.25" stroke-linecap="round" stroke-linejoin="round"/>
<path d="M210.231 127.5C211.242 125.009 212.751 122.75 214.667 120.864C220.552 114.897 224.67 118.324 222.741 124.403C222.4 125.254 223.251 125.281 224.102 125.147C226.744 124.73 226.332 128.89 222.911 128.38C220.898 130.835 219.092 133.453 217.512 136.206C217.158 136.972 216.991 137.811 217.024 138.654C217.058 139.497 217.292 140.32 217.706 141.055" stroke="#442D7C" stroke-width="0.25" stroke-linecap="round" stroke-linejoin="round"/>
<path d="M210.43 132.345C209.837 131.528 209.589 130.511 209.741 129.513" stroke="#442D7C" stroke-width="0.25" stroke-linecap="round" stroke-linejoin="round"/>
<path d="M218.982 117.936C224.335 115.995 229.872 118.896 233.998 122.746C236.858 125.412 236.164 128.242 233.157 126.755C236.863 129.402 236.136 133.901 232.187 131.281C233.465 131.92 236.781 135.51 235.452 136.906C234.726 137.664 232.834 137.035 231.282 135.544C231.25 135.512 223.473 128.778 219.455 133.007" stroke="#442D7C" stroke-width="0.25" stroke-linecap="round" stroke-linejoin="round"/>
<path d="M169.285 184.007L187.452 183.165L171.257 188.402" stroke="#442D7C" stroke-width="0.25" stroke-linecap="round" stroke-linejoin="round"/>
<path d="M220.71 161.856V172.331L218.061 167.58L220.71 161.856Z" stroke="#442D7C" stroke-width="0.25" stroke-linecap="round" stroke-linejoin="round"/>
<path d="M178.652 153.685L184.437 166.105L212.594 179.424L212.562 179.489C212.335 183.013 209.878 203.998 195.396 206.675C185.65 208.492 175.939 210.497 166.27 212.688L150.721 245.854C142.823 244.372 138.266 241.571 132.554 237.287L147.748 203.28C148.937 200.62 150.67 198.239 152.836 196.29C155.001 194.341 157.552 192.868 160.322 191.966L171.249 188.41L159.806 162.837L136.757 175.215C134.333 172.759 132.24 169.998 130.531 167C129.057 164.397 127.985 161.586 127.35 158.663H127.382L158.673 140.076C160.733 138.842 163.138 138.309 165.527 138.557" stroke="#442D7C" stroke-width="0.25" stroke-linecap="round" stroke-linejoin="round"/>
<path d="M135.979 174.407C134.336 175.538 132.38 176.126 130.386 176.088C128.333 175.497 126.398 174.557 124.664 173.308C118.519 169.273 102.29 169.136 103.879 164.8C104.33 163.572 109.989 162.248 116.423 161.083C119.46 160.533 123.468 160.242 127.541 159.499C129.037 165.106 131.941 170.238 135.979 174.407Z" stroke="#442D7C" stroke-width="0.25" stroke-linecap="round" stroke-linejoin="round"/>
<path d="M208.723 136.194C209.466 136.064 211.6 135.773 212.764 135.45" stroke="#442D7C" stroke-width="0.25" stroke-linecap="round" stroke-linejoin="round"/>
<path d="M204.06 132.573C204.965 132.637 205.838 132.67 206.612 132.67" stroke="#442D7C" stroke-width="0.25" stroke-linecap="round" stroke-linejoin="round"/>
<path d="M209.665 139.159L206.451 139.555" stroke="#442D7C" stroke-width="0.25" stroke-linecap="round" stroke-linejoin="round"/>
<path d="M218.833 130.473C218.413 129.6 214.471 131.411 213.111 131.766C210.995 132.352 208.811 132.656 206.615 132.671C212.66 127.24 211.432 126.109 205.678 129.536C202.366 130.865 198.836 131.567 195.268 131.605C193.924 136.062 193.992 140.828 195.462 145.247C207.061 145.024 204.689 145.053 205.331 145.053C207.105 144.757 208.01 142.822 206.925 142.312C208.596 141.922 210.459 140.376 209.676 139.161C210.518 138.95 211.271 138.478 211.827 137.811C212.382 137.144 212.711 136.318 212.766 135.452C214.421 135.118 219.526 131.911 218.833 130.473Z" stroke="#442D7C" stroke-width="0.25" stroke-linecap="round" stroke-linejoin="round"/>
<path d="M204.581 142.628C204.581 142.628 206.272 142.376 206.919 142.312" stroke="#442D7C" stroke-width="0.25" stroke-linecap="round" stroke-linejoin="round"/>
<path d="M199.505 131.246C198.961 129.849 198.168 129.034 197.382 129.046C194.913 129.233 194.244 135.915 194.282 138.574C194.316 141.126 195.095 147.383 197.469 147.383C198.215 147.342 198.934 146.532 199.473 145.217" stroke="#442D7C" stroke-width="0.25" stroke-linecap="round" stroke-linejoin="round"/>
<path d="M214.891 210.932C213.448 214.985 211.387 218.79 208.781 222.213C207.314 224.275 208.458 225.252 210.591 223.312C212.507 221.503 214.229 219.499 215.73 217.333" stroke="#442D7C" stroke-width="0.25" stroke-linecap="round" stroke-linejoin="round"/>
<path d="M214.412 219.11C213.395 221.405 212.225 223.629 210.91 225.767C209.488 227.869 210.934 228.67 212.915 226.608C215.106 224.055 217.104 221.343 218.893 218.494" stroke="#442D7C" stroke-width="0.25" stroke-linecap="round" stroke-linejoin="round"/>
<path d="M216.97 221.391C216.365 223.122 215.672 224.822 214.892 226.482C213.793 228.744 215.314 229.393 216.992 227.096C218.631 224.657 220.058 222.083 221.259 219.402" stroke="#442D7C" stroke-width="0.25" stroke-linecap="round" stroke-linejoin="round"/>
<path d="M220.092 221.794C219.841 222.973 219.528 224.139 219.154 225.285C218.334 227.589 219.542 227.871 221.026 225.544C222.509 223.216 223.774 220.727 225.034 218.302C226.639 215.257 227.891 212.497 229.3 209.075" stroke="#442D7C" stroke-width="0.25" stroke-linecap="round" stroke-linejoin="round"/>
<path d="M214.196 212.801C206.247 216.614 205.209 215.013 210.982 210.8C213.166 209.126 214.927 206.964 216.125 204.486" stroke="#442D7C" stroke-width="0.25" stroke-linecap="round" stroke-linejoin="round"/>
<path d="M63.5041 172.947L63.3101 173.497L57.8145 171.46L59.8511 165.965L65.3468 168.001L65.1579 168.505" stroke="#442D7C" stroke-width="0.25" stroke-linecap="round" stroke-linejoin="round"/>
<path d="M64.7112 169.712L64 171.684" stroke="#442D7C" stroke-width="0.25" stroke-linecap="round" stroke-linejoin="round"/>
<path d="M58.72 171.789L12.085 212.609" stroke="#442D7C" stroke-width="0.25" stroke-linecap="round" stroke-linejoin="round"/>
<path d="M108.246 128.431L63.7461 167.405" stroke="#442D7C" stroke-width="0.25" stroke-linecap="round" stroke-linejoin="round"/>
<path d="M14.244 214.068C14.0008 214.522 13.6286 214.893 13.1744 215.136C12.7202 215.378 12.2043 215.481 11.6919 215.431C11.3091 215.392 10.9397 215.269 10.6101 215.071C10.2804 214.872 9.99877 214.603 9.78526 214.283C9.57174 213.963 9.43166 213.6 9.37506 213.219C9.31846 212.839 9.34674 212.451 9.45787 212.082C9.57033 211.714 9.76285 211.376 10.0216 211.091C10.2804 210.806 10.599 210.582 10.9545 210.435C11.3101 210.288 11.6938 210.222 12.0781 210.241C12.4624 210.259 12.8377 210.363 13.1772 210.544C13.785 210.871 14.2385 211.425 14.4384 212.086C14.6384 212.746 14.5685 213.459 14.244 214.068Z" stroke="#442D7C" stroke-width="0.25" stroke-linecap="round" stroke-linejoin="round"/>
<path d="M110.543 129.665C110.389 129.98 110.174 130.26 109.91 130.489C109.645 130.719 109.337 130.892 109.004 131C108.671 131.108 108.32 131.147 107.971 131.116C107.623 131.084 107.284 130.983 106.975 130.818C106.667 130.653 106.395 130.427 106.175 130.154C105.956 129.882 105.794 129.568 105.699 129.231C105.603 128.894 105.577 128.541 105.621 128.194C105.666 127.847 105.779 127.512 105.956 127.21C106.296 126.628 106.848 126.201 107.496 126.018C108.144 125.835 108.838 125.91 109.432 126.228C110.026 126.546 110.474 127.081 110.681 127.722C110.888 128.363 110.839 129.06 110.543 129.665Z" stroke="#442D7C" stroke-width="0.25" stroke-linecap="round" stroke-linejoin="round"/>
<path d="M318.564 139.56L317.788 144.344C314.108 144.291 310.437 143.989 306.798 143.439C296.031 141.702 284.718 138.335 285.009 136.521C285.3 134.707 297.131 135.173 307.865 136.909C311.492 137.526 315.067 138.413 318.564 139.56Z" stroke="#442D7C" stroke-width="0.25" stroke-linecap="round" stroke-linejoin="round"/>
<path d="M309.209 137.135L308.115 143.631" stroke="#442D7C" stroke-width="0.25" stroke-linecap="round" stroke-linejoin="round"/>
<path d="M289.664 66.0477C279.548 59.5822 266.552 61.8128 260.636 71.0261C258.569 74.2581 257.564 78.0553 257.762 81.8865L249.936 87.7054L259.584 89.4817C261.436 93.581 264.44 97.0525 268.231 99.4727C278.35 105.938 291.344 103.708 297.26 94.4942C303.176 85.2809 299.788 72.5132 289.664 66.0477Z" stroke="#442D7C" stroke-width="0.25" stroke-linecap="round" stroke-linejoin="round"/>
<path d="M277.418 85.1503C277.838 83.8912 278.609 83.1086 280.877 81.499C285.675 78.0706 284.645 74.2831 281.782 73.2231C281.273 73.0355 280.73 72.9623 280.19 73.0086C279.649 73.055 279.126 73.2199 278.657 73.4915C278.188 73.7631 277.784 74.1348 277.475 74.5802C277.166 75.0255 276.959 75.5335 276.868 76.068" stroke="#442D7C" stroke-width="0.25" stroke-linecap="round" stroke-linejoin="round"/>
<path d="M277.025 89.7399C276.979 89.8671 276.907 89.984 276.816 90.0837C276.724 90.1834 276.613 90.2641 276.491 90.3212C276.368 90.3782 276.235 90.4105 276.099 90.4161C275.964 90.4218 275.829 90.4007 275.702 90.3541C275.574 90.3075 275.457 90.2363 275.358 90.1446C275.258 90.0529 275.177 89.9424 275.12 89.8195C275.063 89.6965 275.031 89.5636 275.025 89.4282C275.02 89.2928 275.041 89.1576 275.087 89.0304C275.181 88.7734 275.374 88.5643 275.622 88.4491C275.87 88.3339 276.154 88.3221 276.411 88.4162C276.668 88.5103 276.877 88.7026 276.992 88.9508C277.107 89.1991 277.119 89.4829 277.025 89.7399Z" stroke="#442D7C" stroke-width="0.25" stroke-linecap="round" stroke-linejoin="round"/>
<path d="M206.428 73.8366C206.702 63.3046 203.842 63.0154 204.295 58.7719C204.423 57.6806 204.77 56.6263 205.315 55.6721C205.86 54.7179 206.591 53.8834 207.466 53.2184C208.342 52.5542 209.343 52.0738 210.409 51.806C211.475 51.5382 212.584 51.4885 213.67 51.6599C215.902 51.9602 217.933 53.1083 219.341 54.8659C220.749 56.6235 221.426 58.8557 221.233 61.0995C220.761 65.5233 217.794 64.8818 215.899 75.1297L206.428 73.8366Z" stroke="#442D7C" stroke-width="0.25" stroke-linecap="round" stroke-linejoin="round"/>
<path d="M215.317 82.1801L205.489 80.8224L206.007 76.1025L215.832 77.4603L215.317 82.1801Z" stroke="#442D7C" stroke-width="0.25" stroke-linecap="round" stroke-linejoin="round"/>
<path d="M212.01 58.388L209.968 58.1294C209.713 58.0907 209.453 58.1038 209.202 58.168C208.952 58.2322 208.718 58.3461 208.512 58.503C208.307 58.6599 208.136 58.8566 208.008 59.0812C207.881 59.3058 207.8 59.5538 207.77 59.8104C207.716 60.3408 207.872 60.8712 208.205 61.2881C208.537 61.705 209.019 61.9753 209.548 62.041L215.4 62.8169C215.655 62.8554 215.915 62.8421 216.165 62.7777C216.415 62.7134 216.65 62.5994 216.855 62.4426C217.06 62.2857 217.231 62.0891 217.358 61.8646C217.486 61.6401 217.567 61.3923 217.596 61.1359C217.65 60.6055 217.494 60.075 217.162 59.6581C216.829 59.2412 216.347 58.971 215.818 58.9053L214.882 58.8083C214.627 58.7696 214.366 58.7827 214.116 58.8469C213.866 58.9111 213.631 59.025 213.426 59.1819C213.221 59.3388 213.049 59.5354 212.922 59.7601C212.794 59.9847 212.714 60.2327 212.684 60.4893L211.165 74.4871" stroke="#442D7C" stroke-width="0.25" stroke-linecap="round" stroke-linejoin="round"/>
<path d="M284.125 199.877L308.824 213.552L301.582 226.61L275.011 211.935" stroke="#442D7C" stroke-width="0.25" stroke-linecap="round" stroke-linejoin="round"/>
<path d="M295.131 220.983L300.627 211.06L305.928 214.002L300.433 223.924L295.131 220.983Z" stroke="#442D7C" stroke-width="0.25" stroke-linecap="round" stroke-linejoin="round"/>
<path d="M288.304 217.203L293.799 207.278L299.101 210.22L293.605 220.143L288.304 217.203Z" stroke="#442D7C" stroke-width="0.25" stroke-linecap="round" stroke-linejoin="round"/>
<path d="M281.478 213.456L286.972 203.531L292.273 206.473L286.81 216.365L281.478 213.456Z" stroke="#442D7C" stroke-width="0.25" stroke-linecap="round" stroke-linejoin="round"/>
<path d="M280.542 199.937L285.486 202.685L279.992 212.61L274.69 209.668L280.057 199.97" stroke="#442D7C" stroke-width="0.25" stroke-linecap="round" stroke-linejoin="round"/>
<path d="M270.429 201.264L271.043 200.165" stroke="#442D7C" stroke-width="0.25" stroke-linecap="round" stroke-linejoin="round"/>
<path d="M278.051 200.004L273.622 208.021" stroke="#442D7C" stroke-width="0.25" stroke-linecap="round" stroke-linejoin="round"/>
<path d="M162.165 85.5676L162.909 89.8995" stroke="#442D7C" stroke-width="0.25" stroke-linecap="round" stroke-linejoin="round"/>
<path d="M159.584 94.6521L155.284 95.3956" stroke="#442D7C" stroke-width="0.25" stroke-linecap="round" stroke-linejoin="round"/>
<path d="M171.995 92.4546L167.695 93.2304" stroke="#442D7C" stroke-width="0.25" stroke-linecap="round" stroke-linejoin="round"/>
<path d="M165.105 102.285L164.329 97.9854" stroke="#442D7C" stroke-width="0.25" stroke-linecap="round" stroke-linejoin="round"/>
<path d="M164.335 97.9847C164.145 96.914 163.539 95.9621 162.649 95.3379C161.759 94.7136 160.657 94.468 159.586 94.655C160.657 94.4657 161.61 93.8589 162.234 92.9679C162.858 92.0769 163.104 90.9745 162.916 89.9028C163.105 90.9739 163.711 91.9262 164.601 92.5508C165.491 93.1753 166.593 93.4212 167.664 93.2343C166.593 93.4235 165.641 94.0301 165.017 94.9207C164.393 95.8114 164.147 96.9133 164.335 97.9847Z" stroke="#442D7C" stroke-width="0.25" stroke-linecap="round" stroke-linejoin="round"/>
<path d="M149.168 245.511C148.173 248.224 146.743 250.756 144.934 253.01C143.626 254.392 142.024 255.464 140.247 256.145C132.82 259.208 122.766 273.726 119.816 269.626C118.979 268.461 121.274 262.58 124.18 256.048C126.251 251.395 130.355 244.38 133.684 238.205C138.262 241.723 143.542 244.214 149.168 245.511Z" stroke="#442D7C" stroke-width="0.25" stroke-linecap="round" stroke-linejoin="round"/>
<path d="M257.911 185.49L319.783 184.167L320.106 199.1L269.808 200.167" stroke="#442D7C" stroke-width="0.25" stroke-linecap="round" stroke-linejoin="round"/>
<path d="M311.669 197.48L311.442 186.133L317.518 186.003L317.745 197.35L311.669 197.48Z" stroke="#442D7C" stroke-width="0.25" stroke-linecap="round" stroke-linejoin="round"/>
<path d="M303.912 197.647L303.653 186.3L309.731 186.17L309.957 197.517L303.912 197.647Z" stroke="#442D7C" stroke-width="0.25" stroke-linecap="round" stroke-linejoin="round"/>
<path d="M296.124 197.807L295.865 186.46L301.943 186.331L302.201 197.678L296.124 197.807Z" stroke="#442D7C" stroke-width="0.25" stroke-linecap="round" stroke-linejoin="round"/>
<path d="M288.335 197.969L288.076 186.654L294.154 186.525L294.412 197.839L288.335 197.969Z" stroke="#442D7C" stroke-width="0.25" stroke-linecap="round" stroke-linejoin="round"/>
<path d="M280.541 198.161L280.314 186.814L286.358 186.685L286.617 197.999L280.541 198.161Z" stroke="#442D7C" stroke-width="0.25" stroke-linecap="round" stroke-linejoin="round"/>
<path d="M205.323 145.05C200.639 153.195 197.247 162.017 195.27 171.202" stroke="#442D7C" stroke-width="0.25" stroke-linecap="round" stroke-linejoin="round"/>
<path d="M122.735 218.46L117.691 229.549" stroke="#442D7C" stroke-width="0.25" stroke-linecap="round" stroke-linejoin="round"/>
<path d="M125.732 226.509L114.646 221.466" stroke="#442D7C" stroke-width="0.25" stroke-linecap="round" stroke-linejoin="round"/>
<path d="M159.813 162.834L162.107 161.603" stroke="#442D7C" stroke-width="0.25" stroke-linecap="round" stroke-linejoin="round"/>
<path d="M197.464 147.382L188.121 148.125L186.278 157.078" stroke="#442D7C" stroke-width="0.25" stroke-linecap="round" stroke-linejoin="round"/>
</svg>
