<svg width="151" height="150" viewBox="0 0 151 150" fill="none" xmlns="http://www.w3.org/2000/svg">
<path d="M50.6666 33.7166C27.1671 32.2928 9.28849 38.0068 5.39381 51.8908C0.446173 69.5262 19.1069 85.8534 47.6674 97.1061" stroke="#442D7C" stroke-width="0.25" stroke-linecap="round" stroke-linejoin="round"/>
<path d="M70.4059 36.3395C66.849 35.6301 63.2689 35.0422 59.6719 34.5769" stroke="#442D7C" stroke-width="0.25" stroke-linecap="round" stroke-linejoin="round"/>
<path d="M128.826 58.676C117.678 51.0217 102.048 44.6517 84.3717 39.6929C82.1627 39.0728 79.9427 38.4924 77.7129 37.9519" stroke="#442D7C" stroke-width="0.25" stroke-linecap="round" stroke-linejoin="round"/>
<path d="M108.885 110.42C127.742 110.604 141.585 105.082 145.482 91.194C148.466 80.5577 143.914 71.0781 134.343 62.8865" stroke="#442D7C" stroke-width="0.25" stroke-linecap="round" stroke-linejoin="round"/>
<path d="M88.6523 108.452C92.2478 109.062 95.7507 109.54 99.1372 109.871" stroke="#442D7C" stroke-width="0.25" stroke-linecap="round" stroke-linejoin="round"/>
<path d="M55.8867 100.114C59.3947 101.301 62.9337 102.395 66.4999 103.395C72.755 105.15 78.8832 106.621 84.789 107.756" stroke="#442D7C" stroke-width="0.25" stroke-linecap="round" stroke-linejoin="round"/>
<path d="M130.645 54.014L124.8 68.9972C124.638 69.4058 124.558 69.8425 124.565 70.2822C124.572 70.7218 124.666 71.1557 124.841 71.559C125.016 71.9622 125.27 72.3267 125.587 72.6316C125.903 72.9365 126.277 73.1758 126.687 73.3355C127.097 73.4953 127.534 73.5725 127.974 73.5626C128.413 73.5527 128.846 73.456 129.249 73.278C129.651 73.1 130.013 72.8442 130.316 72.5254C130.619 72.2066 130.856 71.831 131.013 71.4203L136.858 56.4371C137.02 56.0285 137.1 55.5918 137.093 55.1522C137.086 54.7125 136.992 54.2786 136.817 53.8754C136.642 53.4721 136.388 53.1076 136.071 52.8027C135.754 52.4978 135.38 52.2585 134.971 52.0988C134.561 51.939 134.124 51.8618 133.684 51.8717C133.245 51.8816 132.811 51.9783 132.409 52.1563C132.007 52.3343 131.644 52.5901 131.342 52.9089C131.039 53.2277 130.802 53.6033 130.645 54.014Z" stroke="#442D7C" stroke-width="0.25" stroke-linecap="round" stroke-linejoin="round"/>
<path d="M29.6372 47.753C29.2989 47.6367 28.941 47.5883 28.5839 47.6104C28.2269 47.6326 27.8777 47.7248 27.5562 47.8819C27.2348 48.039 26.9475 48.2579 26.7107 48.526C26.4739 48.7942 26.2923 49.1063 26.1761 49.4447L22.8352 59.1713C22.719 59.5097 22.6706 59.8676 22.6927 60.2246C22.7149 60.5817 22.8071 60.9309 22.9642 61.2523C23.1213 61.5736 23.3402 61.861 23.6083 62.0978C23.8764 62.3346 24.1886 62.5163 24.5269 62.6324C24.8652 62.7486 25.2232 62.797 25.5802 62.7749C25.9373 62.7527 26.2864 62.6605 26.6078 62.5034C26.9292 62.3463 27.2165 62.1274 27.4533 61.8593C27.6902 61.5912 27.8718 61.279 27.988 60.9407L31.329 51.2141C31.4452 50.8757 31.4936 50.5178 31.4715 50.1607C31.4494 49.8037 31.3571 49.4545 31.2 49.1331C31.0429 48.8117 30.8241 48.5244 30.5559 48.2876C30.2878 48.0508 29.9756 47.8691 29.6372 47.753Z" stroke="#442D7C" stroke-width="0.25" stroke-linecap="round" stroke-linejoin="round"/>
<path d="M53.7992 94.151L32.0311 104.635C31.2857 104.999 30.7147 105.643 30.4429 106.427C30.171 107.21 30.2204 108.069 30.5803 108.817C30.9402 109.564 31.5812 110.138 32.3633 110.414C33.1454 110.69 34.005 110.645 34.7541 110.289L56.5222 99.8054C57.2676 99.4416 57.8386 98.7975 58.1104 98.014C58.3823 97.2304 58.3328 96.3711 57.973 95.6238C57.6131 94.8766 56.9721 94.3022 56.19 94.0262C55.4079 93.7503 54.5483 93.7951 53.7992 94.151Z" stroke="#442D7C" stroke-width="0.25" stroke-linecap="round" stroke-linejoin="round"/>
<path d="M102.532 8.80891C98.5381 7.64401 94.3569 9.93724 93.192 13.9312C92.0271 17.9251 94.3203 22.1063 98.3142 23.2712C102.308 24.4361 106.489 22.1429 107.654 18.149C108.819 14.155 106.526 9.9738 102.532 8.80891Z" stroke="#442D7C" stroke-width="0.25" stroke-linecap="round" stroke-linejoin="round"/>
<path d="M93.2211 29.8748C92.8519 29.7671 92.4652 29.7331 92.0829 29.7749C91.7006 29.8167 91.3303 29.9333 90.9931 30.1182C90.6559 30.3031 90.3585 30.5526 90.1177 30.8524C89.8769 31.1523 89.6975 31.4966 89.5898 31.8658C89.4821 32.2349 89.4482 32.6217 89.49 33.004C89.5318 33.3862 89.6484 33.7565 89.8333 34.0937C90.0182 34.4309 90.2677 34.7284 90.5675 34.9692C90.8673 35.2099 91.2117 35.3893 91.5808 35.497C92.3264 35.7145 93.1278 35.627 93.8088 35.2536C94.4898 34.8802 94.9946 34.2516 95.2121 33.506C95.4296 32.7605 95.342 31.959 94.9687 31.278C94.5953 30.597 93.9667 30.0923 93.2211 29.8748Z" stroke="#442D7C" stroke-width="0.25" stroke-linecap="round" stroke-linejoin="round"/>
<path d="M108.762 27.9592C108.274 27.8168 107.748 27.8743 107.302 28.119C106.856 28.3637 106.526 28.7756 106.383 29.2641C106.241 29.7525 106.298 30.2775 106.543 30.7236C106.788 31.1697 107.2 31.5003 107.688 31.6427C107.93 31.7132 108.183 31.7354 108.434 31.708C108.684 31.6806 108.927 31.6041 109.148 31.483C109.369 31.3618 109.563 31.1983 109.721 31.0018C109.879 30.8054 109.996 30.5798 110.067 30.3379C110.137 30.0961 110.159 29.8427 110.132 29.5922C110.105 29.3418 110.028 29.0992 109.907 28.8783C109.786 28.6575 109.622 28.4626 109.426 28.3049C109.229 28.1472 109.004 28.0298 108.762 27.9592Z" stroke="#442D7C" stroke-width="0.25" stroke-linecap="round" stroke-linejoin="round"/>
<path d="M42.2128 29.691L58.6221 23.033C58.8766 22.9297 59.1083 22.7772 59.304 22.5844C59.4996 22.3916 59.6554 22.1621 59.7623 21.909C59.8693 21.656 59.9254 21.3844 59.9274 21.1097C59.9293 20.835 59.8772 20.5626 59.7739 20.308C59.6706 20.0535 59.5182 19.8218 59.3254 19.6261C59.1325 19.4305 58.903 19.2747 58.65 19.1678C58.397 19.0608 58.1253 19.0047 57.8506 19.0027C57.5759 19.0008 57.3035 19.0529 57.049 19.1562L40.9277 25.6978C41.2967 27.0473 41.7255 28.3796 42.2128 29.691Z" stroke="#442D7C" stroke-width="0.25" stroke-linecap="round" stroke-linejoin="round"/>
<path d="M47.8349 39.383L62.7928 33.3137C63.2986 33.0993 63.6997 32.6946 63.9097 32.187C64.1197 31.6794 64.1216 31.1096 63.9151 30.6005C63.7086 30.0915 63.3102 29.6841 62.8059 29.4662C62.3016 29.2484 61.7319 29.2376 61.2197 29.4362L45.2402 35.9196C46.0052 37.1457 46.8732 38.3043 47.8349 39.383Z" stroke="#442D7C" stroke-width="0.25" stroke-linecap="round" stroke-linejoin="round"/>
<path d="M58.1348 45.8347L66.4973 42.4415C66.9985 42.2241 67.3947 41.8192 67.6014 41.3135C67.8081 40.8078 67.8088 40.2414 67.6034 39.7352C67.398 39.2289 67.0027 38.8231 66.5021 38.6044C66.0015 38.3857 65.4352 38.3715 64.9242 38.5647L52.7812 43.4922C54.5096 44.5347 56.3103 45.287 58.1348 45.8347Z" stroke="#442D7C" stroke-width="0.25" stroke-linecap="round" stroke-linejoin="round"/>
<path d="M68.0489 31.1774L82.0635 25.491C82.3067 23.9798 82.4575 22.4157 82.5 20.7986L66.4758 27.3007C63.9109 28.3409 65.4848 32.2192 68.0489 31.1774Z" stroke="#442D7C" stroke-width="0.25" stroke-linecap="round" stroke-linejoin="round"/>
<path d="M71.7525 40.3093L77.7538 37.8742C78.7205 36.0922 79.5585 34.2432 80.2612 32.3416L70.1794 36.4325C67.6414 37.4623 69.1622 41.3622 71.7525 40.3093Z" stroke="#442D7C" stroke-width="0.25" stroke-linecap="round" stroke-linejoin="round"/>
<path d="M90.5566 103.165L86.8045 104.687C85.4948 106.519 84.2561 108.511 83.2441 110.648L92.1297 107.042C92.6438 106.833 93.054 106.429 93.27 105.918C93.486 105.407 93.4902 104.831 93.2816 104.317C93.073 103.803 92.6687 103.393 92.1577 103.177C91.6466 102.961 91.0707 102.956 90.5566 103.165Z" stroke="#442D7C" stroke-width="0.25" stroke-linecap="round" stroke-linejoin="round"/>
<path d="M94.1023 111.901L81.0937 117.18C80.8128 118.713 80.6997 120.273 80.7564 121.832L95.6754 115.778C95.9299 115.675 96.1617 115.522 96.3573 115.33C96.553 115.137 96.7087 114.907 96.8157 114.654C96.9226 114.401 96.9787 114.13 96.9807 113.855C96.9827 113.58 96.9305 113.308 96.8272 113.053C96.7239 112.799 96.5715 112.567 96.3787 112.371C96.1858 112.176 95.9563 112.02 95.7033 111.913C95.4503 111.806 95.1787 111.75 94.904 111.748C94.6293 111.746 94.3568 111.798 94.1023 111.901Z" stroke="#442D7C" stroke-width="0.25" stroke-linecap="round" stroke-linejoin="round"/>
<path d="M98.2702 122.181L82.1602 128.718C82.6528 130.027 83.2479 131.296 83.94 132.511L99.844 126.058C100.099 125.955 100.33 125.803 100.526 125.61C100.722 125.417 100.877 125.187 100.984 124.934C101.091 124.681 101.147 124.41 101.149 124.135C101.151 123.86 101.099 123.588 100.996 123.333C100.893 123.079 100.74 122.847 100.547 122.652C100.354 122.456 100.125 122.3 99.872 122.193C99.6189 122.086 99.3473 122.03 99.0726 122.028C98.7979 122.026 98.5255 122.078 98.2709 122.182L98.2702 122.181Z" stroke="#442D7C" stroke-width="0.25" stroke-linecap="round" stroke-linejoin="round"/>
<path d="M99.8019 99.4138L95.814 101.032C93.2827 102.059 94.7856 105.964 97.3871 104.908L106.829 101.077C104.762 100.455 102.432 99.8944 99.8019 99.4138Z" stroke="#442D7C" stroke-width="0.25" stroke-linecap="round" stroke-linejoin="round"/>
<path d="M113.847 103.891L99.3589 109.769C96.8276 110.796 98.3306 114.702 100.932 113.646L118.062 106.696C116.904 105.724 115.52 104.78 113.847 103.89V103.891Z" stroke="#442D7C" stroke-width="0.25" stroke-linecap="round" stroke-linejoin="round"/>
<path d="M122.603 112.307L103.531 120.047C100.999 121.074 102.502 124.979 105.104 123.924L124.127 116.205C123.784 114.806 123.279 113.581 122.603 112.307Z" stroke="#442D7C" stroke-width="0.25" stroke-linecap="round" stroke-linejoin="round"/>
<path d="M73.6873 60.1755C73.9418 60.0722 74.1735 59.9198 74.3692 59.727C74.5648 59.5341 74.7206 59.3047 74.8276 59.0516C74.9345 58.7986 74.9906 58.527 74.9926 58.2523C74.9946 57.9776 74.9424 57.7052 74.8391 57.4506C74.7358 57.1961 74.5834 56.9643 74.3906 56.7687C74.1977 56.573 73.9682 56.4173 73.7152 56.3103C73.4622 56.2034 73.1906 56.1473 72.9158 56.1453C72.6411 56.1433 72.3687 56.1955 72.1142 56.2988L68.1262 57.9166C66.7278 59.8046 65.3606 61.8568 64.2129 64.0202L73.6873 60.1755Z" fill="#764ED7"/>
<path d="M61.1976 75.4206L77.2383 68.9126C77.4929 68.8093 77.7246 68.6569 77.9203 68.464C78.116 68.2711 78.2718 68.0416 78.3788 67.7886C78.4858 67.5355 78.5419 67.2638 78.5439 66.9891C78.5459 66.7143 78.4938 66.4419 78.3905 66.1873C78.2872 65.9327 78.1348 65.7009 77.9419 65.5052C77.7491 65.3095 77.5195 65.1537 77.2665 65.0467C77.0134 64.9398 76.7417 64.8837 76.467 64.8816C76.1922 64.8796 75.9198 64.9318 75.6652 65.0351L61.6454 70.7237C61.2991 72.267 61.132 73.8371 61.1976 75.4206Z" fill="#764ED7"/>
<path d="M79.8322 75.3154L63.0117 82.1406C63.6829 83.4152 64.5238 84.5928 65.5117 85.6412L81.4053 79.1921C81.9194 78.9835 82.3295 78.5792 82.5456 78.0682C82.7616 77.5572 82.7657 76.9813 82.5571 76.4672C82.3485 75.9531 81.9442 75.5429 81.4332 75.3269C80.9222 75.1109 80.3463 75.1068 79.8322 75.3154Z" fill="#764ED7"/>
<path d="M86.2643 85.5961C86.0556 85.0822 85.6514 84.6721 85.1405 84.456C84.6296 84.24 84.0538 84.2356 83.5397 84.4439L70.8691 89.5848C72.6654 90.5109 74.5982 91.2258 76.5697 91.787L85.1128 88.3207C85.3674 88.2175 85.5992 88.0652 85.7949 87.8724C85.9906 87.6796 86.1464 87.4501 86.2533 87.1971C86.3603 86.944 86.4163 86.6724 86.4181 86.3977C86.42 86.123 86.3677 85.8506 86.2643 85.5961Z" fill="#764ED7"/>
<path d="M73.6873 60.1755C73.9418 60.0722 74.1735 59.9198 74.3692 59.727C74.5648 59.5341 74.7206 59.3047 74.8276 59.0516C74.9345 58.7986 74.9906 58.527 74.9926 58.2523C74.9946 57.9776 74.9424 57.7052 74.8391 57.4506C74.7358 57.1961 74.5834 56.9643 74.3906 56.7687C74.1977 56.573 73.9682 56.4173 73.7152 56.3103C73.4622 56.2034 73.1906 56.1473 72.9158 56.1453C72.6411 56.1433 72.3687 56.1955 72.1142 56.2988L68.1262 57.9166C66.7278 59.8046 65.3606 61.8568 64.2129 64.0202L73.6873 60.1755Z" stroke="#442D7C" stroke-width="0.25" stroke-linecap="round" stroke-linejoin="round"/>
<path d="M61.1976 75.4206L77.2383 68.9126C77.4929 68.8093 77.7246 68.6569 77.9203 68.464C78.116 68.2711 78.2718 68.0416 78.3788 67.7886C78.4858 67.5355 78.5419 67.2638 78.5439 66.9891C78.5459 66.7143 78.4938 66.4419 78.3905 66.1873C78.2872 65.9327 78.1348 65.7009 77.9419 65.5052C77.7491 65.3095 77.5195 65.1537 77.2665 65.0467C77.0134 64.9398 76.7417 64.8837 76.467 64.8816C76.1922 64.8796 75.9198 64.9318 75.6652 65.0351L61.6454 70.7237C61.2991 72.267 61.132 73.8371 61.1976 75.4206Z" stroke="#442D7C" stroke-width="0.25" stroke-linecap="round" stroke-linejoin="round"/>
<path d="M79.8322 75.3154L63.0117 82.1406C63.6829 83.4152 64.5238 84.5928 65.5117 85.6412L81.4053 79.1921C81.9194 78.9835 82.3296 78.5792 82.5456 78.0682C82.7616 77.5572 82.7657 76.9813 82.5571 76.4672C82.3485 75.9531 81.9442 75.5429 81.4332 75.3269C80.9222 75.1109 80.3463 75.1068 79.8322 75.3154Z" stroke="#442D7C" stroke-width="0.25" stroke-linecap="round" stroke-linejoin="round"/>
<path d="M86.2643 85.5961C86.0556 85.0822 85.6514 84.6721 85.1405 84.456C84.6296 84.24 84.0538 84.2356 83.5397 84.4439L70.8691 89.5848C72.6654 90.5109 74.5982 91.2258 76.5697 91.787L85.1128 88.3207C85.3674 88.2175 85.5992 88.0652 85.7949 87.8724C85.9906 87.6796 86.1464 87.4501 86.2533 87.1971C86.3603 86.944 86.4163 86.6724 86.4181 86.3977C86.42 86.123 86.3677 85.8506 86.2643 85.5961Z" stroke="#442D7C" stroke-width="0.25" stroke-linecap="round" stroke-linejoin="round"/>
<path d="M125.952 128.922C125.645 128.923 125.343 128.856 125.066 128.726C124.788 128.597 124.542 128.408 124.346 128.174C124.149 127.939 124.006 127.664 123.928 127.369C123.849 127.073 123.836 126.763 123.89 126.462C124.705 121.899 125.207 117.753 123.069 113.232C120.303 107.381 114.153 100.388 90.9487 98.2216L89.8554 98.1216C80.8012 97.3015 63.9479 95.7747 58.4622 82.2548C53.1063 69.0567 63.765 56.3607 69.4903 49.5392C69.888 49.0654 70.2664 48.6154 70.6178 48.19C76.9923 40.488 84.0705 29.7718 82.2161 15.1498C82.1781 14.8757 82.1949 14.5968 82.2654 14.3293C82.336 14.0617 82.4589 13.8109 82.6272 13.5912C82.7954 13.3715 83.0055 13.1873 83.2454 13.0494C83.4852 12.9115 83.7501 12.8225 84.0246 12.7877C84.2991 12.7528 84.5777 12.7728 84.8445 12.8464C85.1112 12.92 85.3607 13.0458 85.5784 13.2165C85.7962 13.3872 85.9779 13.5994 86.1131 13.8408C86.2483 14.0822 86.3342 14.3481 86.366 14.623C88.4219 30.839 80.7527 42.5051 73.8409 50.8571C73.4834 51.2892 73.0991 51.7467 72.6947 52.2287C67.1724 58.8069 57.9308 69.8163 62.3382 80.681C66.747 91.5471 80.2773 93.0337 91.3375 94.0545C111.087 95.8776 122.038 101.261 126.851 111.443C129.513 117.074 128.917 122.109 128.007 127.198C127.921 127.681 127.668 128.118 127.292 128.433C126.916 128.748 126.441 128.921 125.951 128.922L125.952 128.922Z" fill="#764ED7"/>
<path d="M125.952 128.922C125.645 128.923 125.343 128.856 125.066 128.726C124.788 128.597 124.542 128.408 124.346 128.174C124.149 127.939 124.006 127.664 123.928 127.369C123.849 127.073 123.836 126.763 123.89 126.462C124.705 121.899 125.207 117.753 123.069 113.232C120.303 107.381 114.153 100.388 90.9487 98.2216L89.8554 98.1216C80.8012 97.3015 63.9479 95.7747 58.4622 82.2548C53.1063 69.0567 63.765 56.3607 69.4903 49.5392C69.888 49.0654 70.2664 48.6154 70.6178 48.19C76.9923 40.488 84.0705 29.7718 82.2161 15.1498C82.1781 14.8757 82.1949 14.5968 82.2654 14.3293C82.336 14.0617 82.4589 13.8109 82.6272 13.5912C82.7954 13.3715 83.0055 13.1873 83.2454 13.0494C83.4852 12.9115 83.7501 12.8225 84.0246 12.7877C84.2991 12.7528 84.5777 12.7728 84.8445 12.8464C85.1112 12.92 85.3607 13.0458 85.5784 13.2165C85.7962 13.3872 85.9779 13.5994 86.1131 13.8408C86.2483 14.0822 86.3342 14.3481 86.366 14.623C88.4219 30.839 80.7527 42.5051 73.8409 50.8571C73.4834 51.2892 73.0991 51.7467 72.6947 52.2287C67.1724 58.8069 57.9308 69.8163 62.3382 80.681C66.747 91.5471 80.2773 93.0337 91.3375 94.0545C111.087 95.8776 122.038 101.261 126.851 111.443C129.513 117.074 128.917 122.109 128.007 127.198C127.921 127.681 127.668 128.118 127.292 128.433C126.916 128.748 126.441 128.921 125.951 128.922L125.952 128.922Z" stroke="#442D7C" stroke-width="0.25" stroke-linecap="round" stroke-linejoin="round"/>
<path d="M78.9478 58.0417L88.3908 54.2105C86.3178 53.4926 84.0171 52.9202 81.491 52.4949L77.3747 54.165C74.8367 55.1948 76.3576 59.0947 78.9478 58.0417Z" fill="#F85ACA"/>
<path d="M82.4957 66.779L98.2162 60.4008C97.223 59.2605 96.0528 58.2292 94.7088 57.3083L80.9226 62.9022C80.668 63.0055 80.4362 63.1579 80.2405 63.3507C80.0448 63.5436 79.889 63.7731 79.7821 64.0262C79.6751 64.2793 79.6191 64.551 79.6172 64.8258C79.6154 65.1006 79.6677 65.373 79.7711 65.6275C79.8744 65.8821 80.0268 66.1138 80.2196 66.3094C80.4124 66.5051 80.6418 66.6608 80.8949 66.7678C81.1479 66.8747 81.4195 66.9307 81.6942 66.9326C81.9688 66.9346 82.2412 66.8824 82.4957 66.779Z" fill="#F85ACA"/>
<path d="M86.662 77.0582L102.214 70.7479C102.186 69.3086 101.966 67.8795 101.559 66.4988L85.0889 73.1814C84.5747 73.3901 84.1644 73.7944 83.9484 74.3055C83.7323 74.8166 83.7281 75.3926 83.9367 75.9068C84.1453 76.4209 84.5496 76.8312 85.0607 77.0473C85.5718 77.2634 86.1478 77.2676 86.662 77.059V77.0582Z" fill="#F85ACA"/>
<path d="M88.7975 82.3088C88.2834 82.5174 87.8733 82.9217 87.6573 83.4328C87.4412 83.9438 87.4371 84.5197 87.6457 85.0338C87.8543 85.5479 88.2586 85.958 88.7696 86.174C89.2806 86.3901 89.8565 86.3942 90.3706 86.1856L98.6749 82.8163C99.6779 81.0492 100.544 79.197 101.169 77.2888L88.7975 82.3088Z" fill="#F85ACA"/>
<path d="M78.9478 58.0417L88.3908 54.2105C86.3178 53.4926 84.0171 52.9202 81.491 52.4949L77.3747 54.165C74.8367 55.1948 76.3576 59.0947 78.9478 58.0417Z" stroke="#442D7C" stroke-width="0.25" stroke-linecap="round" stroke-linejoin="round"/>
<path d="M82.4957 66.779L98.2162 60.4008C97.223 59.2605 96.0528 58.2292 94.7088 57.3083L80.9226 62.9022C80.668 63.0055 80.4362 63.1579 80.2405 63.3507C80.0448 63.5436 79.889 63.7731 79.7821 64.0262C79.6751 64.2793 79.6191 64.551 79.6172 64.8258C79.6154 65.1006 79.6677 65.373 79.7711 65.6275C79.8744 65.8821 80.0268 66.1138 80.2196 66.3094C80.4124 66.5051 80.6418 66.6608 80.8949 66.7678C81.1479 66.8747 81.4195 66.9307 81.6942 66.9326C81.9688 66.9346 82.2412 66.8824 82.4957 66.779Z" stroke="#442D7C" stroke-width="0.25" stroke-linecap="round" stroke-linejoin="round"/>
<path d="M86.662 77.0582L102.214 70.7479C102.186 69.3086 101.966 67.8795 101.559 66.4988L85.0889 73.1814C84.5747 73.3901 84.1644 73.7944 83.9484 74.3055C83.7323 74.8166 83.7281 75.3926 83.9367 75.9068C84.1453 76.4209 84.5496 76.8312 85.0607 77.0473C85.5718 77.2634 86.1478 77.2676 86.662 77.059V77.0582Z" stroke="#442D7C" stroke-width="0.25" stroke-linecap="round" stroke-linejoin="round"/>
<path d="M88.7975 82.3088C88.2834 82.5174 87.8733 82.9217 87.6573 83.4328C87.4412 83.9438 87.4371 84.5197 87.6457 85.0338C87.8543 85.5479 88.2586 85.958 88.7696 86.174C89.2806 86.3901 89.8565 86.3942 90.3706 86.1856L98.6749 82.8163C99.6779 81.0492 100.544 79.197 101.169 77.2888L88.7975 82.3088Z" stroke="#442D7C" stroke-width="0.25" stroke-linecap="round" stroke-linejoin="round"/>
<path d="M86.2709 141.495C85.9683 141.495 85.6692 141.43 85.3943 141.303C85.1195 141.176 84.8755 140.991 84.6792 140.761C66.9886 120.036 82.2471 102.955 89.5805 94.7451C95.2453 88.4034 105.759 76.6336 101.032 64.9816C96.6244 54.1192 82.6583 51.9193 70.94 51.5797C59.9507 51.2618 41.5571 50.7469 35.8655 22.4685C35.8112 22.1992 35.8105 21.9218 35.8634 21.6523C35.9164 21.3827 36.0219 21.1262 36.174 20.8974C36.3261 20.6686 36.5219 20.4721 36.75 20.319C36.9781 20.1659 37.2341 20.0592 37.5035 20.0051C37.7728 19.9506 38.0503 19.9498 38.3199 20.0026C38.5896 20.0555 38.8461 20.161 39.075 20.3132C39.3038 20.4653 39.5003 20.6611 39.6534 20.8893C39.8064 21.1176 39.913 21.3737 39.9669 21.6432C45.0018 46.659 60.0626 47.0791 71.0586 47.397C84.7672 47.794 99.7519 50.6999 104.909 63.4078C110.617 77.4753 98.5281 91.0093 92.7178 97.5137C85.656 105.419 72.5437 120.098 87.8619 138.043C89.0313 139.413 88.0313 141.494 86.2717 141.494L86.2709 141.495Z" fill="#F85ACA"/>
<path d="M86.2709 141.495C85.9683 141.495 85.6692 141.43 85.3943 141.303C85.1195 141.176 84.8755 140.991 84.6792 140.761C66.9886 120.036 82.2471 102.955 89.5805 94.7451C95.2453 88.4034 105.759 76.6336 101.032 64.9816C96.6244 54.1192 82.6583 51.9193 70.94 51.5797C59.9507 51.2618 41.5571 50.7469 35.8655 22.4685C35.8112 22.1992 35.8105 21.9218 35.8634 21.6523C35.9164 21.3827 36.0219 21.1262 36.174 20.8974C36.3261 20.6686 36.5219 20.4721 36.75 20.319C36.9781 20.1659 37.2341 20.0592 37.5035 20.0051C37.7728 19.9506 38.0503 19.9498 38.3199 20.0026C38.5896 20.0555 38.8461 20.161 39.075 20.3132C39.3038 20.4653 39.5003 20.6611 39.6534 20.8893C39.8064 21.1176 39.913 21.3737 39.9669 21.6432C45.0018 46.659 60.0626 47.0791 71.0586 47.397C84.7672 47.794 99.7519 50.6999 104.909 63.4078C110.617 77.4754 98.5281 91.0093 92.7178 97.5137C85.656 105.419 72.5437 120.098 87.8619 138.043C89.0313 139.413 88.0313 141.494 86.2717 141.494L86.2709 141.495Z" stroke="#442D7C" stroke-width="0.25" stroke-linecap="round" stroke-linejoin="round"/>
<path d="M23.2412 76.8821H30.9119" stroke="#442D7C" stroke-width="0.25" stroke-linecap="round" stroke-linejoin="round"/>
<path d="M27.0791 80.7173V73.0466" stroke="#442D7C" stroke-width="0.25" stroke-linecap="round" stroke-linejoin="round"/>
<path d="M12.7764 96.1387H16.9606" stroke="#442D7C" stroke-width="0.25" stroke-linecap="round" stroke-linejoin="round"/>
<path d="M14.8682 98.2282V94.0439" stroke="#442D7C" stroke-width="0.25" stroke-linecap="round" stroke-linejoin="round"/>
<path d="M128.769 93.4258L134.192 98.8495" stroke="#442D7C" stroke-width="0.25" stroke-linecap="round" stroke-linejoin="round"/>
<path d="M128.769 98.8495L134.192 93.4258" stroke="#442D7C" stroke-width="0.25" stroke-linecap="round" stroke-linejoin="round"/>
<path d="M39.6709 124.076L42.4372 126.843" stroke="#442D7C" stroke-width="0.25" stroke-linecap="round" stroke-linejoin="round"/>
<path d="M39.6709 126.843L42.4372 124.076" stroke="#442D7C" stroke-width="0.25" stroke-linecap="round" stroke-linejoin="round"/>
<path d="M130.828 45.4416L133.2 49.3534L135.988 43.5095" stroke="#442D7C" stroke-width="0.25" stroke-linecap="round" stroke-linejoin="round"/>
</svg>
