<svg width="150" height="150" viewBox="0 0 150 150" fill="none" xmlns="http://www.w3.org/2000/svg">
<path d="M35.3418 103.732L43.6871 142.65H108.542L85.6734 111.978" stroke="#442D7C" stroke-width="0.25" stroke-linecap="round" stroke-linejoin="round"/>
<path d="M37.8451 47.5676C34.2086 46.9094 27.2983 45.7848 23.0954 45.9057C20.7805 45.7398 18.4892 46.4614 16.6872 47.9241C14.8853 49.3868 13.7079 51.4807 13.3943 53.7804C13.0807 56.0799 13.6545 58.4126 14.9991 60.3045C16.3436 62.1962 18.3579 63.5051 20.6328 63.965L32.4303 96.715" stroke="#442D7C" stroke-width="0.25" stroke-linecap="round" stroke-linejoin="round"/>
<path d="M100.572 131.957H52.165L46.1055 105.062" stroke="#442D7C" stroke-width="0.25" stroke-linecap="round" stroke-linejoin="round"/>
<path d="M31.5626 55.0142C31.5626 56.8203 31.027 58.5858 30.0236 60.0876C29.0201 61.5892 27.594 62.7597 25.9253 63.4509C24.2566 64.1421 22.4206 64.3229 20.6492 63.9705C18.8777 63.6182 17.2506 62.7485 15.9735 61.4713C14.6964 60.1942 13.8267 58.5671 13.4743 56.7957C13.1219 55.0243 13.3028 53.1882 13.994 51.5196C14.6851 49.8509 15.8556 48.4247 17.3573 47.4213C18.859 46.4178 20.6246 45.8823 22.4307 45.8823C24.8526 45.8823 27.1754 46.8444 28.8879 48.557C30.6004 50.2695 31.5626 52.5922 31.5626 55.0142Z" stroke="#442D7C" stroke-width="0.25" stroke-linecap="round" stroke-linejoin="round"/>
<path d="M30.7206 58.8374C30.7206 58.8374 30.4744 68.826 31.7333 73.3967" stroke="#442D7C" stroke-width="0.25" stroke-linecap="round" stroke-linejoin="round"/>
<path d="M93.4749 110.032L116.676 133.389C119.079 132.552 121.395 131.483 123.591 130.198C118.535 123.746 97.4382 97.182 91.2727 95.1626H70.3672C70.3672 91.7851 70.3112 92.4314 70.5366 91.7299L67.3635 91.2075C64.9402 93.8283 62.1067 96.038 58.9742 97.7499H71.2194C72.9783 97.7499 74.6652 98.4484 75.9089 99.6924C77.1529 100.936 77.8514 102.623 77.8514 104.382L46.6387 105.053C48.3103 106.546 52.9669 111.57 64.7576 110.053C73.2328 108.964 76.5022 105.077 82.3132 109.139C86.2064 111.861 100.096 126.178 109.315 135.516C111.539 135.015 113.736 134.396 115.896 133.662L92.9458 110.559C92.9062 110.525 92.8742 110.483 92.8518 110.437C92.8294 110.391 92.8167 110.34 92.8152 110.288C92.813 110.236 92.8219 110.185 92.8413 110.137C92.86 110.089 92.8891 110.045 92.9257 110.009C92.9622 109.973 93.0062 109.944 93.0548 109.926C93.1033 109.908 93.1548 109.9 93.2062 109.902C93.2577 109.904 93.3085 109.918 93.3547 109.941C93.401 109.964 93.4421 109.997 93.4749 110.036V110.032Z" fill="#764ED7"/>
<path d="M70.5363 91.7292L67.3633 91.2046" stroke="#442D7C" stroke-width="0.25" stroke-linecap="round" stroke-linejoin="round"/>
<path d="M46.6387 105.051C48.3103 106.544 52.9669 111.568 64.7576 110.051C73.2328 108.962 76.5022 105.074 82.3132 109.137C86.2064 111.858 100.096 126.175 109.315 135.514C112.455 134.806 118.718 133.135 123.591 130.195C118.535 123.743 97.4382 97.179 91.2727 95.1597" stroke="#442D7C" stroke-width="0.25" stroke-linecap="round" stroke-linejoin="round"/>
<path d="M142.833 141.492C137.923 138.538 128.505 133.595 125.577 132.067C124.77 131.616 124.086 130.973 123.587 130.196C118.715 133.136 112.451 134.808 109.311 135.515C111.566 137.801 113.541 139.785 115.022 141.231C120.028 141.375 133.212 141.707 142.833 141.492Z" fill="#FECFC4"/>
<path d="M142.833 141.492C137.923 138.538 128.505 133.595 125.577 132.067C124.77 131.616 124.086 130.973 123.587 130.196C118.715 133.136 112.451 134.808 109.311 135.515C111.566 137.801 113.541 139.785 115.022 141.231C120.028 141.375 133.212 141.707 142.833 141.492Z" stroke="#442D7C" stroke-width="0.25" stroke-linecap="round" stroke-linejoin="round"/>
<path d="M142.84 141.491C133.219 141.706 120.035 141.375 115.029 141.229C115.876 142.135 116.799 142.965 117.79 143.71C119.364 144.315 145.764 144.054 145.879 143.71C145.958 143.473 144.734 142.629 142.84 141.491Z" stroke="#442D7C" stroke-width="0.25" stroke-linecap="round" stroke-linejoin="round"/>
<path d="M72.331 86.1732L70.3691 92.2514H108.87L97.646 81.2905" stroke="#442D7C" stroke-width="0.25" stroke-linecap="round" stroke-linejoin="round"/>
<path d="M108.87 92.2505H70.3691V95.1564H108.87V92.2505Z" stroke="#442D7C" stroke-width="0.25" stroke-linecap="round" stroke-linejoin="round"/>
<path d="M80.2161 79.3646L87.9928 79.3481L92.624 89.0748H73.6797L73.9357 85.8099" stroke="#442D7C" stroke-width="0.25" stroke-linecap="round" stroke-linejoin="round"/>
<path d="M93.7552 65.9565L87.9941 79.3482L92.6254 89.0748L100.798 69.4199L93.7552 65.9565ZM90.0605 78.581L93.7552 70.3721L97.2551 72.5109L92.703 82.7212L90.0605 78.581Z" fill="#FECFC4"/>
<path d="M87.9941 79.3482L92.6254 89.0748L100.798 69.4199L93.7552 65.9565L87.9941 79.3482Z" stroke="#442D7C" stroke-width="0.25" stroke-linecap="round" stroke-linejoin="round"/>
<path d="M92.623 89.0742H93.232C93.576 89.0742 93.9126 88.972 94.1991 88.7817C94.4857 88.5907 94.7088 88.319 94.8416 88.0019L101.788 71.3798C101.887 71.1442 101.909 70.8834 101.85 70.6348C101.791 70.3861 101.656 70.1623 101.462 69.9955L100.795 69.4194L92.623 89.0742Z" stroke="#442D7C" stroke-width="0.25" stroke-linecap="round" stroke-linejoin="round"/>
<path d="M93.0215 67.6616L99.8512 71.6959" stroke="#442D7C" stroke-width="0.25" stroke-linecap="round" stroke-linejoin="round"/>
<path d="M90.0625 78.5819L92.708 82.7177L97.2571 72.5074L93.7572 70.3687L90.0625 78.5819Z" stroke="#442D7C" stroke-width="0.25" stroke-linecap="round" stroke-linejoin="round"/>
<path d="M92.9277 72.2026L96.3411 74.5533" stroke="#442D7C" stroke-width="0.25" stroke-linecap="round" stroke-linejoin="round"/>
<path d="M92.624 89.0747H73.6797C73.705 89.5538 73.9189 90.003 74.2747 90.3247C74.6304 90.6463 75.0991 90.8142 75.5781 90.7911H92.624V89.0747Z" stroke="#442D7C" stroke-width="0.25" stroke-linecap="round" stroke-linejoin="round"/>
<path d="M85.0669 82.8389L84.3423 80.7808H82.0469" stroke="#442D7C" stroke-width="0.25" stroke-linecap="round" stroke-linejoin="round"/>
<path d="M81.2324 81.3901L81.3667 82.264" stroke="#442D7C" stroke-width="0.25" stroke-linecap="round" stroke-linejoin="round"/>
<path d="M81.5547 83.4978L81.8114 85.1687H85.8859L85.0658 82.8374H81.8502" stroke="#442D7C" stroke-width="0.25" stroke-linecap="round" stroke-linejoin="round"/>
<path d="M87.6161 82.8389L86.687 80.7808H84.3438L85.0684 82.8389H87.6161Z" fill="#764ED7"/>
<path d="M87.6161 82.8389L86.687 80.7808H84.3438L85.0684 82.8389H87.6161Z" stroke="#442D7C" stroke-width="0.25" stroke-linecap="round" stroke-linejoin="round"/>
<path d="M75.972 86.2417L75.9414 87.3499H82.1495" stroke="#442D7C" stroke-width="0.25" stroke-linecap="round" stroke-linejoin="round"/>
<path d="M85.0645 82.8374L85.8846 85.1687H88.6651L87.6122 82.8374H85.0645Z" stroke="#442D7C" stroke-width="0.25" stroke-linecap="round" stroke-linejoin="round"/>
<path d="M86.6578 87.348H89.6555L88.6712 85.1689H85.8906L86.6578 87.348Z" stroke="#442D7C" stroke-width="0.25" stroke-linecap="round" stroke-linejoin="round"/>
<path d="M81.8125 85.1694L82.1483 87.3485H86.6542L85.887 85.1694H81.8125Z" stroke="#442D7C" stroke-width="0.25" stroke-linecap="round" stroke-linejoin="round"/>
<path d="M4.09375 29.2944H140.664" stroke="#442D7C" stroke-width="0.25" stroke-linecap="round" stroke-linejoin="round"/>
<path d="M9.01904 21.3027H30.4491" stroke="#442D7C" stroke-width="0.25" stroke-linecap="round" stroke-linejoin="round"/>
<path d="M61.6655 21.3027H83.0956" stroke="#442D7C" stroke-width="0.25" stroke-linecap="round" stroke-linejoin="round"/>
<path d="M114.306 21.3027H135.735" stroke="#442D7C" stroke-width="0.25" stroke-linecap="round" stroke-linejoin="round"/>
<path d="M44.9546 5.92773V29.295" stroke="#442D7C" stroke-width="0.25" stroke-linecap="round" stroke-linejoin="round"/>
<path d="M99.7983 5.92773V29.295" stroke="#442D7C" stroke-width="0.25" stroke-linecap="round" stroke-linejoin="round"/>
<path d="M75.4842 42.3696H71.1074C70.0071 42.3696 68.9174 42.5863 67.9008 43.0075C66.8842 43.4286 65.9605 44.0459 65.1824 44.824C64.4044 45.6022 63.7871 46.5259 63.3661 47.5426C62.9451 48.5593 62.7284 49.6488 62.7285 50.7493V61.2878L68.1948 54.8805L73.8603 62.6296L78.6879 56.717L83.8631 62.0415V50.7493C83.8631 49.6488 83.6467 48.5593 83.2258 47.5426C82.8042 46.5259 82.1871 45.6022 81.4095 44.824C80.6311 44.0459 79.7073 43.4286 78.6909 43.0075C77.6745 42.5863 76.585 42.3696 75.4842 42.3696ZM77.232 53.4276C76.7051 53.4276 76.1902 53.2714 75.7521 52.9787C75.3141 52.686 74.9728 52.2701 74.7713 51.7834C74.5697 51.2967 74.517 50.7612 74.6197 50.2446C74.7225 49.7279 74.9761 49.2533 75.3484 48.8809C75.7208 48.5084 76.1954 48.2548 76.7126 48.152C77.229 48.0492 77.7648 48.1019 78.2513 48.3036C78.7379 48.5051 79.1536 48.8465 79.4461 49.2845C79.7394 49.7225 79.8953 50.2374 79.8953 50.7642C79.8953 51.114 79.8267 51.4603 79.6923 51.7834C79.5588 52.1066 79.3625 52.4001 79.1155 52.6474C78.8677 52.8948 78.5745 53.0909 78.2513 53.2248C77.9282 53.3587 77.582 53.4276 77.232 53.4276Z" fill="#FECFC4"/>
<path d="M75.4842 42.3696H71.1074C70.0071 42.3696 68.9175 42.5863 67.9008 43.0075C66.8842 43.4286 65.9605 44.0459 65.1824 44.824C64.4044 45.6022 63.7871 46.5259 63.3661 47.5426C62.9451 48.5593 62.7284 49.6488 62.7285 50.7493V61.2878L68.1948 54.8805L73.8603 62.6296L78.6879 56.717L83.8631 62.0415V50.7493C83.8631 49.6488 83.6467 48.5593 83.2258 47.5426C82.8042 46.5259 82.1871 45.6022 81.4095 44.824C80.6311 44.0459 79.7073 43.4286 78.6909 43.0075C77.6745 42.5863 76.585 42.3696 75.4842 42.3696Z" stroke="#442D7C" stroke-width="0.25" stroke-linecap="round" stroke-linejoin="round"/>
<path d="M78.6879 56.7173L73.8603 62.6299L68.1948 54.8823L62.7285 61.2896V62.6873C62.7287 64.9095 63.6116 67.0405 65.1829 68.6117C66.7542 70.1828 68.8854 71.0655 71.1074 71.0655H75.4842C77.7066 71.0655 79.8371 70.1828 81.4087 68.6117C82.9803 67.0405 83.8631 64.9095 83.8631 62.6873V62.0441L78.6879 56.7173Z" stroke="#442D7C" stroke-width="0.25" stroke-linecap="round" stroke-linejoin="round"/>
<path d="M77.2337 53.4298C77.7605 53.4298 78.2754 53.2735 78.7135 52.9809C79.1515 52.6883 79.4926 52.2723 79.6941 51.7857C79.8956 51.299 79.9485 50.7635 79.8455 50.2468C79.7433 49.7302 79.4896 49.2556 79.1172 48.8831C78.7448 48.5107 78.2702 48.257 77.7531 48.1542C77.2367 48.0514 76.7009 48.1042 76.2143 48.3058C75.7277 48.5074 75.3121 48.8487 75.0196 49.2867C74.7265 49.7247 74.5703 50.2397 74.5703 50.7664C74.5703 51.1161 74.6392 51.4625 74.7731 51.7857C74.9069 52.1088 75.1031 52.4024 75.3501 52.6497C75.5979 52.897 75.8912 53.0932 76.2143 53.2271C76.5374 53.3609 76.8837 53.4298 77.2337 53.4298Z" stroke="#442D7C" stroke-width="0.25" stroke-linecap="round" stroke-linejoin="round"/>
<path d="M75.4826 72.0897H71.1059C68.6132 72.0862 66.2236 71.0944 64.461 69.3318C62.6985 67.5693 61.7067 65.1797 61.7031 62.687V50.747C61.7067 48.2543 62.6985 45.8647 64.461 44.1022C66.2236 42.3396 68.6132 41.3478 71.1059 41.3442H75.4826C77.9751 41.3478 80.3646 42.3396 82.1272 44.1022C83.8899 45.8647 84.8817 48.2543 84.8854 50.747V62.687C84.8817 65.1797 83.8899 67.5693 82.1272 69.3318C80.3646 71.0944 77.9751 72.0862 75.4826 72.0897ZM71.1059 43.3972C69.157 43.3993 67.2884 44.1743 65.9101 45.5521C64.5317 46.9299 63.7561 48.7981 63.7531 50.747V62.687C63.7552 64.6365 64.5306 66.5055 65.909 67.8841C67.2875 69.2626 69.1564 70.0381 71.1059 70.0405H75.4826C77.4318 70.0381 79.3012 69.2626 80.6795 67.8841C82.0586 66.5056 82.8339 64.6366 82.8362 62.687V50.747C82.8339 48.7975 82.0586 46.9286 80.6795 45.5501C79.3012 44.1717 77.4318 43.3964 75.4826 43.3942L71.1059 43.3972Z" fill="#764ED7"/>
<path d="M75.4826 72.0897H71.1059C68.6132 72.0862 66.2236 71.0944 64.461 69.3318C62.6985 67.5693 61.7067 65.1797 61.7031 62.687V50.747C61.7067 48.2543 62.6985 45.8647 64.461 44.1022C66.2236 42.3396 68.6132 41.3478 71.1059 41.3442H75.4826C77.9751 41.3478 80.3646 42.3396 82.1272 44.1022C83.8899 45.8647 84.8817 48.2543 84.8854 50.747V62.687C84.8817 65.1797 83.8899 67.5693 82.1272 69.3318C80.3646 71.0944 77.9751 72.0862 75.4826 72.0897ZM71.1059 43.3972C69.157 43.3993 67.2884 44.1743 65.9101 45.5521C64.5317 46.9299 63.7561 48.7981 63.7531 50.747V62.687C63.7552 64.6365 64.5306 66.5055 65.909 67.8841C67.2875 69.2626 69.1564 70.0381 71.1059 70.0405H75.4826C77.4318 70.0381 79.3012 69.2626 80.6795 67.8841C82.0586 66.5055 82.8339 64.6366 82.8362 62.687V50.747C82.8339 48.7975 82.0586 46.9286 80.6795 45.5501C79.3012 44.1717 77.4318 43.3964 75.4826 43.3942L71.1059 43.3972Z" stroke="#442D7C" stroke-width="0.25" stroke-miterlimit="10"/>
<path d="M42.9375 97.7469H40.407L38.4526 95.9111C37.7423 95.2439 36.8072 94.8678 35.8326 94.8581C34.8581 94.8477 33.9155 95.2044 33.1915 95.8566C32.2257 96.7267 31.643 97.9431 31.5702 99.2409C31.4975 100.539 31.9409 101.812 32.8035 102.785L39.3011 105.208L77.8494 104.379C77.8494 102.62 77.1509 100.933 75.9069 99.6894C74.6632 98.4461 72.9763 97.7469 71.2174 97.7469H58.9722" stroke="#442D7C" stroke-width="0.25" stroke-linecap="round" stroke-linejoin="round"/>
<path d="M35.858 101.064C36.8129 101.064 37.587 100.29 37.587 99.335C37.587 98.3806 36.8129 97.606 35.858 97.606C34.903 97.606 34.1289 98.3806 34.1289 99.335C34.1289 100.29 34.903 101.064 35.858 101.064Z" fill="#764ED7"/>
<path d="M41.471 48.3077C41.48 46.3587 41.8961 44.4331 42.6926 42.6541C42.0797 42.615 41.4653 42.7023 40.8877 42.9106C40.3099 43.119 39.7813 43.444 39.3345 43.8653C38.4284 44.963 37.9051 46.3263 37.8439 47.7483C37.7827 49.1704 38.1871 50.5736 38.9957 51.745C39.0062 50.9874 39.2493 50.2513 39.692 49.6365C40.1348 49.0217 40.7558 48.5579 41.471 48.3077Z" fill="#764ED7"/>
<path d="M41.471 48.3077C41.48 46.3587 41.8961 44.4331 42.6926 42.6541C42.0797 42.615 41.4653 42.7023 40.8877 42.9106C40.3099 43.119 39.7813 43.444 39.3345 43.8653C38.4284 44.963 37.9051 46.3263 37.8439 47.7483C37.7827 49.1704 38.1871 50.5736 38.9957 51.745C39.0062 50.9874 39.2493 50.2513 39.692 49.6365C40.1348 49.0217 40.7558 48.5579 41.471 48.3077Z" stroke="#442D7C" stroke-width="0.25" stroke-linecap="round" stroke-linejoin="round"/>
<path d="M43.1699 48.1342C43.1977 46.2558 43.6065 44.4024 44.3714 42.6866C43.9811 42.7381 43.4013 42.6582 42.6923 42.6567C41.8958 44.4356 41.4797 46.3613 41.4707 48.3103C42.0156 48.1199 42.5975 48.0596 43.1699 48.1342Z" stroke="#442D7C" stroke-width="0.25" stroke-linecap="round" stroke-linejoin="round"/>
<path d="M48.7743 41.0798C45.9848 41.5902 45.2982 42.5581 44.3714 42.6827C43.6066 44.3986 43.1978 46.2519 43.1699 48.1303C43.6794 48.1978 44.1691 48.3708 44.6079 48.6382C45.0467 48.9055 45.4249 49.2615 45.7184 49.6833C46.1833 49.0173 46.522 48.2716 46.7176 47.4833C46.7176 47.4833 48.1302 47.5184 49.8459 47.3736C50.4842 47.3283 51.0993 47.1153 51.6289 46.756C52.1584 46.3966 52.5836 45.9038 52.8615 45.3274C53.8846 43.1088 52.251 40.4425 48.7743 41.0798Z" fill="#764ED7"/>
<path d="M48.7743 41.0798C45.9848 41.5902 45.2982 42.5581 44.3714 42.6827C43.6066 44.3986 43.1978 46.2519 43.1699 48.1303C43.6794 48.1978 44.1691 48.3708 44.6079 48.6382C45.0467 48.9055 45.4249 49.2615 45.7184 49.6833C46.1833 49.0173 46.522 48.2716 46.7176 47.4833C46.7176 47.4833 48.1302 47.5184 49.8459 47.3736C50.4842 47.3283 51.0993 47.1153 51.6289 46.756C52.1584 46.3966 52.5836 45.9038 52.8615 45.3274C53.8846 43.1088 52.251 40.4425 48.7743 41.0798Z" stroke="#442D7C" stroke-width="0.25" stroke-linecap="round" stroke-linejoin="round"/>
<path d="M81.7591 81.6031C81.8523 81.6135 81.9471 81.5934 82.0285 81.5456C82.1105 81.4986 82.1747 81.427 82.212 81.3404C82.2501 81.2538 82.259 81.1576 82.2382 81.0658C82.218 80.974 82.168 80.8912 82.0971 80.8292C80.7434 79.6151 79.2017 78.6285 77.5323 77.9077C77.5323 77.9077 75.6249 73.9727 67.9975 74.8204C66.353 75.5823 64.7825 76.4935 63.3058 77.5442C61.9759 78.5226 60.5574 79.374 59.0686 80.0874C59.0686 80.0874 53.7053 69.09 46.3823 62.1886L47.1152 58.8992C50.5942 59.4648 50.977 57.3194 50.9262 53.8038C50.8904 51.6284 50.6232 49.4631 50.1293 47.3442C48.9969 47.4582 47.8589 47.5062 46.7211 47.4883C46.5252 48.2765 46.1865 49.0221 45.7219 49.6882C46.1582 50.322 46.386 51.076 46.3736 51.8453C46.3612 52.6147 46.1092 53.361 45.6528 53.9804C45.1963 54.5998 44.5581 55.0614 43.8269 55.3011C43.0957 55.5406 42.308 55.5463 41.5735 55.3172C40.6926 57.1726 39.4195 58.8148 37.8423 60.1305C31.2648 65.1587 30.8469 73.5839 32.6752 81.0538C34.0011 86.2918 36.5753 91.1312 40.178 95.158C41.8094 96.9191 43.6692 98.4534 45.7077 99.7213C46.5702 100.268 47.5364 100.631 48.5457 100.788C49.555 100.944 50.5857 100.89 51.5733 100.629C55.4279 99.6467 59.0692 97.9631 62.3155 95.6639C65.2923 93.5267 67.1781 91.3357 72.3832 86.1179C72.3832 86.1179 74.4727 85.3508 75.8906 86.1977C76.557 86.641 77.2801 86.9918 78.0398 87.2425C78.139 87.2679 78.2442 87.2604 78.339 87.2209C78.4338 87.1813 78.5136 87.1119 78.5651 87.0231C78.6173 86.935 78.6397 86.8321 78.6285 86.7298C78.6166 86.6276 78.5726 86.5321 78.5024 86.4574C77.7039 85.6194 76.2995 84.2448 75.5279 84.0784C74.4085 83.8359 72.9451 83.5732 72.9451 83.5732C72.9451 83.5732 75.7898 83.9165 76.2137 83.9165C76.6264 83.9165 79.2039 86.038 80.4188 85.9313C80.5248 85.9224 80.6255 85.8828 80.7091 85.8172C80.7927 85.7522 80.8561 85.6634 80.8904 85.5634C80.9255 85.4634 80.93 85.3545 80.9046 85.2515C80.8785 85.1485 80.824 85.0552 80.7464 84.9829C79.7293 84.0321 77.5428 82.059 76.7786 81.9367C75.7697 81.7755 73.2854 81.3516 73.2854 81.3516C73.9705 81.38 74.655 81.4113 75.3391 81.4464C76.3353 81.4971 77.4569 81.2635 78.345 81.8247C79.233 82.3859 80.1778 83.4769 81.2785 83.5508C81.3926 83.553 81.5046 83.5209 81.6001 83.4583C81.6956 83.3963 81.7703 83.3068 81.8143 83.2008C81.8576 83.0956 81.8688 82.9799 81.8456 82.868C81.8225 82.756 81.7665 82.6538 81.6844 82.5747C80.7315 81.6531 78.586 79.6307 77.9495 79.4755C77.6756 79.4233 77.398 79.3934 77.1189 79.3867C78.0032 79.3867 78.1681 79.3464 78.4509 79.5531C78.9427 79.9113 81.1613 81.5262 81.7591 81.6031Z" stroke="#442D7C" stroke-width="0.25" stroke-linecap="round" stroke-linejoin="round"/>
<path d="M77.5303 77.9047C77.5303 77.9047 70.8139 77.4808 69.4782 77.9047C67.858 78.5621 66.3938 79.5516 65.1805 80.8106C62.3119 83.8597 52.8674 90.8536 51.3749 89.8305C49.304 88.4126 47.2481 85.0246 46.2675 82.7411C44.9771 79.4069 44.0716 75.9361 43.5684 72.396" stroke="#442D7C" stroke-width="0.25" stroke-linecap="round" stroke-linejoin="round"/>
<path d="M39.332 58.8374C39.332 58.8374 41.5521 63.6373 46.3789 62.1873" stroke="#442D7C" stroke-width="0.25" stroke-linecap="round" stroke-linejoin="round"/>
<path d="M33.9355 85.0154C33.9355 85.0154 42.3794 82.8095 45.3345 80.2065" stroke="#442D7C" stroke-width="0.25" stroke-linecap="round" stroke-linejoin="round"/>
<path d="M35.8574 89.0521C35.8574 89.0521 44.2706 86.7447 46.9019 84.0649" stroke="#442D7C" stroke-width="0.25" stroke-linecap="round" stroke-linejoin="round"/>
<path d="M59.0664 80.0864C59.8187 81.5021 60.4507 82.9789 60.9559 84.5005" stroke="#442D7C" stroke-width="0.25" stroke-linecap="round" stroke-linejoin="round"/>
<path d="M43.0473 55.4704C45.0768 55.2702 46.5597 53.4628 46.3595 51.4334C46.1594 49.4039 44.3519 47.921 42.3224 48.1211C40.293 48.3213 38.8101 50.1288 39.0103 52.1582C39.2104 54.1876 41.0179 55.6706 43.0473 55.4704Z" stroke="#442D7C" stroke-width="0.25" stroke-linecap="round" stroke-linejoin="round"/>
<path d="M42.6836 55.4858C42.6836 55.4858 43.2642 69.9138 49.5603 74.8174C55.8564 79.721 60.5473 83.3067 60.5473 83.3067" stroke="#442D7C" stroke-width="0.25" stroke-linecap="round" stroke-linejoin="round"/>
<path d="M47.1119 58.8971L45.25 58.1255L46.4515 61.862L47.1119 58.8971Z" fill="#764ED7"/>
<path d="M47.1119 58.8971L45.25 58.1255L46.4515 61.862L47.1119 58.8971Z" stroke="#442D7C" stroke-width="0.25" stroke-linecap="round" stroke-linejoin="round"/>
</svg>
