<svg width="144" height="142" viewBox="0 0 144 142" fill="none" xmlns="http://www.w3.org/2000/svg">
<path d="M60.5873 108.916C60.0952 110.425 59.6964 111.963 59.3933 113.521C58.8172 116.748 58.1583 119.566 57.6023 119.732C55.6166 120.329 55.6912 112.045 53.9069 108.687C53.3919 107.794 53.0996 106.789 53.0547 105.759" stroke="#442D7C" stroke-width="0.25" stroke-linecap="round" stroke-linejoin="round"/>
<path d="M109.776 55.438C109.493 54.9791 109.112 54.5881 108.66 54.2928C108.209 53.9974 107.698 53.8049 107.164 53.729C106.63 53.653 106.086 53.6954 105.57 53.8531C105.054 54.0109 104.579 54.2801 104.179 54.6418C104.02 54.1021 103.74 53.6062 103.358 53.1924C102.977 52.7787 102.506 52.4583 101.981 52.256C101.225 51.9643 100.393 51.9318 99.6164 52.1637C98.8398 52.3956 98.1622 52.8788 97.6898 53.5373C97.4041 53.9323 97.1994 54.38 97.0876 54.8545C96.6465 54.5221 96.136 54.2937 95.5943 54.1862C95.0526 54.0787 94.4936 54.095 93.959 54.2337C93.4244 54.3725 92.9281 54.6302 92.507 54.9876C92.086 55.3449 91.7511 55.7928 91.5273 56.2977C91.2284 56.9733 91.1405 57.7235 91.275 58.4499C90.7955 58.3243 90.2956 58.2961 89.8049 58.367C89.3143 58.4379 88.8428 58.6064 88.4184 58.8626C87.9394 59.1566 87.5343 59.5567 87.2345 60.0321C86.9346 60.5074 86.7479 61.0453 86.6889 61.6042C86.6298 62.1631 86.7 62.7281 86.8939 63.2557C87.0878 63.7832 87.4002 64.2591 87.8072 64.6468C87.0558 64.9424 86.4228 65.4776 86.0064 66.1694C85.5899 66.8613 85.4132 67.6711 85.5035 68.4735C85.5625 69.0056 85.7379 69.5183 86.0162 69.9757C86.4053 70.6187 86.986 71.1235 87.6769 71.4192C88.3677 71.7149 89.1339 71.7866 89.8676 71.6242L109.707 59.4603C110.206 59.1596 110.813 57.1119 109.776 55.438Z" stroke="#442D7C" stroke-width="0.25" stroke-linecap="round" stroke-linejoin="round"/>
<path d="M94.7263 61.0781C95.0759 61.4082 95.3348 61.8226 95.478 62.2816C95.6213 62.7405 95.6441 63.2286 95.5443 63.6989C95.4445 64.1693 95.2254 64.606 94.908 64.9672C94.5907 65.3285 94.1858 65.602 93.7323 65.7616C93.1244 65.9748 92.4616 65.9722 91.8555 65.7541" stroke="#442D7C" stroke-width="0.25" stroke-linecap="round" stroke-linejoin="round"/>
<path d="M103.564 58.5791C103.485 59.1537 103.23 59.6899 102.835 60.1144C102.439 60.5388 101.923 60.8308 101.355 60.9505C100.787 61.0702 100.197 61.0118 99.6637 60.7831C99.1306 60.5545 98.6811 60.1668 98.3766 59.6731C98.2477 59.4598 98.1474 59.2305 98.0781 58.991" stroke="#442D7C" stroke-width="0.25" stroke-linecap="round" stroke-linejoin="round"/>
<path d="M104.178 54.6416C103.796 55.002 103.479 55.4253 103.24 55.8931" stroke="#442D7C" stroke-width="0.25" stroke-linecap="round" stroke-linejoin="round"/>
<path d="M89.1024 64.4067C88.6616 64.4289 88.2256 64.5097 87.8062 64.647" stroke="#442D7C" stroke-width="0.25" stroke-linecap="round" stroke-linejoin="round"/>
<path d="M97.0835 54.8555C96.9904 55.3186 96.975 55.794 97.038 56.2622" stroke="#442D7C" stroke-width="0.25" stroke-linecap="round" stroke-linejoin="round"/>
<path d="M92.6777 59.1091C92.2513 58.8073 91.7744 58.5842 91.2695 58.4502" stroke="#442D7C" stroke-width="0.25" stroke-linecap="round" stroke-linejoin="round"/>
<path d="M114.832 63.6506C113.778 61.9141 111.602 61.6044 111.223 61.8887L91.3687 74.0683C90.8008 74.4093 90.021 76.4727 91.0993 78.2174C91.3801 78.6732 91.757 79.0622 92.2038 79.3571C92.6506 79.652 93.1564 79.8458 93.6858 79.9248C94.2156 80.0033 94.7561 79.9646 95.2693 79.8115C95.7825 79.6583 96.2558 79.3943 96.6559 79.0383C96.8838 79.8211 97.3668 80.5054 98.0281 80.9823C98.6895 81.4591 99.4913 81.7013 100.306 81.6702C101.121 81.6392 101.902 81.3367 102.525 80.8109C103.148 80.2851 103.578 79.5661 103.745 78.7682C104.332 79.2173 105.041 79.4788 105.779 79.5183C106.517 79.5577 107.249 79.3733 107.881 78.9893C108.512 78.6052 109.013 78.0394 109.317 77.366C109.621 76.6926 109.715 75.9429 109.586 75.2153C110.374 75.4141 111.205 75.3461 111.949 75.0218C112.694 74.6976 113.31 74.1354 113.701 73.4235C114.091 72.711 114.234 71.8891 114.106 71.0868C113.979 70.2844 113.588 69.5472 112.997 68.9908C113.5 68.7994 113.956 68.4996 114.331 68.1126C114.706 67.7256 114.992 67.2609 115.167 66.7513C115.342 66.2415 115.403 65.6995 115.345 65.1637C115.287 64.6278 115.112 64.1113 114.832 63.6506Z" stroke="#442D7C" stroke-width="0.25" stroke-linecap="round" stroke-linejoin="round"/>
<path d="M102.966 74.5227C102.857 74.153 102.673 73.8097 102.425 73.5142C102.177 73.2187 101.871 72.9774 101.526 72.8053C101.181 72.6331 100.804 72.5339 100.419 72.5136C100.034 72.4934 99.6491 72.5527 99.2879 72.6877C98.8051 72.8686 98.3814 73.179 98.0633 73.5847C97.7522 73.9855 97.5513 74.4606 97.4805 74.963" stroke="#442D7C" stroke-width="0.25" stroke-linecap="round" stroke-linejoin="round"/>
<path d="M109.205 67.7909C108.597 67.5818 107.936 67.5869 107.332 67.8054C106.727 68.024 106.215 68.4428 105.882 68.9923C105.548 69.5418 105.412 70.1889 105.497 70.8261C105.582 71.4633 105.883 72.0523 106.349 72.4953" stroke="#442D7C" stroke-width="0.25" stroke-linecap="round" stroke-linejoin="round"/>
<path d="M113.001 68.9971C112.5 69.1821 111.971 69.2783 111.438 69.2814" stroke="#442D7C" stroke-width="0.25" stroke-linecap="round" stroke-linejoin="round"/>
<path d="M97.4467 78.0146C97.234 78.3937 96.9691 78.7408 96.6602 79.0467" stroke="#442D7C" stroke-width="0.25" stroke-linecap="round" stroke-linejoin="round"/>
<path d="M109.59 75.2207C109.133 75.0894 108.7 74.8842 108.309 74.6133" stroke="#442D7C" stroke-width="0.25" stroke-linecap="round" stroke-linejoin="round"/>
<path d="M103.79 77.25C103.858 77.7564 103.844 78.2703 103.75 78.7724" stroke="#442D7C" stroke-width="0.25" stroke-linecap="round" stroke-linejoin="round"/>
<path d="M91.371 74.0684L89.2539 75.3467" stroke="#442D7C" stroke-width="0.25" stroke-linecap="round" stroke-linejoin="round"/>
<path d="M89.8668 71.625L87.7773 72.8899" stroke="#442D7C" stroke-width="0.25" stroke-linecap="round" stroke-linejoin="round"/>
<path d="M78.8513 81.6709L56.2832 95.3706" stroke="#442D7C" stroke-width="0.25" stroke-linecap="round" stroke-linejoin="round"/>
<path d="M78.3963 78.5889L54.8477 92.9005" stroke="#442D7C" stroke-width="0.25" stroke-linecap="round" stroke-linejoin="round"/>
<path d="M98.4353 39.0505C103.49 38.5829 108.571 39.5855 113.069 41.9378C117.567 44.2901 121.29 47.8919 123.789 52.3099C131.338 65.2835 127.384 82.039 114.963 89.7291C107.194 94.5395 105.038 91.9962 89.9512 96.2961" stroke="#442D7C" stroke-width="0.25" stroke-linecap="round" stroke-linejoin="round"/>
<path d="M59.5586 109.445C66.4599 105.845 72.6277 102.699 78.9798 100.104" stroke="#442D7C" stroke-width="0.25" stroke-linecap="round" stroke-linejoin="round"/>
<path d="M60.348 71.0977C55.5593 74.9349 50.3147 78.6728 44.1895 83.1921" stroke="#442D7C" stroke-width="0.25" stroke-linecap="round" stroke-linejoin="round"/>
<path d="M80.9283 48.7881C77.95 53.2656 74.6083 57.4916 70.9375 61.4221" stroke="#442D7C" stroke-width="0.25" stroke-linecap="round" stroke-linejoin="round"/>
<path d="M93.4488 31.8604C95.8503 33.2103 98.295 35.9819 98.7353 38.7953C93.3488 43.5138 82.1081 49.2555 73.9934 50.8181C74.6612 53.1494 75.059 55.3807 74.0359 57.5836C74.2836 56.3426 68.5487 54.777 67.1144 54.4568C65.7145 54.1441 60.3176 53.1725 59.5825 54.2009C60.1937 52.8934 60.7623 51.3584 61.3877 49.7666C65.9212 49.639 66.2831 43.9175 68.1233 42.2915C68.7032 41.7795 69.6158 41.9512 70.4113 41.8228C80.3536 40.2057 88.8303 35.0581 93.463 31.8462L93.4488 31.8604Z" stroke="#442D7C" stroke-width="0.25" stroke-linecap="round" stroke-linejoin="round"/>
<path d="M60.3965 56.7303C64.4651 56.6656 68.472 57.7299 71.9723 59.8049" stroke="#442D7C" stroke-width="0.25" stroke-linecap="round" stroke-linejoin="round"/>
<path d="M71.7639 39.1031C71.3005 39.9135 69.5095 39.2389 67.6797 38.2822C67.9404 39.041 68.3247 39.7516 68.817 40.3852" stroke="#442D7C" stroke-width="0.25" stroke-linecap="round" stroke-linejoin="round"/>
<path d="M69.8806 41.8769C68.8903 41.6336 69.1552 41.1516 68.8164 40.3882C71.488 39.9934 71.9507 39.5016 71.841 38.1628C71.6805 36.2181 70.5388 31.9809 69.3559 30.6533" stroke="#442D7C" stroke-width="0.25" stroke-linecap="round" stroke-linejoin="round"/>
<path d="M73.9885 50.8184C73.1639 50.9751 72.3684 51.0885 71.6289 51.1601" stroke="#442D7C" stroke-width="0.25" stroke-linecap="round" stroke-linejoin="round"/>
<path d="M67.9353 31.7596C68.6882 33.8058 68.0099 34.1043 67.395 33.476C66.2577 32.3111 64.9936 33.8491 67.0681 35.5364C66.7977 37.6661 66.2581 39.7528 65.4622 41.7466C63.7287 45.1294 58.6124 50.0181 52.658 51.2404C47.6694 52.2635 43.8038 50.3024 48.2552 45.1861C51.282 41.7041 55.9154 40.3116 56.3415 40.1862C49.1081 41.9198 47.5037 38.1415 53.0871 34.1036C58.6452 30.0835 66.8435 28.0067 69.3591 30.6499C69.5994 31.1365 68.6659 31.3081 67.9353 31.7596Z" stroke="#442D7C" stroke-width="0.25" stroke-linecap="round" stroke-linejoin="round"/>
<path d="M61.3867 49.7666C62.1373 47.7358 63.1046 45.7918 64.2717 43.9683C64.7331 43.2779 65.1279 42.5453 65.4508 41.7803" stroke="#442D7C" stroke-width="0.25" stroke-linecap="round" stroke-linejoin="round"/>
<path d="M70.9551 61.398C71.9405 59.9468 72.8283 58.4315 73.6125 56.8623" stroke="#442D7C" stroke-width="0.25" stroke-linecap="round" stroke-linejoin="round"/>
<path d="M101.834 31.1653C103.979 30.6533 105.746 31.6205 105.6 32.4443C105.567 32.6096 105.499 32.766 105.401 32.9031C105.303 33.0402 105.177 33.155 105.032 33.2398" stroke="#442D7C" stroke-width="0.25" stroke-linecap="round" stroke-linejoin="round"/>
<path d="M101.635 29.8565C103.894 29.3162 106.14 30.4535 105.173 31.6475" stroke="#442D7C" stroke-width="0.25" stroke-linecap="round" stroke-linejoin="round"/>
<path d="M98.4941 37.7721C99.8313 36.2457 101.547 35.0988 103.469 34.4468" stroke="#442D7C" stroke-width="0.25" stroke-linecap="round" stroke-linejoin="round"/>
<path d="M101.749 32.7002C103.838 32.2741 105.214 33.0979 105.132 33.9083C105.029 34.9031 103.042 36.4098 101.365 35.4434" stroke="#442D7C" stroke-width="0.25" stroke-linecap="round" stroke-linejoin="round"/>
<path d="M99.984 29.1025C100.012 29.0741 100.879 27.8667 100.496 27.4824C100.169 27.1555 95.4505 31.0353 94.1289 32.2718" stroke="#442D7C" stroke-width="0.25" stroke-linecap="round" stroke-linejoin="round"/>
<path d="M102.701 29.7158C106.453 27.9114 107.46 25.7346 106.751 26.1338C104.385 27.3181 101.956 28.3714 99.4745 29.289C97.5538 30.0197 95.7492 31.0252 94.1172 32.274" stroke="#442D7C" stroke-width="0.25" stroke-linecap="round" stroke-linejoin="round"/>
<path d="M88.4452 103.144C88.1101 106.512 88.0721 109.903 88.3318 113.278C88.6937 116.546 88.8713 119.431 88.3885 119.744C86.6393 120.879 84.3475 112.928 81.6804 110.222C81.0329 109.598 80.512 108.855 80.1461 108.034C79.5335 106.567 80.276 105.372 80.2163 103.005" stroke="#442D7C" stroke-width="0.25" stroke-linecap="round" stroke-linejoin="round"/>
<path d="M55.6148 94.1799C59.8125 101.453 61.5139 108.337 59.3946 109.553C57.2931 110.763 52.1754 105.858 47.9829 98.5828C43.7905 91.3076 42.0868 84.4332 44.2024 83.2086C46.318 81.984 51.4134 86.9003 55.6148 94.1799Z" stroke="#442D7C" stroke-width="0.25" stroke-linecap="round" stroke-linejoin="round"/>
<path d="M34.046 121.173C32.9833 114.559 26.5954 103.555 21.409 99.5808C18.73 97.5055 16.8114 97.8726 17.0307 101.353C17.4472 107.957 24.8015 120.699 30.2909 124.438C33.3386 126.512 34.649 124.927 34.046 121.173Z" stroke="#442D7C" stroke-width="0.25" stroke-linecap="round" stroke-linejoin="round"/>
<path d="M33.4052 125.101L37.6245 122.66C38.0308 122.342 38.3068 121.886 38.4011 121.378C38.4953 120.871 38.4012 120.346 38.1365 119.903C39.8155 122.432 43.1102 119.821 41.7886 117.629C43.0147 119.719 46.8698 118.369 45.2848 115.199C45.6436 115.665 46.1557 115.989 46.7303 116.114C47.305 116.239 47.9052 116.156 48.425 115.881C50.1414 114.786 49.5048 112.655 48.4399 109.188C46.448 103.232 43.2882 97.7326 39.1454 93.0125C38.1498 91.8265 37.0099 90.7696 35.7522 89.8663C33.7634 88.6328 31.5262 89.5574 32.2956 92.9133C31.6627 91.8588 30.9202 91.1693 29.6658 91.5059C29.3492 91.5942 29.0573 91.7546 28.8129 91.9744C28.5685 92.1942 28.3782 92.4675 28.2569 92.773C28.1356 93.0786 28.0869 93.4081 28.1145 93.7357C28.1421 94.0633 28.2452 94.38 28.4158 94.661C28.4158 94.661 26.9435 92.7999 25.2748 94.1215C24.8607 94.4445 24.5818 94.9101 24.4924 95.4276C24.403 95.9452 24.5095 96.4774 24.7913 96.9206C24.5892 96.5635 24.2851 96.2748 23.9178 96.0917C23.5506 95.9086 23.137 95.8394 22.7301 95.8931C22.4599 95.9283 22.1994 96.0168 21.9637 96.1535L17.9922 98.4385" stroke="#442D7C" stroke-width="0.25" stroke-linecap="round" stroke-linejoin="round"/>
<path d="M136.535 102.548C134.782 103.516 133.101 104.608 131.504 105.816C126.813 109.439 122.238 113.988 122.848 114.784C123.458 115.58 129.003 112.313 133.705 108.687C135.281 107.448 136.763 106.095 138.139 104.637" stroke="#442D7C" stroke-width="0.25" stroke-linecap="round" stroke-linejoin="round"/>
<path d="M136.539 102.551C137.562 99.0122 140.973 100.092 142.849 97.96C143.19 101.215 141.399 104.484 138.159 104.64L136.539 102.551Z" stroke="#442D7C" stroke-width="0.25" stroke-linecap="round" stroke-linejoin="round"/>
<path d="M132.098 105.372L134.294 108.219" stroke="#442D7C" stroke-width="0.25" stroke-linecap="round" stroke-linejoin="round"/>
<path d="M139.878 34.4766L138.016 38.6474H141.426L139.55 42.8189" stroke="#442D7C" stroke-width="0.25" stroke-linecap="round" stroke-linejoin="round"/>
<path d="M73.6052 137.496L66.0449 137.723" stroke="#442D7C" stroke-width="0.25" stroke-linecap="round" stroke-linejoin="round"/>
<path d="M69.9405 141.389L69.7129 133.828" stroke="#442D7C" stroke-width="0.25" stroke-linecap="round" stroke-linejoin="round"/>
<path d="M61.6003 53.748C61.4726 54.4077 61.2719 55.051 61.0033 55.6667C58.6869 54.5152 59.2272 53.7622 61.6003 53.748Z" stroke="#442D7C" stroke-width="0.25" stroke-linecap="round" stroke-linejoin="round"/>
<path d="M74.0331 57.583C73.9645 57.8405 73.5996 58.0084 72.9824 58.0919" stroke="#442D7C" stroke-width="0.25" stroke-linecap="round" stroke-linejoin="round"/>
<path d="M61.5974 53.748C61.3646 55.3626 60.545 56.8347 59.2952 57.883C53.7103 62.3172 53.6237 68.5275 57.7035 73.1752" stroke="#442D7C" stroke-width="0.25" stroke-linecap="round" stroke-linejoin="round"/>
<path d="M17.7441 98.5957L11.4473 102.166" stroke="#442D7C" stroke-width="0.25" stroke-linecap="round" stroke-linejoin="round"/>
<path d="M33.1138 125.259L27.4609 128.556" stroke="#442D7C" stroke-width="0.25" stroke-linecap="round" stroke-linejoin="round"/>
<path d="M24.7334 130.274L20.541 132.719" stroke="#442D7C" stroke-width="0.25" stroke-linecap="round" stroke-linejoin="round"/>
<path d="M8.51774 103.998L4.24023 106.429" stroke="#442D7C" stroke-width="0.25" stroke-linecap="round" stroke-linejoin="round"/>
<path d="M21.7908 114.018L8.01953 122.161" stroke="#442D7C" stroke-width="0.25" stroke-linecap="round" stroke-linejoin="round"/>
<path d="M5.27786 123.882L1.09961 126.312" stroke="#442D7C" stroke-width="0.25" stroke-linecap="round" stroke-linejoin="round"/>
<path d="M27.7636 62.7713C26.3202 64.1586 24.4979 65.0868 22.527 65.4385C20.5561 65.7901 18.5252 65.5494 16.6912 64.7468C14.8571 63.9442 13.3022 62.6158 12.2231 60.9295C11.1441 59.2432 10.5893 57.2748 10.6289 55.2732C10.6686 53.2716 11.3009 51.3267 12.4459 49.6844C13.591 48.0422 15.1973 46.7764 17.0617 46.0471C18.9261 45.3178 20.965 45.1577 22.9203 45.5872C24.8757 46.0166 26.6599 47.0163 28.0471 48.4597C28.9691 49.4176 29.6932 50.5478 30.1779 51.7858C30.6627 53.0237 30.8987 54.3451 30.8723 55.6743C30.846 57.0035 30.5579 58.3145 30.0244 59.5323C29.491 60.75 28.7227 61.8507 27.7636 62.7713Z" stroke="#442D7C" stroke-width="0.25" stroke-linecap="round" stroke-linejoin="round"/>
<path d="M30.8576 56.0732C33.9985 57.5657 35.8574 58.9835 35.5903 59.879C35.1119 61.4962 28.0434 60.8738 19.7869 58.4858C11.5304 56.0978 5.2179 52.8494 5.68878 51.23C5.95743 50.3054 8.34618 50.1069 11.8827 50.5479" stroke="#442D7C" stroke-width="0.25" stroke-linecap="round" stroke-linejoin="round"/>
<path d="M58.2637 66.637C58.6756 69.2235 60.1293 71.5951 62.0867 72.2085C68.1992 74.1204 78.7848 78.7598 78.7848 78.7598C78.9169 86.079 79.5796 94.1326 78.8706 102.55C82.26 103.977 86.0647 104.063 89.5151 102.791C90.1121 94.8475 90.495 87.2298 90.3532 80.1949C90.3211 78.4444 89.9152 76.721 89.1628 75.1401C88.4104 73.5593 87.3289 72.1575 85.9906 71.0287C80.4673 66.4626 74.3095 62.7239 67.7104 59.9297" stroke="#442D7C" stroke-width="0.25" stroke-linecap="round" stroke-linejoin="round"/>
<path d="M78.7832 78.7588L80.4175 79.37L78.9257 83.6475" stroke="#442D7C" stroke-width="0.25" stroke-linecap="round" stroke-linejoin="round"/>
<path d="M79.1641 96.9346C82.619 98.1202 86.3392 98.3026 89.8936 97.4607" stroke="#442D7C" stroke-width="0.25" stroke-linecap="round" stroke-linejoin="round"/>
<path d="M76.0352 0.609375V2.9832" stroke="#442D7C" stroke-width="0.25" stroke-linecap="round" stroke-linejoin="round"/>
<path d="M80.6531 5.22949H78.2793" stroke="#442D7C" stroke-width="0.25" stroke-linecap="round" stroke-linejoin="round"/>
<path d="M76.0352 9.84745V7.47363" stroke="#442D7C" stroke-width="0.25" stroke-linecap="round" stroke-linejoin="round"/>
<path d="M71.418 5.22949H73.7925" stroke="#442D7C" stroke-width="0.25" stroke-linecap="round" stroke-linejoin="round"/>
<path d="M78.2861 5.22714C77.991 5.22803 77.6987 5.17057 77.426 5.05808C77.1533 4.94559 76.9054 4.78027 76.6968 4.57166C76.4882 4.36304 76.3229 4.11523 76.2104 3.84249C76.0979 3.56974 76.0405 3.27745 76.0413 2.98242C76.0428 3.42662 75.9119 3.86117 75.6653 4.23066C75.4188 4.60016 75.0678 4.88783 74.657 5.057C74.3845 5.16979 74.0923 5.22761 73.7974 5.22714C74.0924 5.22645 74.3846 5.28407 74.6573 5.39669C74.9299 5.50931 75.1776 5.67471 75.3862 5.88338C75.5947 6.09204 75.7599 6.33987 75.8724 6.6126C75.9848 6.88534 76.0422 7.17761 76.0413 7.47261C76.0405 7.17754 76.0979 6.88521 76.2104 6.61243C76.3229 6.33965 76.4882 6.09179 76.6968 5.88311C76.9054 5.67443 77.1532 5.50905 77.4259 5.39648C77.6987 5.2839 77.991 5.22635 78.2861 5.22714Z" stroke="#442D7C" stroke-width="0.25" stroke-linecap="round" stroke-linejoin="round"/>
</svg>
