<svg width="24" height="25" viewBox="0 0 24 25" fill="none" xmlns="http://www.w3.org/2000/svg">
<mask id="mask0_332_4828" style="mask-type:alpha" maskUnits="userSpaceOnUse" x="0" y="0" width="24" height="25">
<rect y="0.649902" width="24" height="24" fill="#D9D9D9"/>
</mask>
<g mask="url(#mask0_332_4828)">
<path d="M11.95 18.6499C12.3 18.6499 12.5958 18.5291 12.8375 18.2874C13.0792 18.0457 13.2 17.7499 13.2 17.3999C13.2 17.0499 13.0792 16.7541 12.8375 16.5124C12.5958 16.2707 12.3 16.1499 11.95 16.1499C11.6 16.1499 11.3042 16.2707 11.0625 16.5124C10.8208 16.7541 10.7 17.0499 10.7 17.3999C10.7 17.7499 10.8208 18.0457 11.0625 18.2874C11.3042 18.5291 11.6 18.6499 11.95 18.6499ZM11.05 14.7999H12.9C12.9 14.2499 12.9625 13.8166 13.0875 13.4999C13.2125 13.1832 13.5667 12.7499 14.15 12.1999C14.5833 11.7666 14.925 11.3541 15.175 10.9624C15.425 10.5707 15.55 10.0999 15.55 9.5499C15.55 8.61657 15.2083 7.8999 14.525 7.3999C13.8417 6.8999 13.0333 6.6499 12.1 6.6499C11.15 6.6499 10.3792 6.8999 9.7875 7.3999C9.19583 7.8999 8.78333 8.4999 8.55 9.1999L10.2 9.8499C10.2833 9.5499 10.4708 9.2249 10.7625 8.8749C11.0542 8.5249 11.5 8.3499 12.1 8.3499C12.6333 8.3499 13.0333 8.49574 13.3 8.7874C13.5667 9.07907 13.7 9.3999 13.7 9.7499C13.7 10.0832 13.6 10.3957 13.4 10.6874C13.2 10.9791 12.95 11.2499 12.65 11.4999C11.9167 12.1499 11.4667 12.6416 11.3 12.9749C11.1333 13.3082 11.05 13.9166 11.05 14.7999ZM12 22.6499C10.6167 22.6499 9.31667 22.3874 8.1 21.8624C6.88333 21.3374 5.825 20.6249 4.925 19.7249C4.025 18.8249 3.3125 17.7666 2.7875 16.5499C2.2625 15.3332 2 14.0332 2 12.6499C2 11.2666 2.2625 9.96657 2.7875 8.7499C3.3125 7.53324 4.025 6.4749 4.925 5.5749C5.825 4.6749 6.88333 3.9624 8.1 3.4374C9.31667 2.9124 10.6167 2.6499 12 2.6499C13.3833 2.6499 14.6833 2.9124 15.9 3.4374C17.1167 3.9624 18.175 4.6749 19.075 5.5749C19.975 6.4749 20.6875 7.53324 21.2125 8.7499C21.7375 9.96657 22 11.2666 22 12.6499C22 14.0332 21.7375 15.3332 21.2125 16.5499C20.6875 17.7666 19.975 18.8249 19.075 19.7249C18.175 20.6249 17.1167 21.3374 15.9 21.8624C14.6833 22.3874 13.3833 22.6499 12 22.6499ZM12 20.6499C14.2333 20.6499 16.125 19.8749 17.675 18.3249C19.225 16.7749 20 14.8832 20 12.6499C20 10.4166 19.225 8.5249 17.675 6.9749C16.125 5.4249 14.2333 4.6499 12 4.6499C9.76667 4.6499 7.875 5.4249 6.325 6.9749C4.775 8.5249 4 10.4166 4 12.6499C4 14.8832 4.775 16.7749 6.325 18.3249C7.875 19.8749 9.76667 20.6499 12 20.6499Z" fill="white"/>
</g>
</svg>
