<svg width="151" height="150" viewBox="0 0 151 150" fill="none" xmlns="http://www.w3.org/2000/svg">
<path d="M107.884 102.523C102.346 102.225 92.7623 102.018 90.8691 101.843C89.8952 97.3787 88.3266 90.3095 87.705 86.9924C87.7155 86.9858 87.7257 86.9789 87.7356 86.9715C91.578 84.4902 95.0234 77.6986 89.5079 68.1279C82.1581 68.1899 75.4157 69.8391 69.2039 73.6576C69.3599 75.0613 69.4875 76.2524 69.5584 77.0322C51.9059 85.0171 48.503 87.3685 47.8507 91.3244C47.0933 95.9444 51.1193 102.541 62.8944 121.979C67.3719 123.024 74.1919 120.464 75.7687 116.392C73.9673 112.753 67.7167 100.158 65.7443 96.6414C71.0599 94.7011 77.2366 92.2945 82.332 89.8423C80.2484 91.8467 76.1075 96.0645 74.606 97.8466C76.7896 104.511 79.3417 112.249 82.1066 113.528C85.3356 115.021 86.8237 115.457 107.869 115.457C110.285 113.29 109.744 105.661 107.884 102.523Z" fill="#FECFC4"/>
<path d="M41.3869 21.1387C40.8358 22.1529 40.3063 23.1787 39.7989 24.2155C35.9848 32.0847 35.2333 37.2883 35.2468 41.1732C35.2609 43.0874 35.4453 44.6754 35.5453 46.1216V46.1358C35.8147 46.2918 36.0676 46.4477 36.3818 46.6321C36.949 45.7366 37.4169 45.9089 38.8064 46.5895C40.7205 47.5253 40.9048 47.6104 41.0451 48.9574C41.0593 49.1275 41.0735 49.2835 41.1018 49.4395C42.4346 48.688 43.9518 47.9365 45.6816 46.8276C48.9569 44.7149 52.8986 41.2553 57.3932 33.7548C57.9604 32.8048 58.5417 31.8145 59.123 30.7347L41.3869 21.1387ZM47.1151 36.6644L46.2077 40.9747L44.2398 37.0331L39.8728 37.5293L43.007 34.4242L41.1921 30.4116L45.1055 32.4264L48.3524 29.4773L47.6435 33.8301L51.4717 35.9995L47.1151 36.6644Z" fill="#FECFC4"/>
<path d="M114.693 15.2967C114.679 15.9583 114.679 16.6201 114.693 17.2817C115.643 16.9981 116.082 16.6578 116.153 16.3175C116.283 15.7056 115.093 15.2168 114.693 15.2967Z" fill="#764ED7"/>
<path d="M109.832 103.688C109.383 103.677 108.934 103.701 108.489 103.759C109.736 106.85 109.807 111.643 108.787 114.138C110.429 116.336 115.28 119.654 119.053 120.66C118.779 114.734 112.441 106.099 109.832 103.688Z" fill="#764ED7"/>
<path d="M106.355 15.6082C106.112 15.6007 105.161 15.7903 105.161 16.444C105.161 16.7992 105.6 17.1962 106.678 17.4656C106.794 16.8275 106.68 16.1688 106.355 15.6074V15.6082Z" fill="#764ED7"/>
<path d="M90.1782 55.1521C90.3767 58.0871 90.6887 61.5892 90.6887 64.0138C91.7662 60.2281 93.0849 55.6483 93.8505 53.1104L90.1782 55.1521Z" fill="#764ED7"/>
<path d="M84.5499 26.7959C84.5499 25.8318 83.3022 25.5057 82.6358 26.5549C82.5791 25.6475 81.1045 25.4355 80.3814 26.6683C80.2254 25.69 78.5665 25.9027 77.9852 27.0086C77.815 26.1437 76.3971 26.6258 76.1561 27.9161C75.9009 29.2772 75.674 30.5108 75.5181 31.6167C77.3503 31.078 79.2515 30.8105 81.1612 30.8227C80.7642 32.3256 80.9373 34.3532 81.5866 32.9779C82.2246 31.6025 83.8552 32.6376 82.7059 34.4383C82.521 34.8112 82.4455 35.2288 82.4881 35.6429C82.5308 36.0569 82.6899 36.4504 82.947 36.7778C83.1171 33.8144 85.4141 29.972 86.123 28.4123C87.0879 26.2997 85.6275 25.7325 84.5499 26.7959Z" fill="#764ED7"/>
<path d="M73.2622 93.7765C73.6876 95.0384 74.1413 96.4137 74.6055 97.8458C76.2786 95.8608 81.1135 91.1676 82.8575 89.5938C79.8128 91.0825 76.4793 92.5146 73.2622 93.7765Z" fill="#764ED7"/>
<path d="M78.5676 39.4705C78.5563 40.1171 78.4946 40.7618 78.3833 41.3988C79.3646 40.7073 80.1272 39.7491 80.581 38.6377C79.9325 38.9675 79.2594 39.2459 78.5676 39.4705Z" fill="#764ED7"/>
<path d="M75.1066 117.654C75.782 118.178 76.3999 118.772 76.9498 119.427C73.6603 127.225 66.6135 133.79 63.8345 135.534C64.1121 130.954 65.0579 126.44 66.6419 122.135C69.8321 121.709 73.4208 120.093 75.1066 117.654Z" fill="#764ED7"/>
<path d="M67.6065 60.0034C66.146 61.7616 62.0909 66.1145 58.291 68.6241C61.6598 67.5358 64.9519 66.2232 68.1452 64.6951C67.96 63.1319 67.7804 61.568 67.6065 60.0034Z" fill="#764ED7"/>
<path d="M43.0334 50.9845C42.7214 50.8002 42.1826 51.027 41.7856 51.6084C42.1122 52.1947 42.64 52.643 43.2714 52.8703C43.5013 51.7643 43.3461 51.1688 43.0334 50.9845Z" fill="#764ED7"/>
<path d="M39.5856 60.0458C38.9334 60.7831 38.4364 60.9973 38.111 60.8965C37.6565 60.7562 37.6006 59.904 37.87 59.0107C38.4513 59.351 39.0326 59.6913 39.5856 60.0458Z" fill="#764ED7"/>
<path d="M28.8532 112.761C29.4185 112.769 29.9796 112.664 30.504 112.453C31.0284 112.242 31.5056 111.928 31.908 111.531C32.3103 111.134 32.6298 110.661 32.8479 110.14C33.0659 109.618 33.1782 109.058 33.1782 108.493C33.1782 107.928 33.0659 107.368 32.8479 106.847C32.6298 106.325 32.3103 105.852 31.908 105.455C31.5056 105.058 31.0284 104.745 30.504 104.534C29.9796 104.322 29.4185 104.218 28.8532 104.225C27.731 104.24 26.6598 104.696 25.8715 105.495C25.0831 106.294 24.6411 107.371 24.6411 108.493C24.6411 109.615 25.0831 110.693 25.8715 111.491C26.6598 112.29 27.731 112.746 28.8532 112.761Z" fill="#764ED7"/>
<path d="M35.544 57.6626C35.5723 56.3716 36.182 54.997 37.1857 53.1254C36.977 52.4335 36.9241 51.7039 37.0308 50.9891C37.1375 50.2743 37.4012 49.592 37.8029 48.9912C37.5485 49.3845 37.2523 49.7491 36.9193 50.0785C37.3447 50.9434 36.6499 52.262 35.4164 51.6382L35.5865 51.9068C37.0895 52.7575 36.0969 54.6866 34.4947 53.9217L34.7932 54.1918C36.2678 54.9717 35.3462 56.8574 33.7582 56.1619C33.0634 55.8507 32.4963 55.6239 32.0284 55.4254C30.809 56.403 29.2919 56.6306 26.7681 56.2761L37.7141 62.2028C36.1537 60.4267 35.5014 59.0947 35.544 57.6626Z" fill="#764ED7"/>
<path d="M26.4044 56.084L23.7388 59.5727L36.6273 66.5628L38.1018 62.4219L26.4044 56.084Z" fill="#764ED7"/>
<path d="M39.5888 60.0442C38.2456 59.1651 36.6963 58.3853 35.5337 57.6338" stroke="#442D7C" stroke-width="0.25" stroke-linecap="round" stroke-linejoin="round"/>
<path d="M75.4617 32.0689L72.7961 4.1084L52.1802 55.8041" stroke="#442D7C" stroke-width="0.25" stroke-linecap="round" stroke-linejoin="round"/>
<path d="M76.718 45.4264L76.1509 39.3438" stroke="#442D7C" stroke-width="0.25" stroke-linecap="round" stroke-linejoin="round"/>
<path d="M106.538 102.453L125.921 53.8486L91.8774 59.8604" stroke="#442D7C" stroke-width="0.25" stroke-linecap="round" stroke-linejoin="round"/>
<path d="M86.2642 114.815L89.2275 145.895L101.379 115.425" stroke="#442D7C" stroke-width="0.25" stroke-linecap="round" stroke-linejoin="round"/>
<path d="M47.867 66.6074L36.0845 96.1559L47.8812 94.0717" stroke="#442D7C" stroke-width="0.25" stroke-linecap="round" stroke-linejoin="round"/>
<path d="M39.8134 24.244L32.4404 20.2598C26.545 31.149 31.93 39.4011 35.262 41.2018" stroke="#442D7C" stroke-width="0.25" stroke-linecap="round" stroke-linejoin="round"/>
<path d="M44.2543 37.0451L39.8872 37.5272L43.0065 34.4362L41.1917 30.4236L45.105 32.437L48.3519 29.4736L47.643 33.8123L51.4712 35.9959L47.1184 36.6623L46.2393 40.9726L44.2543 37.0451Z" stroke="#442D7C" stroke-width="0.25" stroke-linecap="round" stroke-linejoin="round"/>
<path d="M57.4464 33.772L64.7701 37.7547C58.8688 48.644 49.0183 48.644 45.6997 46.8433" stroke="#442D7C" stroke-width="0.25" stroke-linecap="round" stroke-linejoin="round"/>
<path d="M34.7109 124.73C39.3302 124.73 43.0756 120.986 43.0756 116.366C43.0756 111.746 39.3302 108.001 34.7109 108.001C30.0916 108.001 26.3462 111.746 26.3462 116.366C26.3462 120.986 30.0909 124.73 34.7109 124.73Z" stroke="#442D7C" stroke-width="0.25" stroke-linecap="round" stroke-linejoin="round"/>
<path d="M125.946 33.3017C126.631 33.3017 127.287 33.0298 127.771 32.5459C128.255 32.0619 128.527 31.4056 128.527 30.7212C128.527 30.0368 128.255 29.3804 127.771 28.8964C127.287 28.4125 126.631 28.1406 125.946 28.1406C125.262 28.1406 124.605 28.4125 124.122 28.8964C123.638 29.3804 123.366 30.0368 123.366 30.7212C123.366 31.4056 123.638 32.0619 124.122 32.5459C124.605 33.0298 125.262 33.3017 125.946 33.3017Z" stroke="#442D7C" stroke-width="0.25" stroke-linecap="round" stroke-linejoin="round"/>
<path d="M25.7312 76.2788C25.9044 76.2788 26.0759 76.2447 26.2358 76.1785C26.3958 76.1122 26.5412 76.0151 26.6636 75.8926C26.7861 75.7702 26.8832 75.6248 26.9495 75.4648C27.0157 75.3049 27.0498 75.1334 27.0498 74.9602C27.0498 74.7871 27.0157 74.6156 26.9495 74.4556C26.8832 74.2956 26.7861 74.1503 26.6636 74.0278C26.5412 73.9054 26.3958 73.8082 26.2358 73.742C26.0759 73.6757 25.9044 73.6416 25.7312 73.6416C25.3815 73.6416 25.0461 73.7805 24.7988 74.0278C24.5515 74.2751 24.4126 74.6105 24.4126 74.9602C24.4126 75.3099 24.5515 75.6453 24.7988 75.8926C25.0461 76.1399 25.3815 76.2788 25.7312 76.2788Z" stroke="#442D7C" stroke-width="0.25" stroke-linecap="round" stroke-linejoin="round"/>
<path d="M93.1668 11.5117L91.8481 16.7862L95.8466 16.0773L94.5279 21.3518" stroke="#442D7C" stroke-width="0.25" stroke-linecap="round" stroke-linejoin="round"/>
<path d="M34.4795 53.9049C36.0839 54.6661 37.0727 52.7445 35.5712 51.89C34.4519 51.2535 33.6429 50.8542 32.7355 50.3871C32.4651 50.231 32.145 50.1852 31.8417 50.2592C31.5384 50.3332 31.2753 50.5213 31.1073 50.7844C30.9392 51.0475 30.879 51.3652 30.9394 51.6715C30.9997 51.9779 31.1758 52.2491 31.4311 52.4288C32.1534 52.8848 33.0071 53.2064 34.4795 53.9049Z" stroke="#442D7C" stroke-width="0.25" stroke-linecap="round" stroke-linejoin="round"/>
<path d="M36.3938 46.6459C35.8266 46.3056 35.4169 46.0758 34.8625 45.7504C34.6011 45.568 34.278 45.4969 33.9642 45.5528C33.6505 45.6086 33.3718 45.7868 33.1894 46.0482C33.007 46.3095 32.9359 46.6326 32.9917 46.9464C33.0476 47.2601 33.2258 47.5389 33.4871 47.7213C34.0935 48.1259 34.7285 48.4861 35.3871 48.7988" stroke="#442D7C" stroke-width="0.25" stroke-linecap="round" stroke-linejoin="round"/>
<path d="M33.7698 56.159C35.3437 56.8537 36.2645 54.9702 34.7907 54.1881C33.6982 53.6083 32.8885 53.2426 32.0117 52.827C31.7471 52.6783 31.4351 52.6381 31.1415 52.7148C30.8479 52.7915 30.5955 52.9792 30.4375 53.2383C30.2795 53.4974 30.2281 53.8077 30.2943 54.1039C30.3605 54.4 30.539 54.659 30.7923 54.8262C31.5012 55.2366 32.3236 55.5209 33.7698 56.159Z" stroke="#442D7C" stroke-width="0.25" stroke-linecap="round" stroke-linejoin="round"/>
<path d="M35.3586 48.8576C34.7773 48.5457 34.2638 48.3106 33.6997 48.0069C33.4289 47.8388 33.1034 47.7826 32.792 47.8502C32.4806 47.9177 32.2076 48.1038 32.0309 48.3689C31.8541 48.6341 31.7874 48.9576 31.8448 49.271C31.9022 49.5845 32.0793 49.8633 32.3385 50.0486C33.0751 50.5322 33.9153 50.8792 35.3981 51.6224C36.6339 52.2411 37.3265 50.9277 36.9011 50.0628" stroke="#442D7C" stroke-width="0.25" stroke-linecap="round" stroke-linejoin="round"/>
<path d="M41.7676 51.6092C42.1788 51.0278 42.7146 50.8062 43.0295 50.9853C43.5914 51.3062 43.6384 52.942 41.8952 56.3874C40.037 60.0597 38.7326 61.0977 38.0953 60.8963C37.655 60.7567 37.5848 59.8896 37.8542 59.0105" stroke="#442D7C" stroke-width="0.25" stroke-linecap="round" stroke-linejoin="round"/>
<path d="M43.2672 52.8704C42.3031 52.4734 41.327 51.7659 41.0554 48.957C40.9233 47.6138 40.73 47.5242 38.8166 46.5892C36.5779 45.4959 36.704 45.6937 35.0167 49.666C34.6018 50.6428 36.1226 51.651 37.8808 48.8152C36.5055 50.9846 36.7614 53.1435 38.0226 54.5151" stroke="#442D7C" stroke-width="0.25" stroke-linecap="round" stroke-linejoin="round"/>
<path d="M111.926 9.87887C111.786 11.6512 109.636 11.7079 109.643 9.9923C109.648 8.71621 109.703 7.80877 109.757 6.7879C109.846 5.08645 112.115 5.10063 112.167 6.50433C112.2 7.35505 112.056 8.24832 111.926 9.87887Z" stroke="#442D7C" stroke-width="0.25" stroke-linecap="round" stroke-linejoin="round"/>
<path d="M104.706 8.57649C104.692 7.95263 104.702 7.49742 104.692 6.90191C104.666 5.28553 106.969 5.2124 107.074 6.56162C107.123 7.25041 107.123 7.94218 107.074 8.63172" stroke="#442D7C" stroke-width="0.25" stroke-linecap="round" stroke-linejoin="round"/>
<path d="M114.368 10.2903C114.19 12.0209 112.106 12.0201 112.17 10.347C112.218 9.11349 112.295 8.23441 112.368 7.25608C112.492 5.61433 114.694 5.68224 114.694 7.0322C114.694 7.85159 114.53 8.71724 114.368 10.2903Z" stroke="#442D7C" stroke-width="0.25" stroke-linecap="round" stroke-linejoin="round"/>
<path d="M107.135 8.61778C107.149 7.95138 107.205 7.38423 107.22 6.74618C107.261 5.01637 109.57 4.98802 109.659 6.40589C109.714 7.27154 109.588 8.17824 109.503 9.83864C109.508 10.0863 109.434 10.329 109.29 10.531C109.147 10.733 108.942 10.8835 108.707 10.9603C108.471 11.0368 108.217 11.0352 107.983 10.9559C107.748 10.8766 107.545 10.7237 107.405 10.52" stroke="#442D7C" stroke-width="0.25" stroke-linecap="round" stroke-linejoin="round"/>
<path d="M106.341 15.6079C105.632 15.7213 105.178 16.0616 105.178 16.4161C105.178 17.0541 106.554 17.8175 110.396 17.7489C114.479 17.6742 116.026 16.9548 116.167 16.3026C116.267 15.8347 115.67 15.4071 114.777 15.2676" stroke="#442D7C" stroke-width="0.25" stroke-linecap="round" stroke-linejoin="round"/>
<path d="M106.696 17.4525C106.823 16.4174 106.69 15.2481 104.413 13.7802C103.319 13.075 103.335 12.8586 103.477 10.7459C103.646 8.25048 103.747 8.46092 108.014 8.67584C109.063 8.72883 109.177 10.5333 105.859 10.8735C108.411 10.59 110.155 11.7526 110.71 13.4683" stroke="#442D7C" stroke-width="0.25" stroke-linecap="round" stroke-linejoin="round"/>
<path d="M114.703 17.2659C114.618 14.3451 114.927 9.63774 114.703 7.36914" stroke="#442D7C" stroke-width="0.25" stroke-linecap="round" stroke-linejoin="round"/>
<path d="M105.174 16.4307C105.202 19.9754 105.174 29.0498 104.933 33.2892C103.813 34.0265 94.98 38.4383 91.1935 40.1943C87.766 41.7845 84.8683 41.4554 83.5183 39.2943C81.6527 36.3093 84.8384 31.2892 86.1302 28.4117C87.0802 26.2991 85.6339 25.7319 84.5563 26.7953C84.5563 25.8454 83.3086 25.5051 82.6422 26.5543C82.5713 25.6469 81.0967 25.4349 80.3878 26.6677C80.2176 25.7036 78.5729 25.9162 77.9916 27.008C77.8214 26.1573 76.4133 26.6349 76.1625 27.9155C73.9111 39.3786 75.267 41.2733 80.6005 38.6346C80.1467 39.746 79.3841 40.7042 78.4028 41.3957" stroke="#442D7C" stroke-width="0.25" stroke-linecap="round" stroke-linejoin="round"/>
<path d="M116.162 16.3164C116.162 36.2943 116.379 37.2748 115.325 39.2434C113.928 41.8553 111.171 43.4829 90.1724 55.152C90.385 58.087 90.6828 61.5892 90.6828 64.0137" stroke="#442D7C" stroke-width="0.25" stroke-linecap="round" stroke-linejoin="round"/>
<path d="M43.0337 50.9824C47.7127 53.7898 54.0648 56.6823 54.8588 57.0509C58.4035 55.6047 70.1278 50.3138 74.9329 47.1541C77.7395 45.3094 78.5485 41.4968 78.5627 39.4551" stroke="#442D7C" stroke-width="0.25" stroke-linecap="round" stroke-linejoin="round"/>
<path d="M74.9321 47.1677C76.7895 49.1244 83.9782 47.7647 85.8356 41.0283" stroke="#442D7C" stroke-width="0.25" stroke-linecap="round" stroke-linejoin="round"/>
<path d="M75.5122 31.6155C77.345 31.0796 79.2458 30.8122 81.1553 30.8215C80.7583 32.3387 80.9315 34.3804 81.5807 32.9767C82.23 31.573 83.856 32.6551 82.7001 34.4371C82.5121 34.8092 82.4349 35.2275 82.4776 35.6422C82.5203 36.0569 82.6812 36.4506 82.9411 36.7766" stroke="#442D7C" stroke-width="0.25" stroke-linecap="round" stroke-linejoin="round"/>
<path d="M63.5767 97.4182C69.9855 95.1213 80.4807 91.2407 87.4395 87.167C91.3827 84.8588 95.1811 77.9508 89.5238 68.1249C90.5872 64.3937 92.7707 56.6968 93.852 53.1104" stroke="#442D7C" stroke-width="0.25" stroke-linecap="round" stroke-linejoin="round"/>
<path d="M76.5222 73.8965C52.7587 84.4738 48.5953 86.885 47.8528 91.3222C47.2192 95.1086 48.8311 98.9078 62.8965 121.993C66.8098 123.056 74.1544 120.689 75.7708 116.396C71.5455 107.814 67.1501 99.1578 65.7464 96.6452" stroke="#442D7C" stroke-width="0.25" stroke-linecap="round" stroke-linejoin="round"/>
<path d="M73.2739 93.7741C75.7127 100.892 78.7611 111.965 82.1215 113.525C85.4818 115.085 86.7863 115.397 107.867 115.453C109.98 113.837 110.051 105.996 107.867 102.508C102.27 102.196 92.8802 102.012 90.8809 101.828C89.9026 97.2904 88.3437 90.1861 87.7467 86.9541" stroke="#442D7C" stroke-width="0.25" stroke-linecap="round" stroke-linejoin="round"/>
<path d="M75.1033 117.651C76.107 118.483 77.0196 119.42 77.8256 120.445C76.1242 125.194 69.393 134.184 63.8596 137.601C63.5335 133.929 64.8946 126.499 66.6244 122.132" stroke="#442D7C" stroke-width="0.25" stroke-linecap="round" stroke-linejoin="round"/>
<path d="M103.475 102.326C105.347 104.425 106.269 111.585 103.192 115.442" stroke="#442D7C" stroke-width="0.25" stroke-linecap="round" stroke-linejoin="round"/>
<path d="M60.3423 117.794C64.6526 118.744 71.4614 117.014 73.642 112.094" stroke="#442D7C" stroke-width="0.25" stroke-linecap="round" stroke-linejoin="round"/>
<path d="M63.8052 135.531C66.5559 133.801 73.6452 127.222 76.9347 119.412" stroke="#442D7C" stroke-width="0.25" stroke-linecap="round" stroke-linejoin="round"/>
<path d="M108.483 103.742C109.336 103.643 110.197 103.643 111.05 103.742C113.446 105.683 120.138 113.71 120.223 120.899C116.367 120.376 110.624 116.574 108.781 114.121" stroke="#442D7C" stroke-width="0.25" stroke-linecap="round" stroke-linejoin="round"/>
<path d="M109.825 103.686C112.437 106.096 118.757 114.73 119.041 120.658" stroke="#442D7C" stroke-width="0.25" stroke-linecap="round" stroke-linejoin="round"/>
<path d="M67.3091 57.0537C67.6777 61.4633 69.2493 73.416 69.5478 77.0174" stroke="#442D7C" stroke-width="0.25" stroke-linecap="round" stroke-linejoin="round"/>
<path d="M89.5262 68.1255C81.501 68.1822 74.8937 70.1672 69.208 73.6552" stroke="#442D7C" stroke-width="0.25" stroke-linecap="round" stroke-linejoin="round"/>
<path d="M68.9088 116.675C65.8178 110.677 59.409 96.9945 58.0337 94.1304C64.4425 90.8976 80.7339 84.1202 83.5413 82.3762C86.3487 80.6322 87.4546 78.392 84.4771 68.4385" stroke="#442D7C" stroke-width="0.25" stroke-linecap="round" stroke-linejoin="round"/>
<path d="M38.1118 60.8975C51.5391 69.0182 53.695 69.8987 57.0546 68.9756C60.8584 67.8449 64.566 66.413 68.1424 64.6936" stroke="#442D7C" stroke-width="0.25" stroke-linecap="round" stroke-linejoin="round"/>
<path d="M58.2856 68.6231C62.0729 66.1135 66.1407 61.7464 67.6011 60.0039" stroke="#442D7C" stroke-width="0.25" stroke-linecap="round" stroke-linejoin="round"/>
<path d="M74.6216 97.8458C76.2947 95.8607 81.1296 91.1818 82.8736 89.5938" stroke="#442D7C" stroke-width="0.25" stroke-linecap="round" stroke-linejoin="round"/>
<path d="M20.686 35.5557L21.1778 38.3354" stroke="#442D7C" stroke-width="0.25" stroke-linecap="round" stroke-linejoin="round"/>
<path d="M27.0518 40.0117L24.272 40.5035" stroke="#442D7C" stroke-width="0.25" stroke-linecap="round" stroke-linejoin="round"/>
<path d="M22.5958 46.3782L22.104 43.5977" stroke="#442D7C" stroke-width="0.25" stroke-linecap="round" stroke-linejoin="round"/>
<path d="M16.2329 41.9222L19.0142 41.4297" stroke="#442D7C" stroke-width="0.25" stroke-linecap="round" stroke-linejoin="round"/>
<path d="M24.2712 40.5008C23.9261 40.5621 23.5722 40.5547 23.2299 40.479C22.8876 40.4033 22.5636 40.2608 22.2765 40.0597C21.9894 39.8586 21.7448 39.6029 21.5566 39.3071C21.3685 39.0113 21.2406 38.6813 21.1802 38.3359C21.2418 38.6812 21.2346 39.0353 21.159 39.3778C21.0835 39.7203 20.9412 40.0445 20.7401 40.3319C20.5391 40.6194 20.2833 40.8643 19.9875 41.0527C19.6917 41.2411 19.3616 41.3693 19.0161 41.4299C19.3613 41.3685 19.7152 41.3758 20.0576 41.4514C20.4 41.5269 20.7241 41.6693 21.0113 41.8703C21.2986 42.0714 21.5434 42.3271 21.7317 42.6229C21.92 42.9187 22.048 43.2487 22.1086 43.594C22.0472 43.2489 22.0545 42.8951 22.1301 42.5528C22.2056 42.2105 22.3478 41.8864 22.5487 41.5991C22.7495 41.3118 23.0051 41.067 23.3006 40.8785C23.5962 40.69 23.926 40.5617 24.2712 40.5008Z" stroke="#442D7C" stroke-width="0.25" stroke-linecap="round" stroke-linejoin="round"/>
<path d="M125.932 77.6406L126.637 81.6271" stroke="#442D7C" stroke-width="0.25" stroke-linecap="round" stroke-linejoin="round"/>
<path d="M135.063 84.0273L131.077 84.7318" stroke="#442D7C" stroke-width="0.25" stroke-linecap="round" stroke-linejoin="round"/>
<path d="M128.676 93.1525L127.971 89.166" stroke="#442D7C" stroke-width="0.25" stroke-linecap="round" stroke-linejoin="round"/>
<path d="M119.551 86.7679L123.54 86.0635" stroke="#442D7C" stroke-width="0.25" stroke-linecap="round" stroke-linejoin="round"/>
<path d="M131.074 84.7287C130.578 84.8165 130.071 84.806 129.58 84.6977C129.089 84.5894 128.624 84.3854 128.212 84.0973C127.799 83.8093 127.448 83.4426 127.178 83.0183C126.907 82.594 126.724 82.1205 126.637 81.625C126.725 82.12 126.715 82.6275 126.607 83.1186C126.499 83.6096 126.295 84.0746 126.007 84.4869C125.719 84.8988 125.352 85.2499 124.928 85.5201C124.504 85.7902 124.031 85.9742 123.536 86.0615C124.281 85.9291 125.049 86.021 125.742 86.3255C126.435 86.63 127.023 87.1333 127.43 87.7719C127.7 88.1965 127.883 88.6696 127.97 89.1651C127.882 88.67 127.893 88.1624 128.001 87.6714C128.109 87.1803 128.313 86.7154 128.601 86.3032C128.889 85.8908 129.256 85.5394 129.68 85.2692C130.104 84.999 130.578 84.8153 131.074 84.7287Z" stroke="#442D7C" stroke-width="0.25" stroke-linecap="round" stroke-linejoin="round"/>
<path d="M41.3869 21.1387C40.8358 22.1529 40.3063 23.1787 39.7989 24.2155C35.9848 32.0847 35.2333 37.2883 35.2468 41.1732C35.2609 43.0874 35.4453 44.6754 35.5453 46.1216V46.1358C35.8147 46.2918 36.0676 46.4477 36.3818 46.6321C36.949 45.7366 37.4169 45.9089 38.8064 46.5895C40.7205 47.5253 40.9048 47.6104 41.0451 48.9574C41.0593 49.1275 41.0735 49.2835 41.1018 49.4395C42.4346 48.688 43.9518 47.9365 45.6816 46.8276C48.9569 44.7149 52.8986 41.2553 57.3932 33.7548C57.9604 32.8048 58.5417 31.8145 59.123 30.7347L41.3869 21.1387ZM47.1151 36.6644L46.2077 40.9747L44.2398 37.0331L39.8728 37.5293L43.007 34.4242L41.1921 30.4116L45.1055 32.4264L48.3524 29.4773L47.6435 33.8301L51.4717 35.9995L47.1151 36.6644Z" stroke="#442D7C" stroke-width="0.25" stroke-linejoin="round"/>
<path d="M35.544 57.6626C35.5723 56.3716 36.182 54.997 37.1857 53.1254C36.977 52.4335 36.9241 51.7039 37.0308 50.9891C37.1375 50.2743 37.4012 49.592 37.8029 48.9912C37.5485 49.3845 37.2523 49.7491 36.9193 50.0785C37.3447 50.9434 36.6499 52.262 35.4164 51.6382L35.5865 51.9068C37.0895 52.7575 36.0969 54.6866 34.4947 53.9217L34.7932 54.1918C36.2678 54.9717 35.3462 56.8574 33.7582 56.1619C33.0634 55.8507 32.4963 55.6239 32.0284 55.4254C30.809 56.403 29.2919 56.6306 26.7681 56.2761L37.7141 62.2028C36.1537 60.4267 35.5014 59.0947 35.544 57.6626Z" stroke="#442D7C" stroke-width="0.25" stroke-linejoin="round"/>
<path d="M26.4166 56.0806L23.751 59.5693L36.6395 66.5594L38.1141 62.4185L26.4166 56.0806Z" stroke="#442D7C" stroke-width="0.25" stroke-linejoin="round"/>
</svg>
