<svg width="150" height="150" viewBox="0 0 150 150" fill="none" xmlns="http://www.w3.org/2000/svg">
<path d="M87.3597 71.1425C78.1308 68.1658 75.9182 58.8503 75.9182 58.8503C76.2281 58.4076 76.5306 57.9598 76.8256 57.5071L77.1241 52.7012C72.3033 51.3684 75.0398 45.4984 75.0398 45.4984C72.8292 42.2674 70.9841 38.801 69.5385 35.1628C66.8619 35.4236 64.2979 36.3708 62.0946 37.9128C63.9371 44.0641 67.049 51.6587 73.6615 61.7771C70.8161 65.3293 66.1714 70.9455 63.9341 73.8664L46.0988 65.8815L42.0332 74.2902L62.0521 84.5407C63.4348 85.1875 64.9998 85.3319 66.4775 84.9488C67.9552 84.5658 69.2531 83.6794 70.1474 82.4423L74.5287 76.4021C76.2868 79.0961 77.6338 81.308 82.5135 83.3497C87.7044 81.0139 89.9521 78.1849 91.8991 74.2902C90.2144 73.5131 88.6782 72.4479 87.3597 71.1425Z" fill="#05ACF6"/>
<path d="M87.5981 107.481L86.875 103.526L103.775 100.407L104.498 104.362L87.5981 107.481Z" fill="#05ACF6"/>
<path d="M102.388 104.149L99.7363 101.143L114.014 88.5535L116.664 91.5586L102.388 104.149Z" fill="#05ACF6"/>
<path d="M37.4805 44.0202C36.8808 44.0032 36.2989 44.2251 35.8629 44.6371C35.4268 45.0491 35.1722 45.6175 35.1552 46.2172C35.1382 46.8169 35.3601 47.3987 35.7721 47.8348C36.1841 48.2709 36.7525 48.5255 37.3522 48.5425C37.9519 48.5595 38.5338 48.3376 38.9698 47.9256C39.4059 47.5136 39.6605 46.9452 39.6775 46.3455C39.6945 45.7458 39.4726 45.1639 39.0606 44.7279C38.6486 44.2918 38.0802 44.0372 37.4805 44.0202Z" fill="#05ACF6"/>
<path d="M39.3235 33.614C39.9286 32.6951 40.2987 31.6416 40.4013 30.5462C40.5039 29.4508 40.3358 28.347 39.9117 27.3317C39.4877 26.3165 38.8208 25.421 37.9696 24.7239C37.1184 24.0268 36.109 23.5495 35.0301 23.334C33.9512 23.1185 32.8358 23.1713 31.7821 23.4878C30.7284 23.8043 29.7686 24.3748 28.9871 25.1492C28.2055 25.9236 27.6262 26.8781 27.3 27.9289C26.9738 28.9796 26.9108 30.0944 27.1164 31.1752C27.1335 31.2901 27.1567 31.4036 27.1873 31.5155L30.4476 30.9066C30.3128 30.4621 30.2701 29.9948 30.3222 29.5333C30.3743 29.0717 30.5201 28.6257 30.7506 28.2225C30.9812 27.8192 31.2916 27.4674 31.663 27.1883C32.0343 26.9093 32.4587 26.7091 32.9101 26.5998C33.3615 26.4906 33.8305 26.4747 34.2883 26.5531C34.7462 26.6315 35.1831 26.8025 35.5725 27.0557C35.9619 27.3089 36.2955 27.639 36.5528 28.0256C36.8102 28.4123 36.9858 28.8474 37.0691 29.3044C37.3676 30.9319 36.4833 32.1812 35.3818 33.558C34.6587 34.4202 34.2624 35.5095 34.2625 36.6348C34.2669 38.3153 34.4669 39.9907 34.8595 41.625L38.2176 40.9869C37.8573 39.4836 37.6999 37.9388 37.7497 36.3937C37.9624 35.3154 38.7422 34.493 39.3235 33.614Z" fill="#05ACF6"/>
<path fill-rule="evenodd" clip-rule="evenodd" d="M30.7086 5.97509C36.1532 5.30938 41.6764 6.13824 46.6858 8.3728C56.3244 12.6667 62.2451 21.0411 64.0115 30.1894C64.0115 30.1894 64.0548 31.4222 64.148 32.3722C63.5592 32.7274 62.4003 31.7401 61.3877 30.8767C60.4743 30.0984 59.6795 29.4215 59.5302 29.9238C59.387 30.4066 59.7317 30.9237 60.2795 31.7446C61.0145 32.8461 62.1138 34.4938 62.8884 37.3392L62.1421 37.9459C62.3682 38.8504 62.9033 40.3713 63.5324 42.1623L63.7906 42.8988C62.5384 48.3136 59.7661 53.4702 55.3856 57.6872C51.6441 61.3062 47.0313 63.8973 41.9941 65.2094C41.8822 65.2393 41.1195 64.7438 40.2128 64.155C38.9733 63.349 37.4644 62.3692 36.9793 62.3155C36.2099 62.2297 38.0293 64.5766 38.8151 65.5915C38.8867 65.6826 38.9494 65.7631 39.0002 65.8303C35.0358 66.4498 30.9879 66.2735 27.0924 65.3118C23.1969 64.3501 19.532 62.6222 16.3114 60.229C13.0909 57.8357 10.3792 54.8251 8.33463 51.3727C6.29004 47.9202 4.95349 44.0952 4.40297 40.1207C3.85245 36.1463 4.09897 32.1019 5.12816 28.2238C6.15735 24.3456 7.9486 20.7112 10.3974 17.5327C12.8462 14.3542 15.9034 11.6952 19.3908 9.71082C22.8782 7.72647 26.7259 6.45653 30.7093 5.97509H30.7086ZM31.5041 12.4428C35.7634 11.9219 40.0841 12.5702 44.003 14.3182C59.4444 21.1971 62.6854 41.4638 50.8088 52.8956C48.1142 55.5024 44.8382 57.4308 41.2512 58.5217C37.6643 59.6126 33.8693 59.8347 30.1796 59.1695C26.4899 58.5044 23.0113 56.9712 20.0311 54.6964C17.0508 52.4217 14.6544 49.4706 13.0397 46.087C11.425 42.7034 10.6382 38.9842 10.7445 35.2365C10.8507 31.4889 11.8468 27.8202 13.6506 24.5335C15.4544 21.2467 18.0142 18.4362 21.1185 16.3339C24.2228 14.2316 27.7826 12.8979 31.5041 12.4428Z" fill="#764ED7"/>
<path d="M116.706 97.0455L118.436 94.4224L115.77 92.324L114.367 93.5859L116.706 97.0455Z" fill="#764ED7"/>
<path d="M125.865 100.225L123.626 105.374C122.951 106.943 121.788 108.252 120.309 109.106L131.481 117.817L138.06 109.707L125.865 100.225Z" fill="#764ED7"/>
<path d="M114.083 60.9763C115.945 61.2365 117.835 60.7641 119.356 59.6586C120.876 58.5532 121.909 56.9009 122.235 55.0496C119.941 54.3115 117.522 54.0404 115.121 54.2522C112.72 54.4641 110.386 55.1546 108.256 56.2831C108.714 57.5181 109.497 58.6062 110.523 59.4324C111.549 60.2585 112.779 60.792 114.083 60.9763Z" fill="#764ED7"/>
<path d="M71.364 58.1433L61.0427 50.1189C59.5588 53.2643 57.4114 56.051 54.748 58.2873L68.0313 68.7647L73.6744 61.7753L71.364 58.1433Z" fill="#764ED7"/>
<path d="M79.6431 69.4255L74.541 76.4582C74.9002 77.1179 75.3177 77.744 75.7887 78.329L79.6431 69.4255Z" fill="#764ED7"/>
<path d="M77.0371 54.1709L79.0639 52.7396C78.4214 52.7815 77.7764 52.7672 77.1364 52.697L77.0371 54.1709Z" fill="#764ED7"/>
<path d="M90.5222 61.5583C90.6714 60.4152 90.4118 59.2561 89.7893 58.2857C89.1668 57.3154 88.2214 56.5963 87.1201 56.2555C87.2609 55.8506 87.3046 55.4184 87.2477 54.9936C86.3119 48.1601 84.894 43.9491 82.5545 41.5394C80.9665 39.8798 77.7203 40.1499 75.792 42.5737C73.8771 45.0013 74.3584 48.2034 74.3458 48.4691C74.54 46.0837 75.6533 43.8672 77.4509 42.2872C77.954 41.8741 78.5457 41.5829 79.18 41.4364C79.0807 43.5924 80.7963 47.0087 82.8664 46.158C84.2507 45.593 84.4171 48.0982 81.6896 48.0982C80.9523 54.01 81.1792 60.7845 83.9015 66.303L84.341 67.1388C85.679 69.5758 87.5918 71.6492 89.9133 73.1789C91.455 73.2594 92.9656 72.7243 94.1128 71.6912C95.26 70.6582 95.95 69.2118 96.031 67.6701C96.1113 66.1285 95.5761 64.6182 94.5431 63.4711C93.51 62.324 92.0638 61.6341 90.5222 61.5531V61.5583Z" fill="#764ED7"/>
<path d="M116.706 97.0455L118.436 94.4224L115.77 92.324L114.367 93.5859L116.706 97.0455Z" stroke="#442D7C" stroke-width="0.25" stroke-linejoin="round"/>
<path d="M125.865 100.225L123.626 105.374C122.951 106.943 121.788 108.252 120.309 109.106L131.481 117.817L138.06 109.707L125.865 100.225Z" stroke="#442D7C" stroke-width="0.25"/>
<path d="M71.364 58.1433L61.0427 50.1189C59.5588 53.2643 57.4114 56.051 54.748 58.2873L68.0313 68.7647L73.6744 61.7753L71.364 58.1433Z" stroke="#442D7C" stroke-width="0.25"/>
<path d="M74.825 45.1977C72.684 42.0674 70.9139 38.6989 69.5505 35.1599C66.8733 35.4197 64.309 36.3684 62.1074 37.9136C63.9507 44.0664 67.0551 51.652 73.6743 61.7749" stroke="#442D7C" stroke-width="0.25" stroke-linecap="round" stroke-linejoin="round"/>
<path d="M64.3762 33.6301C63.9786 31.5617 63.8263 29.4537 63.9224 27.3496C63.8801 26.2624 63.9552 25.1738 64.1463 24.1027C64.6687 21.1647 65.3844 21.4513 65.6209 24.287C66.1993 31.2331 67.8597 33.5308 68.4701 35.3174" stroke="#442D7C" stroke-width="0.25" stroke-linecap="round" stroke-linejoin="round"/>
<path d="M64.0202 24.9956C63.5448 23.9929 62.929 23.0632 62.1912 22.2344C61.9673 22.0195 61.4449 21.9979 62.0919 23.7941C62.2307 24.1777 62.7852 25.8358 62.9568 26.4313C63.3548 27.6194 63.6768 28.8315 63.921 30.0604" stroke="#442D7C" stroke-width="0.25" stroke-linecap="round" stroke-linejoin="round"/>
<path d="M64.1213 31.9701C64.022 33.3738 61.8542 31.203 60.8318 30.3821C59.9117 29.6433 58.5931 29.1739 60.449 31.8567C61.5488 33.5683 62.3808 35.4378 62.9161 37.4006" stroke="#442D7C" stroke-width="0.25" stroke-linecap="round" stroke-linejoin="round"/>
<path d="M117.713 98.5209L114.367 93.5867" stroke="#442D7C" stroke-width="0.25" stroke-linecap="round" stroke-linejoin="round"/>
<path d="M77.1581 52.6619C77.1581 52.6619 77.0014 54.626 76.8455 57.5043C76.5325 57.9481 76.2253 58.3959 75.9238 58.8475" stroke="#442D7C" stroke-width="0.25" stroke-linecap="round" stroke-linejoin="round"/>
<path d="M79.0646 52.7849L77.043 54.1565" stroke="#442D7C" stroke-width="0.25" stroke-linecap="round" stroke-linejoin="round"/>
<path d="M100.447 100.508L89.1191 88.0173" stroke="#442D7C" stroke-width="0.25" stroke-linecap="round" stroke-linejoin="round"/>
<path d="M79.6308 69.4138L75.7891 78.3173" stroke="#442D7C" stroke-width="0.25" stroke-linecap="round" stroke-linejoin="round"/>
<path d="M108.841 93.1059C104.439 86.0318 98.0476 80.4143 90.4668 76.9578" stroke="#442D7C" stroke-width="0.25" stroke-linecap="round" stroke-linejoin="round"/>
<path d="M88.0544 103.308L82.5508 83.3357" stroke="#442D7C" stroke-width="0.25" stroke-linecap="round" stroke-linejoin="round"/>
<path d="M104.163 102.591L104.504 104.364L87.604 107.483L86.8809 103.527L99.7402 101.16" stroke="#442D7C" stroke-width="0.25" stroke-linecap="round" stroke-linejoin="round"/>
<path d="M89.8972 73.2005C91.416 73.2408 92.8905 72.6867 94.007 71.6562C95.1234 70.6257 95.7936 69.2001 95.8748 67.683C95.956 66.1658 95.4418 64.6769 94.4418 63.5331C93.4417 62.3893 92.0347 61.681 90.5203 61.559C90.6695 60.4158 90.4099 59.2567 89.7874 58.2864C89.1649 57.3161 88.2194 56.597 87.1181 56.2561C87.5771 54.9255 86.1577 46.5638 83.6018 42.8311C81.2034 39.3282 77.6975 40.1483 75.7759 42.5744C73.8543 45.0004 74.3423 48.2033 74.3296 48.4697" stroke="#442D7C" stroke-width="0.25" stroke-linecap="round" stroke-linejoin="round"/>
<path d="M116.708 97.0472L126.364 82.3587C128.206 79.3954 128.135 78.4596 128.958 76.4186C132.814 74.3201 141.562 71.853 145.886 71.2859C142.71 76.2485 135.267 79.1827 132.332 85.3363L123.613 105.355C123.098 106.541 122.303 107.584 121.296 108.396C120.29 109.207 119.102 109.763 117.834 110.015C116.566 110.267 115.256 110.208 114.015 109.843C112.775 109.479 111.641 108.82 110.711 107.922L104.699 102.123" stroke="#442D7C" stroke-width="0.25" stroke-linecap="round" stroke-linejoin="round"/>
<path d="M102.388 104.149L99.7363 101.143L114.014 88.5535L116.664 91.5586L102.388 104.149Z" stroke="#442D7C" stroke-width="0.25" stroke-linecap="round" stroke-linejoin="round"/>
<path d="M38.7984 67.0028C40.3439 66.8468 37.7746 64.3961 37.3522 63.6447C36.7813 62.626 36.1761 61.4462 38.841 63.3185C40.9999 64.6812 43.2392 65.912 45.5468 67.0043" stroke="#442D7C" stroke-width="0.25" stroke-linecap="round" stroke-linejoin="round"/>
<path d="M90.3262 106.971L91.5023 111.196C92.2695 113.911 94.065 116.22 96.5074 117.633C98.9461 119.051 121.219 129.741 121.219 129.741C127.16 133.099 129.584 140.714 134.32 144.231C134.05 139.878 132.179 130.974 130.35 126.992C128.398 126.045 127.448 126.041 124.736 124.101L103.454 109.143L102.236 104.776" stroke="#442D7C" stroke-width="0.25" stroke-linecap="round" stroke-linejoin="round"/>
<path d="M79.6323 69.4138C78.8248 70.463 73.9824 77.1636 70.1474 82.4575C69.2519 83.6932 67.954 84.5784 66.4767 84.9611C64.9994 85.3438 63.4349 85.2 62.0521 84.5544L42.0332 74.3054L46.0876 65.8982L63.923 73.8659" stroke="#442D7C" stroke-width="0.25" stroke-linecap="round" stroke-linejoin="round"/>
<path d="M87.3574 71.1423C88.6851 72.4431 90.2209 73.5128 91.9014 74.3072C90.0208 78.6354 86.803 81.4376 82.5225 83.3637C77.6293 81.3152 76.2898 79.1242 74.5234 76.4183" stroke="#442D7C" stroke-width="0.25" stroke-linecap="round" stroke-linejoin="round"/>
<path d="M113.191 89.2642C104.407 77.4913 95.1 75.628 91.9023 74.3093" stroke="#442D7C" stroke-width="0.25" stroke-linecap="round" stroke-linejoin="round"/>
<path d="M75.9181 58.8519C75.9181 58.8519 78.1299 68.1666 87.3596 71.1441C85.9364 69.7406 84.7618 68.1057 83.8858 66.3091C81.1567 60.7981 80.9366 54.0169 81.6739 48.1051H82.0425C84.2813 47.9775 84.2395 45.594 82.8507 46.1649C80.7799 47.0134 79.0657 43.5985 79.165 41.4441C78.5311 41.5917 77.9394 41.8825 77.4352 42.2941C76.3867 43.2121 75.5644 44.3599 75.0326 45.648C74.5007 46.9361 74.2735 48.3297 74.3688 49.72C74.633 51.5222 75.874 52.9625 79.0657 52.7863" stroke="#442D7C" stroke-width="0.25" stroke-linecap="round" stroke-linejoin="round"/>
<path d="M75.9193 58.8523C74.5865 60.8672 64.1942 73.1863 62.8047 75.4407" stroke="#442D7C" stroke-width="0.25" stroke-linecap="round" stroke-linejoin="round"/>
<path d="M33.5137 68.6199C32.8331 68.7049 31.4301 68.9893 31.0182 69.0736C29.1474 69.4587 29.3884 69.9527 29.6861 69.981C30.8906 70.0952 32.8473 70.081 33.9674 70.2221C35.7681 70.4497 39.2419 70.775 40.603 71.5832" stroke="#442D7C" stroke-width="0.25" stroke-linecap="round" stroke-linejoin="round"/>
<path d="M33.8649 70.2078C33.5664 70.3212 33.2977 70.4204 33.1701 70.4772C31.3836 71.1577 31.7104 71.6152 32.0075 71.5965C33.2134 71.5256 35.1417 71.1719 36.2753 71.1286C37.6385 71.1032 39.0011 71.2076 40.3446 71.4406" stroke="#442D7C" stroke-width="0.25" stroke-linecap="round" stroke-linejoin="round"/>
<path d="M85.6605 29.4736C85.6386 29.8383 85.5088 30.1884 85.2876 30.4793C85.0664 30.7701 84.7637 30.9887 84.418 31.1071C84.1597 31.1958 83.885 31.2262 83.6136 31.1961C83.3422 31.1659 83.0809 31.0759 82.8485 30.9326C82.616 30.7893 82.4182 30.5963 82.2694 30.3674C82.1205 30.1385 82.0242 29.8794 81.9875 29.6088C81.9508 29.3382 81.9745 29.0629 82.057 28.8026C82.1394 28.5422 82.2786 28.3035 82.4644 28.1034C82.6503 27.9033 82.8782 27.747 83.1317 27.6455C83.3852 27.5441 83.6581 27.5002 83.9307 27.5169C84.4188 27.549 84.8744 27.7726 85.1984 28.1391C85.5224 28.5055 85.6885 28.9852 85.6605 29.4736Z" stroke="#442D7C" stroke-width="0.25" stroke-linecap="round" stroke-linejoin="round"/>
<path d="M134.673 74.0785C135.085 70.0833 134.153 66.0648 132.024 62.6592C129.894 59.2536 126.69 56.6554 122.918 55.276C119.783 54.1304 116.392 53.8764 113.122 54.5424C109.851 55.2084 106.83 56.7683 104.393 59.0487C101.955 61.329 100.198 64.2405 99.3168 67.4595C98.4352 70.6786 98.4635 74.079 99.3985 77.2829" stroke="#442D7C" stroke-width="0.25" stroke-linecap="round" stroke-linejoin="round"/>
<path d="M115.486 90.2266C117.515 90.3707 119.553 90.1639 121.512 89.6169" stroke="#442D7C" stroke-width="0.25" stroke-linecap="round" stroke-linejoin="round"/>
<path d="M116.097 46.5892C115.034 46.4428 113.952 46.5336 112.929 46.8551C111.906 47.1767 110.966 47.721 110.179 48.4489C109.391 49.1768 108.774 50.0703 108.373 51.065C107.972 52.0597 107.796 53.1309 107.858 54.2017C107.942 55.6339 108.449 57.0089 109.314 58.1532C110.18 59.2975 111.365 60.1598 112.72 60.631C114.075 61.1023 115.539 61.1615 116.928 60.8011C118.316 60.4407 119.567 59.6769 120.522 58.6061C121.476 57.5349 122.092 56.2048 122.29 54.7838C122.554 52.8761 122.049 50.942 120.888 49.4057C119.727 47.8695 118.004 46.8566 116.097 46.5892Z" stroke="#442D7C" stroke-width="0.25" stroke-linecap="round" stroke-linejoin="round"/>
<path d="M62.4924 24.9524C60.6843 20.3408 57.7709 16.2441 54.0082 13.0225C50.2456 9.80095 45.7491 7.5532 40.914 6.47693C36.079 5.40067 31.0536 5.52886 26.2797 6.85024C21.5058 8.17161 17.1297 10.6457 13.5363 14.0549C9.94278 17.4641 7.24199 21.7041 5.67139 26.4018C4.10079 31.0996 3.70849 36.1113 4.529 40.9963C5.34951 45.8812 7.35768 50.4898 10.3769 54.4166C13.3962 58.3434 17.334 61.4683 21.8441 63.5164C27.2183 65.9137 33.1669 66.7207 38.9855 65.8417" stroke="#442D7C" stroke-width="0.25" stroke-linecap="round" stroke-linejoin="round"/>
<path d="M63.7693 42.8445C62.8506 46.8167 61.1354 50.5611 58.7275 53.8511C56.3196 57.1411 53.2691 59.9083 49.7607 61.985C47.3363 63.4164 44.7206 64.4953 41.9922 65.1894" stroke="#442D7C" stroke-width="0.25" stroke-linecap="round" stroke-linejoin="round"/>
<path d="M44.0002 14.3177C40.0815 12.5697 35.7608 11.9213 31.5016 12.4421C27.2424 12.9629 23.2053 14.6332 19.8232 17.274C16.4411 19.9147 13.8415 23.4262 12.3034 27.432C10.7652 31.4378 10.3464 35.7867 11.0919 40.0124C11.8374 44.2381 13.7191 48.1811 16.5351 51.4187C19.3511 54.6563 22.9953 57.0664 27.0769 58.3904C31.1585 59.7144 35.5234 59.9024 39.7037 58.9343C43.884 57.9662 47.722 55.8785 50.806 52.8951C62.6826 41.4633 59.4416 21.1966 44.0002 14.3177Z" stroke="#442D7C" stroke-width="0.25" stroke-linecap="round" stroke-linejoin="round"/>
<path d="M22.4805 85.5066L28.7758 90.4968L35.1981 80.6433" stroke="#442D7C" stroke-width="0.25" stroke-linecap="round" stroke-linejoin="round"/>
<path d="M77.6076 89.8865L71.4824 90.6656" stroke="#442D7C" stroke-width="0.25" stroke-linecap="round" stroke-linejoin="round"/>
<path d="M74.9224 93.3474L74.1426 87.2087" stroke="#442D7C" stroke-width="0.25" stroke-linecap="round" stroke-linejoin="round"/>
<path d="M39.6787 46.3455C39.6661 46.7929 39.5211 47.2264 39.2621 47.5914C39.0031 47.9564 38.6417 48.2363 38.2236 48.3959C37.8055 48.5554 37.3494 48.5874 36.9132 48.4878C36.4769 48.3881 36.0799 48.1613 35.7725 47.8361C35.4651 47.5108 35.2611 47.1017 35.1862 46.6605C35.1113 46.2193 35.169 45.7658 35.3518 45.3573C35.5347 44.9489 35.8346 44.6038 36.2136 44.3658C36.5926 44.1278 37.0336 44.0075 37.481 44.0202C38.0802 44.0387 38.6477 44.2937 39.0595 44.7294C39.4714 45.1652 39.6939 45.7462 39.6787 46.3455Z" stroke="#442D7C" stroke-width="0.25" stroke-linecap="round" stroke-linejoin="round"/>
<path d="M39.3118 33.614C39.9169 32.6951 40.287 31.6416 40.3896 30.5462C40.4921 29.4508 40.324 28.347 39.9 27.3317C39.476 26.3165 38.8091 25.421 37.9579 24.7239C37.1067 24.0268 36.0972 23.5495 35.0183 23.334C33.9395 23.1185 32.8241 23.1713 31.7704 23.4878C30.7167 23.8043 29.7569 24.3748 28.9754 25.1492C28.1938 25.9236 27.6145 26.8781 27.2883 27.9289C26.9621 28.9796 26.899 30.0944 27.1046 31.1752C27.1211 31.2901 27.1449 31.4036 27.1755 31.5155L30.4367 30.9066C30.3008 30.4619 30.2573 29.9941 30.3088 29.5319C30.3604 29.0698 30.5058 28.6231 30.7362 28.2192C30.9667 27.8153 31.2772 27.4628 31.6488 27.1833C32.0204 26.9038 32.4452 26.7032 32.8972 26.5938C33.3492 26.4844 33.8187 26.4686 34.277 26.5473C34.7353 26.6259 35.1726 26.7975 35.5622 27.0513C35.9518 27.3052 36.2854 27.636 36.5425 28.0234C36.7997 28.4108 36.9749 28.8468 37.0574 29.3044C37.3559 30.9319 36.4716 32.1812 35.3701 33.558C34.647 34.4202 34.2506 35.5095 34.2507 36.6348C34.2343 37.2393 34.2612 37.8445 34.3298 38.4459C34.4127 39.237 34.8604 41.625 34.8604 41.625L38.2185 40.9869C38.176 40.9869 37.7648 38.3221 37.7365 38.0243C37.6585 37.4836 37.6585 36.9345 37.7365 36.3937C37.9506 35.3154 38.7305 34.493 39.3118 33.614Z" stroke="#442D7C" stroke-width="0.25" stroke-linecap="round" stroke-linejoin="round"/>
<path d="M42.7234 72.8575C40.7381 71.5466 38.6357 70.4224 36.443 69.4994C34.6826 68.8559 32.8551 68.4135 30.9954 68.1808C28.2589 67.845 27.9462 67.1084 30.9245 66.7062C32.0203 66.5734 33.1249 66.526 34.2281 66.5644C36.3198 66.5913 38.4026 66.848 40.4384 67.33" stroke="#442D7C" stroke-width="0.25" stroke-linecap="round" stroke-linejoin="round"/>
</svg>
