<svg width="151" height="150" viewBox="0 0 151 150" fill="none" xmlns="http://www.w3.org/2000/svg">
<path d="M133.251 113.791H23.7339V120.086H133.251V113.791Z" stroke="#442D7C" stroke-width="0.25" stroke-linecap="round" stroke-linejoin="round"/>
<path d="M31.0054 47.2485V50.4843C32.4069 51.2544 33.6716 52.2506 34.7486 53.4327V50.9775H122.231V110.046H48.4721L48.7572 113.789H125.975V47.2485H31.0054Z" fill="#764ED7"/>
<path d="M48.7572 113.789H125.975V47.2485H31.0054V50.4843" stroke="#442D7C" stroke-width="0.25" stroke-linecap="round" stroke-linejoin="round"/>
<path d="M34.7495 53.431V50.978H122.232V110.047H48.4731" stroke="#442D7C" stroke-width="0.25" stroke-linecap="round" stroke-linejoin="round"/>
<path d="M40.7804 68.4317C39.8924 66.829 38.5394 65.5333 36.8999 64.7153" stroke="#442D7C" stroke-width="0.25" stroke-linecap="round" stroke-linejoin="round"/>
<path d="M62.873 92.1226C61.226 94.8979 59.2537 96.7135 56.6739 96.7135C54.4881 96.7135 52.7404 95.4105 51.2554 93.3278" stroke="#442D7C" stroke-width="0.25" stroke-linecap="round" stroke-linejoin="round"/>
<path d="M122.09 64.3052C111.187 64.3052 111.187 96.7178 100.283 96.7178C89.3798 96.7178 89.3798 64.3052 78.4763 64.3052C73.1347 64.3052 70.4101 72.0841 67.7378 80.0205" stroke="#442D7C" stroke-width="0.25" stroke-linecap="round" stroke-linejoin="round"/>
<path d="M57.4852 89.6294H52.1577" stroke="#442D7C" stroke-width="0.25" stroke-linecap="round" stroke-linejoin="round"/>
<path d="M118.745 89.6294H85.8784" stroke="#442D7C" stroke-width="0.25" stroke-linecap="round" stroke-linejoin="round"/>
<path d="M114.589 87.3882L118.744 89.6284L114.589 91.8687" stroke="#442D7C" stroke-width="0.25" stroke-linecap="round" stroke-linejoin="round"/>
<path d="M107.334 75.9478C105.393 76.5575 105.008 71.6941 105.008 71.6941C104.188 73.9769 102.247 78.7395 101.038 75.1679C99.9637 71.9904 101.934 70.4666 103.576 70.2621C104.116 70.2121 104.657 70.3578 105.099 70.6728C105.542 70.9878 105.856 71.4511 105.986 71.9785" stroke="#442D7C" stroke-width="0.25" stroke-linecap="round" stroke-linejoin="round"/>
<path d="M51.2671 60.7059L56.3573 70.234L59.4482 56.7642H79.6955" stroke="#442D7C" stroke-width="0.25" stroke-linecap="round" stroke-linejoin="round"/>
<path d="M78.4897 64.3052V85.6599" stroke="#442D7C" stroke-width="0.25" stroke-linecap="round" stroke-linejoin="round"/>
<path d="M80.9427 64.9146L78.4897 67.0272" stroke="#442D7C" stroke-width="0.25" stroke-linecap="round" stroke-linejoin="round"/>
<path d="M83.9486 67.7505L78.4897 72.4444" stroke="#442D7C" stroke-width="0.25" stroke-linecap="round" stroke-linejoin="round"/>
<path d="M85.9903 71.4097L78.4897 77.8752" stroke="#442D7C" stroke-width="0.25" stroke-linecap="round" stroke-linejoin="round"/>
<path d="M87.6209 75.4087L78.4897 83.2921" stroke="#442D7C" stroke-width="0.25" stroke-linecap="round" stroke-linejoin="round"/>
<path d="M89.1372 79.7739L80.7046 86.8476" stroke="#442D7C" stroke-width="0.25" stroke-linecap="round" stroke-linejoin="round"/>
<path d="M90.5035 83.7729L84.5425 88.9124" stroke="#442D7C" stroke-width="0.25" stroke-linecap="round" stroke-linejoin="round"/>
<path d="M92.031 87.8716L90.0034 89.6298" stroke="#442D7C" stroke-width="0.25" stroke-linecap="round" stroke-linejoin="round"/>
<path d="M23.7339 117.576H133.251" stroke="#442D7C" stroke-width="0.25" stroke-linecap="round" stroke-linejoin="round"/>
<path d="M129.912 42.6257C124.921 37.4362 116.712 37.0109 110.53 41.222L108.276 38.8683L104.816 42.2003L129.345 67.722L132.805 64.39L130.55 62.0505C135.017 56.0388 134.903 47.8151 129.912 42.6257ZM127.388 58.7611L113.692 44.5114C117.889 42.0869 123.177 42.5406 126.453 45.9577C129.728 49.3747 129.983 54.6634 127.388 58.7611Z" fill="#FECFC4"/>
<path d="M130.55 62.0505C135.017 56.0388 134.903 47.8151 129.912 42.6257C124.921 37.4362 116.712 37.0109 110.53 41.222L108.276 38.8683L104.816 42.2003L129.345 67.722L132.805 64.39L130.55 62.0505ZM126.453 45.9577C129.728 49.3747 129.983 54.6634 127.388 58.7611L113.692 44.5114C117.889 42.0891 123.177 42.5406 126.453 45.9577Z" stroke="#442D7C" stroke-width="0.25" stroke-linecap="round" stroke-linejoin="round"/>
<path d="M68.8567 24.1299L65.1128 30.6133L71.5962 34.3565L75.3394 27.8731L68.856 24.1299H68.8567Z" stroke="#442D7C" stroke-width="0.25" stroke-linecap="round" stroke-linejoin="round"/>
<path d="M11.5367 72.6008L4.43311 73.3665L7.32557 66.8301L11.5367 72.6008Z" stroke="#442D7C" stroke-width="0.25" stroke-linecap="round" stroke-linejoin="round"/>
<path d="M142.055 79.1084L142.041 87.4597" stroke="#442D7C" stroke-width="0.25" stroke-linecap="round" stroke-linejoin="round"/>
<path d="M146.22 83.2915L137.869 83.2773" stroke="#442D7C" stroke-width="0.25" stroke-linecap="round" stroke-linejoin="round"/>
<path d="M88.7419 104.66C85.8188 100.41 84.5875 99.1518 84.0151 98.6787C85.3338 99.9406 87.1113 105.539 88.1747 107.198C88.5292 107.765 88.9262 107.637 88.9687 107.042C88.9645 106.243 88.8886 105.446 88.7419 104.66Z" fill="#FECFC4"/>
<path d="M88.7419 104.66C85.8188 100.41 84.5875 99.1518 84.0151 98.6787C85.3338 99.9406 87.1113 105.539 88.1747 107.198C88.5292 107.765 88.9262 107.637 88.9687 107.042C88.9645 106.243 88.8886 105.446 88.7419 104.66Z" stroke="#442D7C" stroke-width="0.25" stroke-linecap="round" stroke-linejoin="round"/>
<path d="M48.0157 104.066C47.951 104.27 47.8515 104.461 47.7217 104.631C47.5344 104.892 46.703 105.928 46.071 106.725C45.9699 106.928 45.827 107.109 45.6516 107.254L42.9099 109.225L41.88 110.43C41.6934 110.647 41.4561 110.815 41.189 110.92C40.9219 111.024 40.6334 111.06 40.3487 111.027C36.9309 110.564 33.4832 110.384 31.7669 110.191C32.1833 111.31 32.8713 112.061 33.719 112.154C29.4787 112.041 25.2506 111.646 21.0626 110.971C20.0723 115.884 19.4531 120.865 19.2104 125.87H49.6791L48.0157 104.066Z" fill="#FECFC4"/>
<path d="M29.53 100.983L29.8099 99.8505C27.8987 99.7856 26.0936 99.6617 24.4854 99.499C24.4854 99.499 24.3667 99.7498 24.1675 100.236C25.6652 100.481 27.4965 100.75 29.53 100.983Z" fill="#FECFC4"/>
<path d="M48.0151 104.066L49.6778 125.87" stroke="#442D7C" stroke-width="0.25" stroke-linecap="round" stroke-linejoin="round"/>
<path d="M24.1675 100.233C24.3682 99.7431 24.4854 99.4961 24.4854 99.4961" stroke="#442D7C" stroke-width="0.25" stroke-linecap="round" stroke-linejoin="round"/>
<path d="M19.2104 125.87C19.4534 120.863 20.0726 115.882 21.0626 110.969" stroke="#442D7C" stroke-width="0.25" stroke-linecap="round" stroke-linejoin="round"/>
<path d="M29.5288 100.981C24.1969 100.373 20.2007 99.4968 20.2007 99.4968C21.3201 96.7177 22.1006 94.3924 23.32 91.9111L24.4827 99.4968C26.0908 99.6557 27.8953 99.7841 29.8072 99.8483" stroke="#442D7C" stroke-width="0.25" stroke-linecap="round" stroke-linejoin="round"/>
<path d="M48.7385 88.449C48.7885 87.4289 48.8094 86.414 48.8019 85.405C51.8929 87.2341 78.0385 99.0875 81.4698 100.479C84.3951 97.7494 86.2882 94.0933 86.8293 90.1288C82.4541 87.9117 47.4438 68.251 39.1178 68.251C36.6448 72.0569 31.0151 71.3681 26.6689 70.1651C26.4988 70.236 26.3152 70.3218 26.1465 70.389C22.1914 72.0054 16.2602 74.671 10.2663 90.5086C4.8702 104.766 9.5559 108.066 13.5983 109.225C20.4019 111.174 25.3436 111.798 33.7232 112.153" stroke="#442D7C" stroke-width="0.25" stroke-linecap="round" stroke-linejoin="round"/>
<path d="M31.7671 110.189C32.1835 111.309 32.8715 112.06 33.7193 112.153C34.5931 112.249 35.4551 111.625 36.1125 110.566C34.3185 110.408 32.7521 110.298 31.7671 110.189Z" fill="#764ED7"/>
<path d="M31.5069 105.728C31.4598 105.975 31.4217 106.224 31.3927 106.474C31.0681 109.432 32.1113 111.973 33.7225 112.15C34.5978 112.246 35.4583 111.627 36.1157 110.563" stroke="#442D7C" stroke-width="0.25" stroke-linecap="round" stroke-linejoin="round"/>
<path d="M23.5648 91.4277C23.4797 91.5837 23.4088 91.7397 23.3237 91.9098" stroke="#442D7C" stroke-width="0.25" stroke-linecap="round" stroke-linejoin="round"/>
<path d="M48.8006 85.4036C48.7897 82.9667 48.5858 80.5346 48.1909 78.1299" stroke="#442D7C" stroke-width="0.25" stroke-linecap="round" stroke-linejoin="round"/>
<path d="M26.6694 70.1614C31.0156 71.3643 36.6453 72.0524 39.1184 68.2473C38.1139 68.2473 36.158 67.7502 35.4886 66.8577C35.2991 66.2682 35.1752 65.6593 35.12 65.0429C36.3252 64.9578 37.9386 64.6153 38.7497 63.469C39.6542 62.1907 38.5027 58.44 35.3916 54.2103C31.5111 48.941 29.3089 55.0468 29.9753 58.1378C29.9753 59.1527 29.0194 58.5721 28.6567 58.3788C26.4299 57.1893 25.4426 60.8944 29.4776 62.0086C29.9022 62.1258 30.6828 67.8644 30.4843 67.8368C30.4813 68.0346 28.7962 69.2398 26.6694 70.1614Z" fill="#FECFC4"/>
<path d="M26.6694 70.1614C31.0156 71.3643 36.6453 72.0524 39.1184 68.2473C38.1139 68.2473 36.158 67.7502 35.4886 66.8577C35.2991 66.2682 35.1752 65.6593 35.12 65.0429C36.3252 64.9578 37.9386 64.6153 38.7497 63.469C39.6542 62.1907 38.5027 58.44 35.3916 54.2103C31.5111 48.941 29.3089 55.0468 29.9753 58.1378C29.9753 59.1527 29.0194 58.5721 28.6567 58.3788C26.4299 57.1893 25.4426 60.8944 29.4776 62.0086C29.9022 62.1258 30.6828 67.8644 30.4843 67.8368C30.4813 68.0346 28.7962 69.2398 26.6694 70.1614Z" stroke="#442D7C" stroke-width="0.25" stroke-linecap="round" stroke-linejoin="round"/>
<path d="M39.1205 68.248L42.0309 72.7569L35.0549 70.8853L31.255 75.0255L26.6753 70.1622" stroke="#442D7C" stroke-width="0.25" stroke-linecap="round" stroke-linejoin="round"/>
<path d="M20.206 99.4961L18.4194 99.1416" stroke="#442D7C" stroke-width="0.25" stroke-linecap="round" stroke-linejoin="round"/>
<path d="M42.6577 91.1346L36.437 76.0469L36.5288 89.1421L42.6577 91.1346Z" fill="#764ED7"/>
<path d="M42.6577 91.1346L36.437 76.0469L36.5288 89.1421" stroke="#442D7C" stroke-width="0.25" stroke-linecap="round" stroke-linejoin="round"/>
<path d="M43.5737 91.4311L33.2799 88.085L32.8628 89.826L43.5737 91.4311Z" stroke="#442D7C" stroke-width="0.25" stroke-linecap="round" stroke-linejoin="round"/>
<path d="M48.07 103.577L48.8707 103.1L52.4295 88.4955L50.4729 87.4463L43.5678 91.4305L32.3099 89.7432L28.7085 104.291L30.3958 105.567L40.159 106.997" stroke="#442D7C" stroke-width="0.25" stroke-linecap="round" stroke-linejoin="round"/>
<path d="M43.5702 91.4277L45.5127 92.6188L42.3374 105.521" stroke="#442D7C" stroke-width="0.25" stroke-linecap="round" stroke-linejoin="round"/>
<path d="M52.4317 88.4951L45.5124 92.6211L33.9993 90.9197L32.312 89.7428" stroke="#442D7C" stroke-width="0.25" stroke-linecap="round" stroke-linejoin="round"/>
<path d="M33.9974 90.9209L30.396 105.568" stroke="#442D7C" stroke-width="0.25" stroke-linecap="round" stroke-linejoin="round"/>
<path d="M47.3283 103.047C47.3037 103.122 46.2201 106.465 46.1343 106.65C46.7581 105.866 47.5439 104.885 47.7253 104.631C48.3977 103.731 48.0335 102.944 47.3283 103.047Z" stroke="#442D7C" stroke-width="0.25" stroke-linecap="round" stroke-linejoin="round"/>
<path d="M46.3272 101.062C46.3123 101.311 45.863 104.899 45.7951 105.424C45.7063 106.101 45.6041 106.08 42.9116 109.225L45.6533 107.253C45.9078 107.051 46.0996 106.781 46.2063 106.474C46.5466 105.439 47.3548 102.986 47.5391 102.39C47.9294 101.097 47.0757 100.409 46.3272 101.062Z" stroke="#442D7C" stroke-width="0.25" stroke-linecap="round" stroke-linejoin="round"/>
<path d="M44.4925 101.015C44.2665 102.082 43.9438 103.126 43.5283 104.134C43.3601 104.548 43.1037 104.921 42.7769 105.226L40.165 106.997L31.5085 105.728C31.1999 107.212 31.2874 108.75 31.7622 110.189C33.4786 110.382 36.9315 110.562 40.3545 111.025C40.6392 111.059 40.9278 111.022 41.1948 110.918C41.4619 110.814 41.6992 110.646 41.8859 110.428L45.4164 106.302C45.6253 106.052 45.7589 105.747 45.7992 105.423C45.941 104.331 46.2529 101.779 46.3216 101.155C46.4917 99.4411 44.8753 99.0866 44.4925 101.015Z" stroke="#442D7C" stroke-width="0.25" stroke-linecap="round" stroke-linejoin="round"/>
<path d="M40.1616 106.996L38.9624 107.636" stroke="#442D7C" stroke-width="0.25" stroke-linecap="round" stroke-linejoin="round"/>
<path d="M51.172 87.8154L46.6206 90.4952" stroke="#442D7C" stroke-width="0.25" stroke-linecap="round" stroke-linejoin="round"/>
<path d="M30.5803 101.427L29.687 105.028" stroke="#442D7C" stroke-width="0.25" stroke-linecap="round" stroke-linejoin="round"/>
<path d="M33.279 90.4224L31.2515 98.6744" stroke="#442D7C" stroke-width="0.25" stroke-linecap="round" stroke-linejoin="round"/>
<path d="M34.2064 59.7335C34.9975 59.3544 35.2497 58.2343 34.7698 57.2313C34.2893 56.2283 33.2587 55.7224 32.4677 56.1015C31.6766 56.4798 31.4252 57.6 31.905 58.6029C32.3848 59.6059 33.4154 60.1118 34.2064 59.7335Z" stroke="#442D7C" stroke-width="0.25" stroke-linecap="round" stroke-linejoin="round"/>
<path d="M38.5594 57.7039C39.04 57.474 39.04 56.4748 38.5594 55.4719C38.0795 54.4689 37.3012 53.842 36.8206 54.0719C36.3408 54.3017 36.34 55.3017 36.8206 56.3047C37.3004 57.3076 38.0795 57.9337 38.5594 57.7039Z" stroke="#442D7C" stroke-width="0.25" stroke-linecap="round" stroke-linejoin="round"/>
<path d="M34.7671 57.216L36.823 56.2944" stroke="#442D7C" stroke-width="0.25" stroke-linecap="round" stroke-linejoin="round"/>
<path d="M31.6907 57.9121L29.9624 58.0785" stroke="#442D7C" stroke-width="0.25" stroke-linecap="round" stroke-linejoin="round"/>
<path d="M35.0465 70.8848L33.8413 73.5362L36.436 76.0458L37.4711 72.6855L35.0465 70.8848Z" fill="#764ED7"/>
<path d="M35.0465 70.8848L33.8413 73.5362L36.436 76.0458L37.4711 72.6855L35.0465 70.8848Z" stroke="#442D7C" stroke-width="0.25" stroke-linecap="round" stroke-linejoin="round"/>
<path d="M34.8901 125.87L38.8318 114.3" stroke="#442D7C" stroke-width="0.25" stroke-linecap="round" stroke-linejoin="round"/>
<path d="M30.2177 65.0031C29.9938 63.5479 29.6901 62.0651 29.4759 62.0084C25.4461 60.8591 26.4275 57.1876 28.655 58.3786C29.0177 58.5719 29.9736 59.1525 29.9736 58.1376C29.3766 55.369 31.0885 50.1788 34.2332 52.9138C32.1363 50.5512 26.5707 48.2826 26.5849 48.2968C24.2715 47.205 22.941 49.7714 24.7275 51.1325C22.3738 50.1251 20.9276 53.2444 23.3096 54.2944C20.8567 53.6138 20.0343 57.2294 22.2604 57.7271C22.033 57.6888 21.8003 57.6965 21.576 57.7496C21.3516 57.8027 21.1402 57.9002 20.9541 58.0364C20.7681 58.1726 20.6112 58.3447 20.4928 58.5425C20.3743 58.7403 20.2967 58.9598 20.2645 59.1881C20.2323 59.4164 20.2461 59.6488 20.3052 59.8717C20.3643 60.0945 20.4675 60.3033 20.6086 60.4856C20.7497 60.668 20.9259 60.8202 21.1268 60.9333C21.3277 61.0464 21.5492 61.1181 21.7783 61.1442C21.7783 61.1442 29.361 61.6494 30.2177 65.0023V65.0031Z" stroke="#442D7C" stroke-width="0.25" stroke-linecap="round" stroke-linejoin="round"/>
<path d="M35.3106 66.2182C35.2124 65.8328 35.1485 65.4395 35.1196 65.0428C34.4993 65.0531 33.8815 64.9621 33.2905 64.7734L35.3106 66.2182Z" fill="#764ED7"/>
<path d="M35.3106 66.2182C35.2124 65.8328 35.1485 65.4395 35.1196 65.0428C34.4993 65.0531 33.8815 64.9621 33.2905 64.7734L35.3106 66.2182Z" stroke="#442D7C" stroke-width="0.25" stroke-linecap="round" stroke-linejoin="round"/>
<path d="M93.4542 107.015C90.1818 103.612 87.4491 99.9417 83.3589 98.4081C84.5687 96.8607 85.4995 95.1142 86.1096 93.2471C88.9587 97.188 92.8415 101.986 94.475 106.518C94.7414 107.255 94.0519 107.635 93.4542 107.015Z" fill="#FECFC4"/>
<path d="M93.4542 107.015C90.1818 103.612 87.4491 99.9417 83.3589 98.4081C84.5687 96.8607 85.4995 95.1142 86.1096 93.2471C88.9587 97.188 92.8415 101.986 94.475 106.518C94.7414 107.255 94.0519 107.635 93.4542 107.015Z" stroke="#442D7C" stroke-width="0.25" stroke-linecap="round" stroke-linejoin="round"/>
<path d="M90.8568 95.9697C90.0964 96.0048 88.6733 96.2525 88.8576 96.9906C87.8935 95.6861 86.9435 94.4242 86.1069 93.2474C86.1778 93.0489 86.2345 92.8504 86.2913 92.6377C90.1621 93.4011 99.9737 95.5473 90.8568 95.9697Z" fill="#FECFC4"/>
<path d="M90.8568 95.9697C90.0964 96.0048 88.6733 96.2525 88.8576 96.9906C87.8935 95.6861 86.9435 94.4242 86.1069 93.2474C86.1778 93.0489 86.2345 92.8504 86.2913 92.6377C90.1621 93.4011 99.9737 95.5473 90.8568 95.9697Z" stroke="#442D7C" stroke-width="0.25" stroke-linecap="round" stroke-linejoin="round"/>
<path d="M90.8119 104.172C88.7597 101.959 86.6799 99.866 84.021 98.6787C86.1105 100.407 89.8619 106.542 91.6402 108.658C92.0656 109.112 92.6044 108.942 92.4909 108.247C92.1058 106.823 91.5416 105.454 90.8119 104.172Z" fill="#FECFC4"/>
<path d="M90.8119 104.172C88.7597 101.959 86.6799 99.866 84.021 98.6787C86.1105 100.407 89.8619 106.542 91.6402 108.658C92.0656 109.112 92.6044 108.942 92.4909 108.247C92.1058 106.823 91.5416 105.454 90.8119 104.172Z" stroke="#442D7C" stroke-width="0.25" stroke-linecap="round" stroke-linejoin="round"/>
</svg>
