<svg width="24" height="25" viewBox="0 0 24 25" fill="none" xmlns="http://www.w3.org/2000/svg">
<mask id="mask0_332_4825" style="mask-type:alpha" maskUnits="userSpaceOnUse" x="0" y="0" width="24" height="25">
<rect y="0.649902" width="24" height="24" fill="#D9D9D9"/>
</mask>
<g mask="url(#mask0_332_4825)">
<path d="M2 10.6501C2 8.98343 2.37083 7.45426 3.1125 6.0626C3.85417 4.67093 4.85 3.51676 6.1 2.6001L7.275 4.2001C6.275 4.93343 5.47917 5.85843 4.8875 6.9751C4.29583 8.09176 4 9.31677 4 10.6501H2ZM20 10.6501C20 9.31677 19.7042 8.09176 19.1125 6.9751C18.5208 5.85843 17.725 4.93343 16.725 4.2001L17.9 2.6001C19.15 3.51676 20.1458 4.67093 20.8875 6.0626C21.6292 7.45426 22 8.98343 22 10.6501H20ZM4 19.6501V17.6501H6V10.6501C6 9.26677 6.41667 8.0376 7.25 6.9626C8.08333 5.8876 9.16667 5.18343 10.5 4.8501V4.1501C10.5 3.73343 10.6458 3.37926 10.9375 3.0876C11.2292 2.79593 11.5833 2.6501 12 2.6501C12.4167 2.6501 12.7708 2.79593 13.0625 3.0876C13.3542 3.37926 13.5 3.73343 13.5 4.1501V4.8501C14.8333 5.18343 15.9167 5.8876 16.75 6.9626C17.5833 8.0376 18 9.26677 18 10.6501V17.6501H20V19.6501H4ZM12 22.6501C11.45 22.6501 10.9792 22.4543 10.5875 22.0626C10.1958 21.6709 10 21.2001 10 20.6501H14C14 21.2001 13.8042 21.6709 13.4125 22.0626C13.0208 22.4543 12.55 22.6501 12 22.6501ZM8 17.6501H16V10.6501C16 9.5501 15.6083 8.60843 14.825 7.8251C14.0417 7.04176 13.1 6.6501 12 6.6501C10.9 6.6501 9.95833 7.04176 9.175 7.8251C8.39167 8.60843 8 9.5501 8 10.6501V17.6501Z" fill="white"/>
</g>
</svg>
