<svg width="116" height="34" viewBox="0 0 116 34" fill="none" xmlns="http://www.w3.org/2000/svg">
<path d="M99.7306 33.3002C99.5146 33.3002 99.3346 33.2282 99.1906 33.0842C99.0466 32.9402 98.9746 32.7602 98.9746 32.5442C98.9746 32.4962 98.9746 32.4242 98.9746 32.3282C98.9986 32.2562 99.0346 32.1722 99.0826 32.0762L101.891 25.3082L94.9786 8.96424C94.9066 8.79624 94.8706 8.65223 94.8706 8.53223C94.9186 8.31623 95.0146 8.13623 95.1586 7.99224C95.3026 7.82423 95.4826 7.74023 95.6986 7.74023H99.8026C100.115 7.74023 100.343 7.82423 100.487 7.99224C100.655 8.13623 100.763 8.30423 100.811 8.49623L104.951 18.9722L109.163 8.49623C109.259 8.30423 109.379 8.13623 109.523 7.99224C109.691 7.82423 109.931 7.74023 110.243 7.74023H114.275C114.491 7.74023 114.671 7.82423 114.815 7.99224C114.983 8.13623 115.067 8.30423 115.067 8.49623C115.067 8.61623 115.031 8.77224 114.959 8.96424L104.771 32.5442C104.699 32.7362 104.579 32.9042 104.411 33.0482C104.243 33.2162 104.003 33.3002 103.691 33.3002H99.7306Z" fill="white"/>
<path d="M58.0012 26.46C57.4884 26.46 57.0268 26.3747 56.6166 26.2042C56.2576 26.0337 56.0781 25.8144 56.0781 25.5465V22.6965C56.0781 22.4286 56.1807 22.1971 56.3858 22.0023C56.6422 21.8074 56.9499 21.6247 57.3089 21.4542L75.3089 12.1734H58.6935C58.1294 12.1734 57.6422 12.0882 57.232 11.9177C56.873 11.7471 56.6935 11.5279 56.6935 11.26V8.37342C56.6935 8.10547 56.873 7.88624 57.232 7.71573C57.6422 7.54522 58.1294 7.45996 58.6935 7.45996H89.6166C90.1294 7.45996 90.5653 7.54522 90.9243 7.71573C91.3345 7.88624 91.5396 8.10547 91.5396 8.37342V11.4792C91.5396 11.6984 91.4371 11.8933 91.232 12.0638C91.0268 12.2343 90.7704 12.4048 90.4627 12.5753L72.9243 21.7465H91.155C91.7191 21.7465 92.1807 21.8318 92.5396 22.0023C92.8986 22.1728 93.0781 22.392 93.0781 22.66V25.5465C93.0781 25.8144 92.8986 26.0337 92.5396 26.2042C92.1807 26.3747 91.7191 26.46 91.155 26.46H58.0012Z" fill="white"/>
<path d="M47.3574 26.46C47.0934 26.46 46.8774 26.376 46.7094 26.208C46.5414 26.04 46.4574 25.824 46.4574 25.56V8.64C46.4574 8.376 46.5414 8.16 46.7094 7.992C46.8774 7.824 47.0934 7.74 47.3574 7.74H51.6054C51.8454 7.74 52.0494 7.824 52.2174 7.992C52.4094 8.16 52.5054 8.376 52.5054 8.64V25.56C52.5054 25.824 52.4094 26.04 52.2174 26.208C52.0494 26.376 51.8454 26.46 51.6054 26.46H47.3574ZM47.3214 5.04C47.0574 5.04 46.8414 4.956 46.6734 4.788C46.5054 4.62 46.4214 4.404 46.4214 4.14V0.935998C46.4214 0.671999 46.5054 0.455999 46.6734 0.287999C46.8414 0.0959997 47.0574 0 47.3214 0H51.6054C51.8694 0 52.0854 0.0959997 52.2534 0.287999C52.4454 0.455999 52.5414 0.671999 52.5414 0.935998V4.14C52.5414 4.404 52.4454 4.62 52.2534 4.788C52.0854 4.956 51.8694 5.04 51.6054 5.04H47.3214Z" fill="white"/>
<path d="M30.2708 26.8202C28.9028 26.8202 27.6788 26.5082 26.5988 25.8842C25.5428 25.2602 24.7148 24.3482 24.1148 23.1482C23.5148 21.9242 23.2148 20.4362 23.2148 18.6842V8.64023C23.2148 8.37623 23.2988 8.16023 23.4668 7.99224C23.6348 7.82423 23.8508 7.74023 24.1148 7.74023H28.6148C28.8788 7.74023 29.0948 7.82423 29.2628 7.99224C29.4308 8.16023 29.5148 8.37623 29.5148 8.64023V18.4682C29.5148 20.8202 30.5708 21.9962 32.6828 21.9962C33.6668 21.9962 34.4468 21.6962 35.0228 21.0962C35.6228 20.4722 35.9228 19.5962 35.9228 18.4682V8.64023C35.9228 8.37623 36.0068 8.16023 36.1748 7.99224C36.3428 7.82423 36.5588 7.74023 36.8228 7.74023H41.3228C41.5868 7.74023 41.8028 7.82423 41.9708 7.99224C42.1388 8.16023 42.2228 8.37623 42.2228 8.64023V25.5602C42.2228 25.8242 42.1388 26.0402 41.9708 26.2082C41.8028 26.3762 41.5868 26.4602 41.3228 26.4602H37.1468C36.9068 26.4602 36.6908 26.3762 36.4988 26.2082C36.3308 26.0402 36.2468 25.8242 36.2468 25.5602V24.1922C35.6228 25.0562 34.8068 25.7162 33.7988 26.1722C32.8148 26.6042 31.6388 26.8202 30.2708 26.8202Z" fill="white"/>
<path d="M13.86 33.2999C13.596 33.2999 13.38 33.2159 13.212 33.0479C13.044 32.8799 12.96 32.6639 12.96 32.3999V24.4079C12.408 25.1759 11.688 25.7759 10.8 26.2079C9.912 26.6159 8.88 26.8199 7.704 26.8199C6.528 26.8199 5.472 26.6279 4.536 26.2439C3.6 25.8359 2.808 25.2719 2.16 24.5519C1.512 23.8319 1.008 22.9559 0.648 21.9239C0.288 20.8919 0.084 19.7279 0.036 18.4319C0.0120001 17.9519 0 17.5079 0 17.0999C0 16.6919 0.0120001 16.2479 0.036 15.7679C0.108 14.4239 0.324 13.2359 0.684 12.2039C1.044 11.1719 1.548 10.2959 2.196 9.57588C2.844 8.85588 3.624 8.31588 4.536 7.95588C5.472 7.57188 6.528 7.37988 7.704 7.37988C9.048 7.37988 10.176 7.63188 11.088 8.13588C12 8.61588 12.732 9.22788 13.284 9.97188V8.63988C13.284 8.37588 13.368 8.15988 13.536 7.99188C13.728 7.82388 13.944 7.73988 14.184 7.73988H18.252C18.516 7.73988 18.732 7.82388 18.9 7.99188C19.068 8.15988 19.152 8.37588 19.152 8.63988V32.3999C19.152 32.6639 19.068 32.8799 18.9 33.0479C18.732 33.2159 18.516 33.2999 18.252 33.2999H13.86ZM9.648 21.9959C10.392 21.9959 11.004 21.8399 11.484 21.5279C11.964 21.1919 12.324 20.7719 12.564 20.2679C12.804 19.7399 12.936 19.1759 12.96 18.5759C13.008 18.0959 13.032 17.6399 13.032 17.2079C13.032 16.7759 13.008 16.3319 12.96 15.8759C12.936 15.2279 12.816 14.6279 12.6 14.0759C12.384 13.5239 12.036 13.0799 11.556 12.7439C11.076 12.3839 10.44 12.2039 9.648 12.2039C8.856 12.2039 8.22 12.3719 7.74 12.7079C7.284 13.0439 6.948 13.4999 6.732 14.0759C6.54 14.6519 6.42 15.2879 6.372 15.9839C6.324 16.7279 6.324 17.4719 6.372 18.2159C6.42 18.9119 6.54 19.5479 6.732 20.1239C6.948 20.6999 7.284 21.1559 7.74 21.4919C8.22 21.8279 8.856 21.9959 9.648 21.9959Z" fill="white"/>
</svg>
