<svg width="116" height="34" viewBox="0 0 116 34" fill="none" xmlns="http://www.w3.org/2000/svg">
<path d="M99.7307 33.3C99.5147 33.3 99.3347 33.228 99.1907 33.084C99.0467 32.94 98.9747 32.76 98.9747 32.544C98.9747 32.496 98.9747 32.424 98.9747 32.328C98.9987 32.256 99.0347 32.172 99.0827 32.076L101.891 25.308L94.9787 8.96399C94.9067 8.79599 94.8707 8.65199 94.8707 8.53199C94.9187 8.31599 95.0147 8.13599 95.1587 7.99199C95.3027 7.82399 95.4827 7.73999 95.6987 7.73999H99.8027C100.115 7.73999 100.343 7.82399 100.487 7.99199C100.655 8.13599 100.763 8.30399 100.811 8.49599L104.951 18.972L109.163 8.49599C109.259 8.30399 109.379 8.13599 109.523 7.99199C109.691 7.82399 109.931 7.73999 110.243 7.73999H114.275C114.491 7.73999 114.671 7.82399 114.815 7.99199C114.983 8.13599 115.067 8.30399 115.067 8.49599C115.067 8.61599 115.031 8.77199 114.959 8.96399L104.771 32.544C104.699 32.736 104.579 32.904 104.411 33.048C104.243 33.216 104.003 33.3 103.691 33.3H99.7307Z" fill="#442D7C"/>
<path d="M58.0012 26.46C57.4884 26.46 57.0268 26.3747 56.6166 26.2042C56.2576 26.0337 56.0781 25.8144 56.0781 25.5465V22.6965C56.0781 22.4286 56.1807 22.1971 56.3858 22.0023C56.6422 21.8074 56.9499 21.6247 57.3089 21.4542L75.3089 12.1734H58.6935C58.1294 12.1734 57.6422 12.0882 57.232 11.9177C56.873 11.7471 56.6935 11.5279 56.6935 11.26V8.37342C56.6935 8.10547 56.873 7.88624 57.232 7.71573C57.6422 7.54522 58.1294 7.45996 58.6935 7.45996H89.6166C90.1294 7.45996 90.5653 7.54522 90.9243 7.71573C91.3345 7.88624 91.5396 8.10547 91.5396 8.37342V11.4792C91.5396 11.6984 91.4371 11.8933 91.232 12.0638C91.0268 12.2343 90.7704 12.4048 90.4627 12.5753L72.9243 21.7465H91.155C91.7191 21.7465 92.1807 21.8318 92.5396 22.0023C92.8986 22.1728 93.0781 22.392 93.0781 22.66V25.5465C93.0781 25.8144 92.8986 26.0337 92.5396 26.2042C92.1807 26.3747 91.7191 26.46 91.155 26.46H58.0012Z" fill="#442D7C"/>
<path d="M47.3574 26.46C47.0934 26.46 46.8774 26.376 46.7094 26.208C46.5414 26.04 46.4574 25.824 46.4574 25.56V8.64C46.4574 8.376 46.5414 8.16 46.7094 7.992C46.8774 7.824 47.0934 7.74 47.3574 7.74H51.6054C51.8454 7.74 52.0494 7.824 52.2174 7.992C52.4094 8.16 52.5054 8.376 52.5054 8.64V25.56C52.5054 25.824 52.4094 26.04 52.2174 26.208C52.0494 26.376 51.8454 26.46 51.6054 26.46H47.3574ZM47.3214 5.04C47.0574 5.04 46.8414 4.956 46.6734 4.788C46.5054 4.62 46.4214 4.404 46.4214 4.14V0.935998C46.4214 0.671999 46.5054 0.455999 46.6734 0.287999C46.8414 0.0959997 47.0574 0 47.3214 0H51.6054C51.8694 0 52.0854 0.0959997 52.2534 0.287999C52.4454 0.455999 52.5414 0.671999 52.5414 0.935998V4.14C52.5414 4.404 52.4454 4.62 52.2534 4.788C52.0854 4.956 51.8694 5.04 51.6054 5.04H47.3214Z" fill="#442D7C"/>
<path d="M30.2709 26.82C28.9029 26.82 27.6789 26.508 26.5989 25.884C25.5429 25.26 24.7149 24.348 24.1149 23.148C23.5149 21.924 23.2149 20.436 23.2149 18.684V8.63999C23.2149 8.37599 23.2989 8.15999 23.4669 7.99199C23.6349 7.82399 23.8509 7.73999 24.1149 7.73999H28.6149C28.8789 7.73999 29.0949 7.82399 29.2629 7.99199C29.4309 8.15999 29.5149 8.37599 29.5149 8.63999V18.468C29.5149 20.82 30.5709 21.996 32.6829 21.996C33.6669 21.996 34.4469 21.696 35.0229 21.096C35.6229 20.472 35.9229 19.596 35.9229 18.468V8.63999C35.9229 8.37599 36.0069 8.15999 36.1749 7.99199C36.3429 7.82399 36.5589 7.73999 36.8229 7.73999H41.3229C41.5869 7.73999 41.8029 7.82399 41.9709 7.99199C42.1389 8.15999 42.2229 8.37599 42.2229 8.63999V25.56C42.2229 25.824 42.1389 26.04 41.9709 26.208C41.8029 26.376 41.5869 26.46 41.3229 26.46H37.1469C36.9069 26.46 36.6909 26.376 36.4989 26.208C36.3309 26.04 36.2469 25.824 36.2469 25.56V24.192C35.6229 25.056 34.8069 25.716 33.7989 26.172C32.8149 26.604 31.6389 26.82 30.2709 26.82Z" fill="#442D7C"/>
<path d="M13.86 33.2999C13.596 33.2999 13.38 33.2159 13.212 33.0479C13.044 32.8799 12.96 32.6639 12.96 32.3999V24.4079C12.408 25.1759 11.688 25.7759 10.8 26.2079C9.912 26.6159 8.88 26.8199 7.704 26.8199C6.528 26.8199 5.472 26.6279 4.536 26.2439C3.6 25.8359 2.808 25.2719 2.16 24.5519C1.512 23.8319 1.008 22.9559 0.648 21.9239C0.288 20.8919 0.084 19.7279 0.036 18.4319C0.0120001 17.9519 0 17.5079 0 17.0999C0 16.6919 0.0120001 16.2479 0.036 15.7679C0.108 14.4239 0.324 13.2359 0.684 12.2039C1.044 11.1719 1.548 10.2959 2.196 9.57588C2.844 8.85588 3.624 8.31588 4.536 7.95588C5.472 7.57188 6.528 7.37988 7.704 7.37988C9.048 7.37988 10.176 7.63188 11.088 8.13588C12 8.61588 12.732 9.22788 13.284 9.97188V8.63988C13.284 8.37588 13.368 8.15988 13.536 7.99188C13.728 7.82388 13.944 7.73988 14.184 7.73988H18.252C18.516 7.73988 18.732 7.82388 18.9 7.99188C19.068 8.15988 19.152 8.37588 19.152 8.63988V32.3999C19.152 32.6639 19.068 32.8799 18.9 33.0479C18.732 33.2159 18.516 33.2999 18.252 33.2999H13.86ZM9.648 21.9959C10.392 21.9959 11.004 21.8399 11.484 21.5279C11.964 21.1919 12.324 20.7719 12.564 20.2679C12.804 19.7399 12.936 19.1759 12.96 18.5759C13.008 18.0959 13.032 17.6399 13.032 17.2079C13.032 16.7759 13.008 16.3319 12.96 15.8759C12.936 15.2279 12.816 14.6279 12.6 14.0759C12.384 13.5239 12.036 13.0799 11.556 12.7439C11.076 12.3839 10.44 12.2039 9.648 12.2039C8.856 12.2039 8.22 12.3719 7.74 12.7079C7.284 13.0439 6.948 13.4999 6.732 14.0759C6.54 14.6519 6.42 15.2879 6.372 15.9839C6.324 16.7279 6.324 17.4719 6.372 18.2159C6.42 18.9119 6.54 19.5479 6.732 20.1239C6.948 20.6999 7.284 21.1559 7.74 21.4919C8.22 21.8279 8.856 21.9959 9.648 21.9959Z" fill="#442D7C"/>
</svg>
