<svg width="116" height="34" viewBox="0 0 116 34" fill="none" xmlns="http://www.w3.org/2000/svg">
<path d="M99.7306 33.6498C99.5146 33.6498 99.3346 33.5778 99.1906 33.4338C99.0466 33.2898 98.9746 33.1098 98.9746 32.8938C98.9746 32.8458 98.9746 32.7738 98.9746 32.6778C98.9986 32.6058 99.0346 32.5218 99.0826 32.4258L101.891 25.6578L94.9786 9.31384C94.9066 9.14584 94.8706 9.00184 94.8706 8.88184C94.9186 8.66584 95.0146 8.48584 95.1586 8.34184C95.3026 8.17384 95.4826 8.08984 95.6986 8.08984H99.8026C100.115 8.08984 100.343 8.17384 100.487 8.34184C100.655 8.48584 100.763 8.65384 100.811 8.84584L104.951 19.3218L109.163 8.84584C109.259 8.65384 109.379 8.48584 109.523 8.34184C109.691 8.17384 109.931 8.08984 110.243 8.08984H114.275C114.491 8.08984 114.671 8.17384 114.815 8.34184C114.983 8.48584 115.067 8.65384 115.067 8.84584C115.067 8.96584 115.031 9.12185 114.959 9.31384L104.771 32.8938C104.699 33.0858 104.579 33.2538 104.411 33.3978C104.243 33.5658 104.003 33.6498 103.691 33.6498H99.7306Z" fill="white"/>
<path d="M58.0012 26.8096C57.4884 26.8096 57.0268 26.7243 56.6166 26.5538C56.2576 26.3833 56.0781 26.1641 56.0781 25.8961V23.0461C56.0781 22.7782 56.1807 22.5468 56.3858 22.3519C56.6422 22.157 56.9499 21.9743 57.3089 21.8038L75.3089 12.523H58.6935C58.1294 12.523 57.6422 12.4378 57.232 12.2673C56.873 12.0967 56.6935 11.8775 56.6935 11.6096V8.72303C56.6935 8.45508 56.873 8.23585 57.232 8.06534C57.6422 7.89483 58.1294 7.80957 58.6935 7.80957H89.6166C90.1294 7.80957 90.5653 7.89483 90.9243 8.06534C91.3345 8.23585 91.5396 8.45508 91.5396 8.72303V11.8288C91.5396 12.048 91.4371 12.2429 91.232 12.4134C91.0268 12.5839 90.7704 12.7544 90.4627 12.925L72.9243 22.0961H91.155C91.7191 22.0961 92.1807 22.1814 92.5396 22.3519C92.8986 22.5224 93.0781 22.7416 93.0781 23.0096V25.8961C93.0781 26.1641 92.8986 26.3833 92.5396 26.5538C92.1807 26.7243 91.7191 26.8096 91.155 26.8096H58.0012Z" fill="white"/>
<path d="M47.3574 26.8096C47.0934 26.8096 46.8774 26.7256 46.7094 26.5576C46.5414 26.3896 46.4574 26.1736 46.4574 25.9096V8.98961C46.4574 8.72561 46.5414 8.50961 46.7094 8.34161C46.8774 8.17361 47.0934 8.08961 47.3574 8.08961H51.6054C51.8454 8.08961 52.0494 8.17361 52.2174 8.34161C52.4094 8.50961 52.5054 8.72561 52.5054 8.98961V25.9096C52.5054 26.1736 52.4094 26.3896 52.2174 26.5576C52.0494 26.7256 51.8454 26.8096 51.6054 26.8096H47.3574ZM47.3214 5.38961C47.0574 5.38961 46.8414 5.30561 46.6734 5.13761C46.5054 4.96961 46.4214 4.75361 46.4214 4.48961V1.28561C46.4214 1.02161 46.5054 0.805609 46.6734 0.637608C46.8414 0.445609 47.0574 0.349609 47.3214 0.349609H51.6054C51.8694 0.349609 52.0854 0.445609 52.2534 0.637608C52.4454 0.805609 52.5414 1.02161 52.5414 1.28561V4.48961C52.5414 4.75361 52.4454 4.96961 52.2534 5.13761C52.0854 5.30561 51.8694 5.38961 51.6054 5.38961H47.3214Z" fill="white"/>
<path d="M30.2708 27.1698C28.9028 27.1698 27.6788 26.8578 26.5988 26.2338C25.5428 25.6098 24.7148 24.6978 24.1148 23.4978C23.5148 22.2738 23.2148 20.7858 23.2148 19.0338V8.98984C23.2148 8.72584 23.2988 8.50984 23.4668 8.34184C23.6348 8.17384 23.8508 8.08984 24.1148 8.08984H28.6148C28.8788 8.08984 29.0948 8.17384 29.2628 8.34184C29.4308 8.50984 29.5148 8.72584 29.5148 8.98984V18.8178C29.5148 21.1698 30.5708 22.3458 32.6828 22.3458C33.6668 22.3458 34.4468 22.0458 35.0228 21.4458C35.6228 20.8218 35.9228 19.9458 35.9228 18.8178V8.98984C35.9228 8.72584 36.0068 8.50984 36.1748 8.34184C36.3428 8.17384 36.5588 8.08984 36.8228 8.08984H41.3228C41.5868 8.08984 41.8028 8.17384 41.9708 8.34184C42.1388 8.50984 42.2228 8.72584 42.2228 8.98984V25.9098C42.2228 26.1738 42.1388 26.3898 41.9708 26.5578C41.8028 26.7258 41.5868 26.8098 41.3228 26.8098H37.1468C36.9068 26.8098 36.6908 26.7258 36.4988 26.5578C36.3308 26.3898 36.2468 26.1738 36.2468 25.9098V24.5418C35.6228 25.4058 34.8068 26.0658 33.7988 26.5218C32.8148 26.9538 31.6388 27.1698 30.2708 27.1698Z" fill="white"/>
<path d="M13.86 33.6495C13.596 33.6495 13.38 33.5655 13.212 33.3975C13.044 33.2295 12.96 33.0135 12.96 32.7495V24.7575C12.408 25.5255 11.688 26.1255 10.8 26.5575C9.912 26.9655 8.88 27.1695 7.704 27.1695C6.528 27.1695 5.472 26.9775 4.536 26.5935C3.6 26.1855 2.808 25.6215 2.16 24.9015C1.512 24.1815 1.008 23.3055 0.648 22.2735C0.288 21.2415 0.084 20.0775 0.036 18.7815C0.0120001 18.3015 0 17.8575 0 17.4495C0 17.0415 0.0120001 16.5975 0.036 16.1175C0.108 14.7735 0.324 13.5855 0.684 12.5535C1.044 11.5215 1.548 10.6455 2.196 9.92549C2.844 9.20549 3.624 8.66549 4.536 8.30549C5.472 7.92149 6.528 7.72949 7.704 7.72949C9.048 7.72949 10.176 7.98149 11.088 8.48549C12 8.96549 12.732 9.57749 13.284 10.3215V8.98949C13.284 8.72549 13.368 8.50949 13.536 8.34149C13.728 8.17349 13.944 8.08949 14.184 8.08949H18.252C18.516 8.08949 18.732 8.17349 18.9 8.34149C19.068 8.50949 19.152 8.72549 19.152 8.98949V32.7495C19.152 33.0135 19.068 33.2295 18.9 33.3975C18.732 33.5655 18.516 33.6495 18.252 33.6495H13.86ZM9.648 22.3455C10.392 22.3455 11.004 22.1895 11.484 21.8775C11.964 21.5415 12.324 21.1215 12.564 20.6175C12.804 20.0895 12.936 19.5255 12.96 18.9255C13.008 18.4455 13.032 17.9895 13.032 17.5575C13.032 17.1255 13.008 16.6815 12.96 16.2255C12.936 15.5775 12.816 14.9775 12.6 14.4255C12.384 13.8735 12.036 13.4295 11.556 13.0935C11.076 12.7335 10.44 12.5535 9.648 12.5535C8.856 12.5535 8.22 12.7215 7.74 13.0575C7.284 13.3935 6.948 13.8495 6.732 14.4255C6.54 15.0015 6.42 15.6375 6.372 16.3335C6.324 17.0775 6.324 17.8215 6.372 18.5655C6.42 19.2615 6.54 19.8975 6.732 20.4735C6.948 21.0495 7.284 21.5055 7.74 21.8415C8.22 22.1775 8.856 22.3455 9.648 22.3455Z" fill="white"/>
</svg>
