<svg width="143" height="140" viewBox="0 0 143 140" fill="none" xmlns="http://www.w3.org/2000/svg">
<path d="M127.281 46.5574C131.111 54.3393 133.263 63.0958 133.263 72.3552C133.263 89.2563 126.094 104.483 114.631 115.159" stroke="#442D7C" stroke-width="0.25" stroke-linecap="round" stroke-linejoin="round"/>
<path d="M75.6384 13.8768C75.3528 13.8728 75.0673 13.8708 74.7817 13.8709C42.4825 13.8709 16.2988 40.0545 16.2988 72.3537C16.2964 76.5174 16.7369 80.6695 17.613 84.74" stroke="#442D7C" stroke-width="0.25" stroke-linecap="round" stroke-linejoin="round"/>
<path fill-rule="evenodd" clip-rule="evenodd" d="M126.413 25.9623L105.509 5.05981C104.098 3.64848 102.422 2.52893 100.578 1.76511C98.7346 1.00129 96.7584 0.608154 94.7627 0.608154C92.7669 0.608154 90.7907 1.00129 88.9469 1.76511C87.103 2.52893 85.4278 3.64848 84.0167 5.05981L73.5968 15.4804C71.7733 17.3027 70.4438 19.5592 69.7334 22.0372C69.0231 24.5153 68.9553 27.1335 69.5364 29.645L67.4395 31.742C67.4581 31.7584 67.4768 31.7756 67.4947 31.7942L99.6752 63.9748V63.9733L99.7289 64.0292L101.825 61.933C104.337 62.5148 106.955 62.4475 109.434 61.7374C111.912 61.0273 114.169 59.6978 115.992 57.8742L126.413 47.4528C127.824 46.0417 128.943 44.3665 129.707 42.5228C130.47 40.6792 130.864 38.7031 130.864 36.7075C130.864 34.7119 130.47 32.7359 129.707 30.8922C128.943 29.0485 127.824 27.3733 126.413 25.9623ZM97.4365 26.7727C97.4365 31.7159 93.4299 35.7225 88.4867 35.7225C83.5435 35.7225 79.5369 31.7151 79.5369 26.7727C79.5369 21.8303 83.5435 17.8237 88.4867 17.8237C93.4299 17.8237 97.4365 21.831 97.4365 26.7734V26.7727ZM120.878 34.3412C120.878 39.2843 116.872 43.2909 111.929 43.2909C106.985 43.2909 102.979 39.2836 102.979 34.3412C102.979 29.3988 106.985 25.3914 111.929 25.3914C116.872 25.3914 120.878 29.3988 120.878 34.3412Z" fill="#4BAE48"/>
<path fill-rule="evenodd" clip-rule="evenodd" d="M126.413 25.9623L105.509 5.05981C104.098 3.64848 102.422 2.52893 100.578 1.76511C98.7346 1.00129 96.7584 0.608154 94.7627 0.608154C92.7669 0.608154 90.7907 1.00129 88.9469 1.76511C87.103 2.52893 85.4278 3.64848 84.0167 5.05981L73.5968 15.4804C71.7733 17.3027 70.4437 19.5591 69.7333 22.0372C69.023 24.5153 68.9552 27.1335 69.5364 29.645L67.4395 31.742C67.4581 31.7584 67.4768 31.7756 67.4947 31.7942L99.6752 63.9748V63.9733L99.7289 64.0292L101.825 61.933C104.337 62.5148 106.955 62.4475 109.434 61.7374C111.912 61.0273 114.169 59.6978 115.992 57.8742L126.413 47.4528C127.824 46.0417 128.943 44.3665 129.707 42.5228C130.47 40.6792 130.864 38.7031 130.864 36.7075C130.864 34.7119 130.47 32.7359 129.707 30.8922C128.943 29.0485 127.824 27.3733 126.413 25.9623Z" stroke="#442D7C" stroke-width="0.25" stroke-linejoin="round"/>
<path d="M111.926 43.2929C116.87 43.2929 120.876 39.2855 120.876 34.3431C120.876 29.4007 116.87 25.3933 111.926 25.3933C106.983 25.3933 102.977 29.4007 102.977 34.3431C102.977 39.2862 106.983 43.2929 111.926 43.2929Z" stroke="#442D7C" stroke-width="0.25" stroke-linecap="round" stroke-linejoin="round"/>
<path d="M115.352 33.1607L113.636 31.4481C113.37 31.1806 113.019 31.0139 112.643 30.9765C112.268 30.9391 111.891 31.0334 111.577 31.2432C111.263 31.4529 111.032 31.7652 110.923 32.1265C110.814 32.4879 110.834 32.8758 110.979 33.2241C111.061 33.4219 111.181 33.601 111.332 33.7525L112.516 34.9353C112.815 35.242 112.982 35.6547 112.979 36.083C112.976 36.5115 112.804 36.9214 112.501 37.2244C112.198 37.5274 111.788 37.6991 111.36 37.7024C110.931 37.7049 110.519 37.5384 110.212 37.239L108.584 35.6017" stroke="#442D7C" stroke-width="0.25" stroke-linecap="round" stroke-linejoin="round"/>
<path d="M115.104 31.1648L108.783 37.4855" stroke="#442D7C" stroke-width="0.25" stroke-linecap="round" stroke-linejoin="round"/>
<path d="M88.4888 35.7247C93.432 35.7247 97.4386 31.7174 97.4386 26.775C97.4386 21.8325 93.432 17.8259 88.4888 17.8259C83.5457 17.8259 79.5391 21.8333 79.5391 26.7757C79.5391 31.7189 83.5457 35.7255 88.4888 35.7255V35.7247Z" stroke="#442D7C" stroke-width="0.25" stroke-linecap="round" stroke-linejoin="round"/>
<path d="M91.9113 25.5901L90.1994 23.8737C89.8907 23.5845 89.4816 23.4267 89.0586 23.4336C88.6356 23.4405 88.2319 23.6116 87.9327 23.9107C87.6336 24.2099 87.4625 24.6136 87.4556 25.0366C87.4487 25.4596 87.6065 25.8687 87.8958 26.1774L89.0786 27.361C89.3778 27.6677 89.5442 28.0804 89.542 28.5087C89.5387 28.9372 89.367 29.3471 89.064 29.6501C88.7611 29.9531 88.3511 30.1247 87.9226 30.1281C87.4941 30.1308 87.0817 29.9646 86.7749 29.6654L85.1406 28.0296" stroke="#442D7C" stroke-width="0.25" stroke-linecap="round" stroke-linejoin="round"/>
<path d="M91.6606 23.5974L85.3398 29.9182" stroke="#442D7C" stroke-width="0.25" stroke-linecap="round" stroke-linejoin="round"/>
<path d="M86.457 59.656L84.7406 57.9397C84.4314 57.6516 84.0223 57.495 83.5997 57.503C83.1771 57.5109 82.7742 57.6828 82.476 57.9823C82.1778 58.2817 82.0076 58.6854 82.0014 59.108C81.9953 59.5306 82.1536 59.939 82.4429 60.2471L83.6235 61.4336C83.9228 61.7403 84.0892 62.153 84.0869 62.5813C84.0836 63.0098 83.9119 63.4198 83.609 63.7227C83.306 64.0257 82.896 64.1974 82.4676 64.2007C82.0389 64.2032 81.6265 64.0367 81.3198 63.7373L79.6855 62.1022" stroke="#442D7C" stroke-width="0.25" stroke-linecap="round" stroke-linejoin="round"/>
<path d="M86.2048 57.6667L79.8848 63.9875" stroke="#442D7C" stroke-width="0.25" stroke-linecap="round" stroke-linejoin="round"/>
<path d="M80.9197 52.1414L91.7277 62.95C90.7799 66.8753 87.2442 69.7917 83.0279 69.7917C78.0847 69.7917 74.0781 65.7843 74.0781 60.8419C74.0781 56.6256 76.9937 53.0898 80.9197 52.1414Z" stroke="#442D7C" stroke-width="0.25" stroke-linecap="round" stroke-linejoin="round"/>
<path d="M99.674 63.9768L67.4935 31.7956C67.0306 31.3565 66.4146 31.1156 65.7767 31.124C65.1388 31.1324 64.5294 31.3896 64.0782 31.8407C63.6271 32.2918 63.37 32.9012 63.3615 33.5391C63.3531 34.177 63.5941 34.793 64.0331 35.2559L96.2136 67.4365C96.4409 67.6637 96.7107 67.8439 97.0076 67.9668C97.3045 68.0898 97.6227 68.153 97.9441 68.153C98.2655 68.153 98.5837 68.0896 98.8805 67.9666C99.1774 67.8436 99.4472 67.6633 99.6744 67.4361C99.9016 67.2088 100.082 66.939 100.205 66.6421C100.328 66.3452 100.391 66.027 100.391 65.7056C100.391 65.3843 100.328 65.0661 100.205 64.7692C100.082 64.4723 99.9013 64.2026 99.674 63.9753V63.9768Z" stroke="#442D7C" stroke-width="0.25" stroke-linecap="round" stroke-linejoin="round"/>
<path d="M84.0924 109.663C89.0355 109.663 93.0421 105.655 93.0421 100.713C93.0421 95.7698 89.0355 91.7632 84.0924 91.7632C79.1492 91.7632 75.1426 95.7698 75.1426 100.713C75.1426 105.655 79.1492 109.663 84.0924 109.663Z" stroke="#442D7C" stroke-width="0.25" stroke-linecap="round" stroke-linejoin="round"/>
<path d="M85.6757 97.4558H83.2533C82.8298 97.4686 82.4279 97.6459 82.1329 97.95C81.8379 98.2541 81.6729 98.6612 81.6729 99.0849C81.6729 99.5086 81.8379 99.9156 82.1329 100.22C82.4279 100.524 82.8298 100.701 83.2533 100.714H84.9272C85.3507 100.727 85.7526 100.904 86.0476 101.208C86.3427 101.512 86.5077 101.919 86.5077 102.343C86.5077 102.767 86.3427 103.174 86.0476 103.478C85.7526 103.782 85.3507 103.959 84.9272 103.972H82.6138" stroke="#442D7C" stroke-width="0.25" stroke-linecap="round" stroke-linejoin="round"/>
<path d="M84.0869 96.2224V105.16" stroke="#442D7C" stroke-width="0.25" stroke-linecap="round" stroke-linejoin="round"/>
<path d="M62.565 88.0182C67.5082 88.0182 71.5148 84.0108 71.5148 79.0684C71.5148 74.1253 67.5074 70.1187 62.565 70.1187C57.6226 70.1187 53.6152 74.1253 53.6152 79.0684C53.6152 84.0108 57.6226 88.0182 62.565 88.0182Z" stroke="#442D7C" stroke-width="0.25" stroke-linecap="round" stroke-linejoin="round"/>
<path d="M64.1505 75.811H61.7289C61.3054 75.8239 60.9035 76.0011 60.6085 76.3052C60.3135 76.6093 60.1484 77.0164 60.1484 77.4401C60.1484 77.8638 60.3135 78.2709 60.6085 78.575C60.9035 78.8791 61.3054 79.0563 61.7289 79.0692H63.405C63.8372 79.0692 64.2516 79.2408 64.5572 79.5464C64.8628 79.852 65.0344 80.2664 65.0344 80.6986C65.0344 81.1308 64.8628 81.5452 64.5572 81.8508C64.2516 82.1564 63.8372 82.328 63.405 82.328H61.0916" stroke="#442D7C" stroke-width="0.25" stroke-linecap="round" stroke-linejoin="round"/>
<path d="M62.5625 74.5747V83.514" stroke="#442D7C" stroke-width="0.25" stroke-linecap="round" stroke-linejoin="round"/>
<path d="M83.4355 114.883L95.9845 109.754C97.8777 108.979 99.5829 109.659 100.587 110.907" stroke="#442D7C" stroke-width="0.25" stroke-linecap="round" stroke-linejoin="round"/>
<path d="M108.923 113.451C108.873 110.92 106.36 108.535 103.379 109.754L86.4531 116.673" stroke="#442D7C" stroke-width="0.25" stroke-linecap="round" stroke-linejoin="round"/>
<path d="M90.9062 119.408L90.9466 119.371L109.827 113.155C114.021 111.773 116.865 117.085 113.844 119.852" stroke="#442D7C" stroke-width="0.25" stroke-linecap="round" stroke-linejoin="round"/>
<path d="M109.559 118.543L91.522 124.027C91.7872 123.569 91.9541 123.06 92.0121 122.533C92.0701 122.007 92.0179 121.474 91.8589 120.969C91.6999 120.463 91.4374 119.997 91.0883 119.598C90.7392 119.2 90.311 118.878 89.831 118.654C81.17 113.778 73.1844 107.587 63.6249 106.169C50.7297 104.254 43.0672 98.7725 37.7853 92.9279C34.2734 89.0414 30.8832 83.2946 26.9542 78.2537L1.09961 95.6689C4.06819 100.021 9.42627 107.697 12.7613 111.776C27.4333 129.722 51.2991 140.019 69.28 139.365C82.4953 138.883 99.4464 134.089 112.845 125.758C116.813 123.292 114.029 117.182 109.559 118.543Z" stroke="#442D7C" stroke-width="0.25" stroke-linecap="round" stroke-linejoin="round"/>
<path d="M58.042 119.592C64.265 119.207 68.4895 120.143 71.1984 121.069C75.108 122.405 88.8606 128.214 91.5262 124.026" stroke="#442D7C" stroke-width="0.25" stroke-linecap="round" stroke-linejoin="round"/>
<path fill-rule="evenodd" clip-rule="evenodd" d="M31.6451 84.761C33.6301 87.6311 35.5704 90.4385 37.8226 93.0429C30.1302 93.4302 26.0826 98.4689 22.0991 103.428C19.3835 106.808 16.6977 110.151 12.909 111.959C8.5845 106.534 4.69504 100.943 1.09961 95.6675L26.9542 78.2507C28.643 80.4171 30.1564 82.6066 31.6451 84.761ZM30.1198 87.3878C30.1198 88.3188 29.7499 89.2117 29.0916 89.87C28.4333 90.5283 27.5404 90.8982 26.6094 90.8982C25.6784 90.8982 24.7855 90.5283 24.1272 89.87C23.4689 89.2117 23.0991 88.3188 23.0991 87.3878C23.0991 86.4568 23.4689 85.5639 24.1272 84.9056C24.7855 84.2473 25.6784 83.8775 26.6094 83.8775C27.5404 83.8775 28.4333 84.2473 29.0916 84.9056C29.7499 85.5639 30.1198 86.4568 30.1198 87.3878Z" fill="#764ED7"/>
<path d="M37.8226 93.0429C33.8794 88.4841 30.8929 83.3036 26.9542 78.2507L1.09961 95.6675C4.69504 100.943 8.5845 106.534 12.909 111.959C22.2573 107.499 24.8878 93.6944 37.8226 93.0429Z" stroke="#442D7C" stroke-width="0.25" stroke-linecap="round" stroke-linejoin="round"/>
<path d="M26.6119 90.8965C27.5429 90.8965 28.4358 90.5266 29.0941 89.8683C29.7524 89.21 30.1223 88.3171 30.1223 87.3861C30.1223 86.4551 29.7524 85.5622 29.0941 84.9039C28.4358 84.2456 27.5429 83.8757 26.6119 83.8757C25.6809 83.8757 24.788 84.2456 24.1297 84.9039C23.4714 85.5622 23.1016 86.4551 23.1016 87.3861C23.1016 88.3171 23.4714 89.21 24.1297 89.8683C24.788 90.5266 25.6809 90.8965 26.6119 90.8965Z" stroke="#442D7C" stroke-width="0.25" stroke-linecap="round" stroke-linejoin="round"/>
<path d="M26.6113 85.5398V89.2337" stroke="#442D7C" stroke-width="0.25" stroke-linecap="round" stroke-linejoin="round"/>
<path d="M24.7598 87.3884H28.453" stroke="#442D7C" stroke-width="0.25" stroke-linecap="round" stroke-linejoin="round"/>
<path d="M38.7666 50.1787V59.8053" stroke="#442D7C" stroke-width="0.25" stroke-linecap="round" stroke-linejoin="round"/>
<path d="M33.9561 54.9893H43.5827" stroke="#442D7C" stroke-width="0.25" stroke-linecap="round" stroke-linejoin="round"/>
<path d="M8.56152 74.624V81.8798" stroke="#442D7C" stroke-width="0.25" stroke-linecap="round" stroke-linejoin="round"/>
<path d="M4.93457 78.2539H12.1904" stroke="#442D7C" stroke-width="0.25" stroke-linecap="round" stroke-linejoin="round"/>
<path d="M116.392 82.8389V87.5261" stroke="#442D7C" stroke-width="0.25" stroke-linecap="round" stroke-linejoin="round"/>
<path d="M114.048 85.1826H118.735" stroke="#442D7C" stroke-width="0.25" stroke-linecap="round" stroke-linejoin="round"/>
<path d="M118.659 126.456L123.042 130.839" stroke="#442D7C" stroke-width="0.25" stroke-linecap="round" stroke-linejoin="round"/>
<path d="M118.659 130.839L123.042 126.456" stroke="#442D7C" stroke-width="0.25" stroke-linecap="round" stroke-linejoin="round"/>
<path d="M134.772 19.5605L142.884 27.6723" stroke="#442D7C" stroke-width="0.25" stroke-linecap="round" stroke-linejoin="round"/>
<path d="M134.772 27.6723L142.884 19.5605" stroke="#442D7C" stroke-width="0.25" stroke-linecap="round" stroke-linejoin="round"/>
</svg>
